<mxfile host="65bd71144e">
    <diagram id="1u21XhsgpBjEl4RT2kEo" name="Page-1">
        <mxGraphModel dx="1086" dy="825" grid="1" gridSize="10" guides="1" tooltips="1" connect="1" arrows="1" fold="1" page="1" pageScale="1" pageWidth="850" pageHeight="1100" math="0" shadow="0">
            <root>
                <mxCell id="0"/>
                <mxCell id="1" parent="0"/>
                <mxCell id="2" value="" style="shape=image;verticalLabelPosition=bottom;labelBackgroundColor=default;verticalAlign=top;aspect=fixed;imageAspect=0;image=https://k21academy.com/wp-content/uploads/2020/11/Explanation-of-how-IaC-works.jpg;" vertex="1" parent="1">
                    <mxGeometry x="120" width="1002" height="580" as="geometry"/>
                </mxCell>
                <mxCell id="3" value="" style="shape=image;verticalLabelPosition=bottom;labelBackgroundColor=default;verticalAlign=top;aspect=fixed;imageAspect=0;image=https://k21academy.com/wp-content/uploads/2020/11/terraform-lifecycle.png;" vertex="1" parent="1">
                    <mxGeometry x="120" y="640" width="1010" height="143.73" as="geometry"/>
                </mxCell>
                <mxCell id="4" value="" style="shape=image;verticalLabelPosition=bottom;labelBackgroundColor=default;verticalAlign=top;aspect=fixed;imageAspect=0;image=https://k21academy.com/wp-content/uploads/2020/11/Terraform-installation.jpg;" vertex="1" parent="1">
                    <mxGeometry x="120" y="850" width="995.22" height="400" as="geometry"/>
                </mxCell>
                <mxCell id="5" value="" style="shape=image;verticalLabelPosition=bottom;labelBackgroundColor=default;verticalAlign=top;aspect=fixed;imageAspect=0;image=data:image/png,iVBORw0KGgoAAAANSUhEUgAABKAAAAGaCAYAAAA4gDvQAAAAAXNSR0IArs4c6QAAAARnQU1BAACxjwv8YQUAAAAJcEhZcwAAEnQAABJ0Ad5mH3gAAP+lSURBVHhe7P0L1HVZWd8Lntw7OSIIoewABswgh6EFPTKScEkPQjLKThu7Cca+SSRK2pwWL+k2keAgIwkmhpBjk0REUDs5wRLkaHmgCaBiJXhsNGYgVHEpC6Hk8hV1+Sjqqyv1UReq6tu9fvNdv1XPfr659t7v++33/vzH+I+55n2uueaca87/nmvu/+awsSgUCoVCoVAoFAqFQqFQKGwNo+RSiBjrplAoFAqFQqFQKBQKhUKhsAWMkkshYqybQqFQKBQKhcIRxIULF1ayUCgUCoXC0cMouRQixropFAqFQqFQKBwyegLTpbBQKBQKhcLhYJRcChFj3RQKhUKhUCgUDgmIRQ8/ev4iAelLjzx6kduF8w9f7DbQsDlOoVAoFAqFg8couRQixropFAqFQqFQKBwSEJ8iZwUlxSfMIER9+cKXW7hI/QqFQqFQKBw8RsmlEDHWTaFQKBQKhULhEIBIlMWnKCppn5jEJ5gFKNwwC4VCoVAoHA5GyaUQMdZNoVAoFAqFQuEQgFjUE6BkFJSiuRsWCoVCoVA4WIySSyFirJtCoVAoFAqFwgGjJxZdeOi+i9wQnXrE7yLRKu2OgoVCoVAoFA4Wo+RSiBjrplAoFAqFQqFwwMhCUaMCUhKS5gSoJc7ELRQKhUKhcLAYJZdCxFg3hUKhUCgUCoUDRhSJuuzsZioBqlAoFAqFo49RcilEjHVTKBQKhUKhUDgEIBBtJColdsPOsFAoFAqFwsFilFwKEWPdFAqFQqFQKBQOGApEUYBaEpZmdjTthoVCoVAoFA4eo+RSiBjrplAoFAqFQqFwwEAgUnQ69+jDjbMi1CqGMMaPaRQKhUKhUDhYjJJLIWKsm0KhUCgUCoXCAaMnGmXxqLHzz3gT0y4p4kYhq1AoFAqFwsFjlFwKEWPdFAqFQqFQKBQOGFFIUjCSuD386PklPvCV84svX/hyY4uH6BQ5pqMAZdqFQqFQKBQOFqPkUogY66ZQKBQKhUKhcMBQIFI8uv/Lj4lRik5f+cqdi0ceua2ZD164YxKgmsA0Ck+P3LFDrnGPLBQKhUKhcPAYJZdCxFg3hUKhUCgUCoUDRhSgFJCwIzApPj163y0TseM+7YAa48b4UXwyTKFQKBQKhYPFKLkUIsa6KRQKhUKhUCgcMKKA9JV7vzIJSAhMiE33f/nmR6IA9ej5c42cCcXnePffdedSGufPP7Y7SrNQKBQKhcLBY5RcChFj3RQKhUKhUCgUDhjuUFJAgghHd1+4t31u1wSoO29aPPjhDy0evPqdi1t+4R3t+tFbzw5hH2iCk2kgSF10RtTAQqFQKBQKB49RcilEjHVTKBQKhUKhUDhgKBJlAQrxiXOfLpy9oQlO9/3U6xef+L7vWXz05d+9+MzrXrt44JqPt91PCE7xczvsmCVAFQqFQqFwuBgll0LEWDeFQqFQKBQKhQOGIpHikzuYEJ/45E7x6cyLv3Xx61//rAvwmhe8qO2EevTOuycBih1TilAeXg4LhUKhUCgcDkbJpRAx1k2hUCgUCoVC4YCRBSjOdsri07mXfefimmc8c/HBy57eRKjrv+NlOwIUn+EN4RWeYNsBNbhBBCjcCoVCoVAoHDxGyaUQMdZNoVAoFAqFQuGAMQlQQTzK4tPvP/vZi0894SmLjz3tGxbsfjrzxjfvnAM1Hkbe4p/3EPMHlgSo2gVVKBQKhcLhYJRcChFj3RQKhUKhUCgULgFRTOoh+htmyQ3x6c6bFg/f8MnF+bdd2cSnzz/zWYvPfdVTFp960tcsPvu8b1rc85p/vCM+3XdL+5e8FufWs+1MKEhcPs1TgMr5iCnPRNHzg4VCoVAoFDbDKLkUIsa6KRQKhUKhUCisQU+U2ZR+Khc/mYNNKEJIOn9uEp9u/PaXTjufEKA+/43PX9z6Q69a3P/+X28iFZ/pIUAhPuHGrigOJz9/5VUXcFOgUoTaNguFwvaR+1fuc9E+RzHnl+0iukf/nluhUNgMo+RSiBjrplAoFAqFQqGwBi7CsrDDweEISzL6nT//mN+5Rx9uJHz7p7qHdj6XQzBq/3j3rqua+PTZr7u8iU+//6RnTuLTg+/+5SY4ucMJsuvp2u//wfZpHuR8qAevfmdLC5GKcsayxrJMZfT8qdFu2QgT7zmyUChsH/Qt/8lSO31WO37aM40HwZxfpuj5zbFQKGyGUXIpRIx1UygUCoVCoVBYAxZfUdCJ14o22qWCj+IT/1in+MSuJ3Y0IRi1nU/f9fKdnU9P+pomQPHZneITu6MeuSOIRecfaJ/jIUARjjOirr388sW51722pYeopQhlWRSgLNckPgUBSr9WxuCWWSgUtgv6VRSZetdwlaAENwmDP7z/y33/TVkoFOYxSi6FiLFuCoVCoVAoFAorkBdeCjuac4JNFKAUdojTDhE/e0MTltrOp+96eROQrnvyExfXXfbkJip94vu+Z+ezu1vPNvGpCVBDmi2v8w+0uAhOhOVTPXZOkU7eBdXKwq6pUCbMtvicBK0dk0VpCVCFwsHDvqXopJAEFZ+if4+Gjfbs77Vp6pbDzrlFFgqFeYySSyFirJtCoVAoFAqFwgq44FK8iQJN3GXU/oluvEbgaeLTlx5sbIu5wd+dT5755L/dXfe4p1645rKvbUJU2/l09TtbmPbZ3SgQuZOqpXV257O9My/+1va5HiIU6SBKeVg5ZWvlC+WamHY+Qe5LAcp7nRjCFwqF7YJ+1ROXFIq4pt/3RCPNSONFP9OZs/fYSxsWCoXVGCWXQsRYN4VCoVAoFAqFFXDRhSiTRagm8LDDKIlPS9eIN40PNPGJXU18WvfRl3/34ppnPLOJT4hIk/j0rqumT+nuv+vOtlAk37OLnd1U5I0fQtNt3/sDbfeTu6AQtNwFtVQ2BaSO8CRJN4pQk1+KUygUtguEniwI6SZ1i35ZIIrho1++1h8zh4lhI6N7oVBYjVFyKUSMdVMoFAqFQqFQWIG4CIOKUNPuJ8UnP3WLYs/EB5rw1HYuvfuXF5981Q8vrn3eC5r4BKP41HY+jTuYXCQiCCE+3X7h/keaAMVOqiE9djzd+pdfNO2C4vq+n3p9S4N/w3tMgBpFKMuW6L1EAcr7bAzxCoXCdkG/iqKRpgIRdoXtGD774RbTyWFjGN0IG+26eW0akYVCYTVGyaUQMdZNoVAoFAqFQmEGeeF1ERWdNOUo9nB2E5/RIRYhCnGuk+ITu58+eNnT286ndn7TeOA44hKCECIQC0HItYeYQ/JjNxVx8i4o7H6G186bygJUEJN6jOJTM1OcQqGwXdi3EIHo7whKXH/xi19c3Hv33ZO7YXCDuGHXP/pxTfjsrh8k/ZtuvHnxmc98pvHWW25t/nEXZ4+FQmE1RsmlEDHWTaFQKBQKhUJhBr3F1ypOcdjxhPCUxCcOF7/mBS+axCdM3CbxiTOfHrqvLRpve+CeZkLSRJSSTYA6f27xwDUfX9z1hjdPh5FDzoXifKn2GR87pRChEMgQoVrZNhOgagdUoXAwsG/Z1xGHEISuvvrqxUc/9tHFuXvOTaIRghFuH/rQh5bEJIiAhHuMQ3oITddff33zO3PmTItHOqR/5c9dufjpn/7pxne9611TXIUraLlkoVBYjVFyKUSMdVMoFAqFQqFQmEFcdOWdQFChJoo1Ltya+BPEp3Ov/tEmFCE8wd/8M89oO58QixSfmgA15uOiD3P6nC4SkWtIH/GKdPwM7/Pf+PzFPa/5x0u7oCYRaizjOpYAVSgcHKZ+NpCxA7EIQegVr3jF4jWveU0TihCRGAsQiPDDHUFJkQjB6id+4idaHMxPffL3Jj/j4E5aH/jAB5rw9MpXvrKFhy972cua+frXv775kx/lIc/ejqhCoTCPUXIpRIx1UygUCoVCoVCYwbTgaqLQ8g6iKD5FwUbBiE/k2IUUxSdEIs58+vWvf9aFtvPJM58Imz+TG/NpQlQWn0YiLCE0cRYUwpOf4d347S9t+ZI/ZYGe87QJu7ugRhYKhe3CvkVfRzBCAEIcuuKKKxYveclLmiikoISJ/du+7duamORndYhRCEjPfe5zm5ikaAXZ2UR6iFbueCIsbohSuGEqSJE+ohX5USbLVeNAobAZRsmlEDHWTaFQKBQKhUJhBnHB1UQfRaiBCjS3j9SO0NN2HI3iE7uRFJ8QiD72tG/YOfMp/Ntd2+HUEaDYecDijzS7u6DgkAZp3XjFNy8+9YSnNJIfn+Y1cYt/zLtwx2PnR3k/o8DVYzwHKrNQKKzHqj4T/SIReRCM3v72tzchCH7Lt3xLE4YQpfDnMzvEIoQphCPsxEFwQnhSgEJk8nwnBSeEJdJGiCKMQhPxSQc/hSp3QSk+KUZZ1lWI91QonEaMkkshYqybQqFQKBQKhcIMpoVUFn1G8SYKUJCDwpsAhejz4Q+1f7aL/1KH6Wd3fiL3yCO3PbY7KYhPMQ8EoSURaiyXYlfbBfWy71w6jBz7g1e/s+2uQoCibB5kvpTXmNbS9cAsQBUKhc2R+060zxGBh51MCEMIRvEzOXYxKQghFEUBiV1RhMUNKiLhx+d8CFamgbCEHwIWJvl5lhTnQyFkkT5xcadcClDQsq6CYdaFKxROKkbJpRAx1k2hUCgUCoVCYQYuohB6JqFoFIDYnQQRas596cHFTV+6v4k7iErts7vXvXZx5ooXLq677MmLTz3pa9rOJw4IZ2dSE5/uvKmJR6TZ0iUvRaGRpB0FqKWwY7koDzudyE+xC3LtYeQXCVAxnzGtzCxAwUKhsBlyv4n2OSL4uAsJcQlxiN1L2tnNRDhEIgQlyDWiEiITghLhIHGIjx92wnKNWEUe2BWryAM30iIO+ShKKTph1g6oQmEzjJJLIWKsm0KhUCgUCoXCCrCIUvhByGmiz/mdz+MUcLhGhLr/rjunM5kQnz7/zGctPv34xy8+8vSnNfHpvp96ffNHMGqf3LmjKizYTA+zJ0BdFB47ItN4GHncBeVh5Pd/+eZHFKG6O6A2FKIKhcLuEfvTHBF3+AxOsQgTwYidTYpNiEMIQZiITZwDhXjEzibsiFCISIpWuGPHz91O7KJid5NCVyZxyZeyKEApPGE6Nq1CvK9C4TRilFwKEWPdFAqFQqFQKBRWgEUUoo3iE4uwtiBLAg7/YPfANR9vO5w4j4mdTwhBiFCKTx44vvNvd5z5NJ77NKSh2KTgE+2KRk2AavntiFcKUqTnLqh42Hk7a4rP8MZzoOBS2SVpbsBCobB75H6koBPJjiOEIUQgPo9TDEI4ws6B5IhGCEN+csf5UPj7qR7+fHKH8IRghXvcGYUf+ZgG4lQM464orhGh4hlQucyrsGm4QuGkYpRcChFj3RQKhUKhUCgUVoBFFAKQZDGWDwyP4hNiE7uPEIA4EFzxyQPH2wHlQ3zifOXer+ykMeSh2HTu0Z1P76Kbi7m222kSrnZEqCZADWmS3m1veWv7BzwEKPK+9nkvWMp7OkMqlt+0N2ChUNg9en0pEnGH85cQkBCAXvSiF7XdTe58ws7h4ohM7GJCQEIgiuc9YSIoIRq56wk3iZiF6IQIRVzELtIhvIKUwhXpEp5DzN0F1ca9UOZV2DRcoXBSMUouhYixbgqFQqFQKBQKK8AiCuEJIQhzZwfRYwIQwg+fubnzibOeEJ8QoeJndx44TpydNB4TsKazpB59eBKgloQnqWCk+DRcT5/lke41H1+ce/WPLj7/jc9vAtRv/plnLD7xfd8zHUbexK+xzFP+Mf0VLBQKe0PuS3k3EeIOghCikaISO5bYneQuKNwRpXBDMEJIwo1dUMZBnGKHk5/osXPKXVKKU4hPpMmuJ8NTHsqACEVYP+3jLCjFJ8LA+gSvUFiPUXIpRIx1UygUCoVCoVBYARZRCkKTKHR+ZwdT+4e58cwnxCd3PmFi98BxdyAhFk2f0clRBCLt2y/c/wjnNHGN2LUULoRtAhTmQzuf4bU0KdOtZychjIPPr7nsa5sIhlv7/G/cfTXFD7zoHmdYKBR2h14/inTXEruPEJLYCYU45I4l/BCk+AwPgQg3/AjLzijdcVNIQkDCDxoHP9KN50yx6wk3hCmuSRNBy8/9FKAoJ+KT4tkqxHsrFE4jRsmlEDHWTaFQKBQKhUJhBVxITeJM2zn0wM7B3x/+UNvhdO5l3zkdOM7nbwhAiFJt51PYedR2KQ0LOHdUxYUabpnmO4VTgBrTUoByBwOf9HEYueW57slPXPz+s5+9uO17f6D9Mx8CVdv9ZHqB3p/shYGFQmF36PWjSD6/Y2cTwg87k9gNFf+FToGK3UzudFJkYpcT8bhGMGIswERM8uwohCbyIC3ikZef2pEeAhVUfMJEkIq7o3KZV2HTcIXCScUouRQixropFAqFQqFQKKwAi6glUeb8zplPik+3/uUXNbHn5q9+XNt1xL/f+e9zO5+6seNoRzhiBwGLOXcRRLqTycPOISLURYJQEKE400kBCvGpCVBDvuSP8KQgxsHk56+86kIUoEw3cvbzP/McWCgUdoelvtQhn7ohGPkvdghOik+KP4RBSFKgIgwmwhPk2rCY7HgiLHFIEzFJP9JihxNCUyZpIT6RPuOKn9w5ZmmuAv6yUDiNGCWXQsRYN4VCoVAoFAonFnEh1OMmYaCCDIuxVeITdsSfttvozpseE58UcEbTRVwUehCS4q4mqBgkDdsYwjX7kDYCFJ/aPfiuq5oQRtnaP/F94/Pb2VCcEYUIRficdqS7r8xnuh5YKBTWI/eZaM9E7EEwQkTyszfcMR0rPNtJ8Qk/3NjRhKAURSvi4EeakDSx64fJjiiEJsQpxC9MSHjTMm/LArWvgmHWhSsUTipGyaUQMdZNoVAoFAqFwokBCx5FGe0Twy6eSMUWP3tDgMGuGGM4FmN8SofAw5lKfubWxCf+7c6dT/HA7yxAdWgeTUgKolKzj/6xTMbL4RqH/BTI+OxOAYryUV53QVEe05Xev/Uxx0KhsB65z0R7puIOIlEUfSRuCkdRCIr26J/DZhqX/BCbEKh6IlUuQ7T3KHpuhcJpwii5FCLGuikUCoVCoVA4EXDBE4WZZXFmFIKSGBSFF6ggs/Q52kP37RwifsMnF+ffdmUTczhoHHGHT9zY+XTrD71q/OzupunTuCUBqpN3j0tlHtjyD3YICCeiXxO+zt7Qyokoxs4sd0EhnLELip1S3pvpc+8578xCobA5en1ot5wTgjChn8hFv569d605Jzptg4XCacQouRQixropFAqFQqFQOBFgsYOAEjkthLIINApBUXji3+fuvP/2ZirKYLIwU9SJB44j6sTP2/zsbhKf5vLWfQW9HxHde9C/EbFsKEfcBcUuLYQyDyN/5I7lHVCKT63c6ZM7iL/XhUJhM8Q+tFdmsQgqFPmvdNFvU5qG5qo09NuLQFUonEaMkkshYqybQqFQKBQKhRMBFzyKKVE0mTgjBilAwaUFXQv3QNv5pPj0kac/bXHd4556wcO9EZ/457l2wDef6I15d/PvcFuY0hx3aymYsTuLXVB8hse/87ELirKyeI1C25wAZRhZKBTWI/aZbTDudIKIQYxTilC6byIWxTCmEd1zuDn3TVgonEaMkkshYqybQqFQKBQKhRMBFzwbCT9BgHIBh9DSFlaj6NTOUxrPfPKzO/5Z7oOXPb0R8al9dqf4dN8t0+6nTcUnuC1MaSJADeVuu6DeddUkmsXdWnyG1+5xCB8FpiZAjWnoBkuEKhR2h9hfNuFuRB3CKjBlM16vS1P/mJ5uilIx3R7zva7LcxULhZOCUXIpRIx1UygUCoVCoXAiEBcyWTCBS6KQu59GIWppd8EoPCEq+Y9y7VO2b3x++4ztY0/7hkl84nM2dhopPsG8+6lXlsxtYCnNUYTiM7xzr3vt4trLL287oDi36syLv3USzVgsUr5VZdQPs1AobIbcj7ZN+q7i+SqRaFNBiDSkbsbNaWya5m6Z0QsDC4WjjlFyKUSMdVMoFAqFQqFwItBbqCCaKAj5idm0y2cUnyY2t1F8uvPuSXxqZz594/OnA8e5juLTI4/c1mjaik89EUoRR3e5DSylyQ4mdjh5GPmLv3U6NL19Nvi617b7c6eT5Wsc6mKqo5Gx3IVCYT1i/9mEuxV15sShSP0UlTBxy3Ex9cN+WMzohZGFwlHGKLkUIsa6KRQKhUKhUDgR6C1SoCKUApHEj3+DiyIUwlMUn9z5FMUn3NhBhLhz/5dvfoRdTw9euKOlaT45/2jvcRu4KN1RTEMoQzDjMPJPP/7xzbzxu16+c2j6fbe0RedURoW4gfk+YKFQ2Ay572zK3YhASzs3ZxjFp3Ui01EQoHruPRYKRxmj5FKIGOumUCgUCoVC4USgt0iB7kRSeMIOWWy1xdkkQD3w2Gd37/7lJjRx5hOfrik+sRsKP8Ig7rDziYPLFZ72uoDbJpbSHu6JsrILisPIEaA4kPzMFS9sbohohLGOZKyn6A4LhcLukfvRtrjpmLPbcKvC73WcuxTmPAuFo4xRcilEjHVTKBQKhUKhcCIQFyeZWXyC7oxqYRCf2P1069kmMHFQ97XPe0H7tzsEKMQbBKnzV151QfGJnU933n97o+mTTs57oruLwi4juE2YZtx1xX2x26l9SvjMZy1u/urHtUPJ206uq9/Z/A0rraPsDguFwqWj17fkpuKPu5vW0TiY8dwoee/dd0/84he/OFG3HFY/7LE88XobND3yiSYsFI4yRsmlEDHWTaFQKBQKhcKJgAuTJSaxR+GJXUuTAMWB3aP41ISaV/9oOyeJf7pDfEK08bO7LD4RH+GpLZQQn1J+S2y7rC723yZMUwGqmeMuqHte848nASruguK+jScVoFr9JL9CoXDpyP1qE0aBRzFmTvTBXcFIKizddOPNi8985jOL66+/fvGhD31o8YEPfGBx9dVXN77rXe9aou6EgYT/6Mc+uvjUJ39vcestt05CVOZcuXZD0lAwyweuFwpHGaPkUogY66ZQWAlfAEL7pu57waWktSpe9uuFw55fmLpHrnup9uLMuYGee7ZnRP9I0fOLLBQKhZOIi8Y7BZ8g/Cg8Qc5uQlDiUzR3PiE+8ckdu5/4BK/tfHrblZP4xDvgIoGmHfo9CkwDLypLpxxymzBN7lERivK2nV3jgerXPfmJTYRCjEKU4p/ysnjmZ4XT/QW/QqGwN9iH9krFl0hFGYnAdObMmSYSIRgpJL397W9fXPlzVy5++qd/evETP/ETE1//+tfvicYnPUja5KFYhVCFSBV3S8F1c2jvJ7tF+yoWCkcBo+RSiBjrplBYid7ADte9CDZFL27mpjD8qrLpF8NHxDCrSJhVBz+aFuzlOce5vHvohYOi5xdZKBQKJxGOcXE8zQeN44awws4lznBq4tPV71wSnzzzicO6EW6y+KSIZR45/S6TvwIR3BZi2lGEouwITQhOiGqeBeWZVm0X1Pj5oPEQoVo9pnIXCoXNYJ/pcW7OF2mYGFYhB7qbyZ1M7mBSbFolMs0JSJm4K1zJVelCwxHfXVSIUohi7LyKohT3lu+vVze4Y/b8VrFQOAyMkkshYqybQmElGLjnBnr9YQyzDoabo8j2dSBsLmuv7GLOfxV74TdNIwO3TeJeKnppwkKhUDiJYHzzrCfH2C/d8eVlEYpxkM/uzp9bPHrnTZMw45lPk/j07S99THy675b22Z3i07lHH57EnUbTjnms4FLcgdtETB+zXbND6+wNbScXn94hPiFCcbbVXW94c7tHBCjqjPDc51SH6Z4KhcJ62F/oQ3OiyioSp0d3OCE6ucMJsec1r3nN4pWvfGUj1wpBiEeEcVcSAhCiFen0iDB07p5zS5/szZFP8EiLnU4KYIhO5Ev+vTLhTzjFKNIgLe5tro50tw6ye6RumoXCYWCUXAoRY90UCivRG9DjYB79s98cenEiRbavQ0wjMr6ooOA63hPXhu35y/hCw8zp99gD7sQlvV4+cBvopQsLhULhpMHxzQPBHV8ZaxGgHhOh+Nxs4Nkb2plPiE/sfOK8JwUoxCcOHCcM4hNiFWmSvqJOE3bGPBtnxCfDRTPH3yZiHqZP2bkPxbbrLnty+wzPTwyph3YY+UP3TeIT8dv7qQSoQmHXoK84z7Pv7JbGRQxCqEF0QryJAk8UmxB34udvCFUKPHHHUc5ntzQNTdKFilIIS+SPyBR3ZmWhjHIjkClIUV7KmdOVMc9NWSgcBkbJpRAx1k2hsBa9wTwzoxdmt9wLeulE+tKaC8vLTeiWX3SEiW6rXoSi557ddsuMXphVLBQKhZOILD4hpDDmtcVLEJ/iv93deMU3t0/uPvdVT2km4tMXfvYtTaxhhxQ7n9oOojCGKu5EkWcSaYJYoxA0R8NtE6Zp/l63+zh7w+K+n3p92/nE/SJEnXnxt86ecdXilgBVKHRhn9gNV80bJWEQYhBkFHAQahBspIKTu5sQp9iNFIUm6OHdppvz2g1X3XPOAxNSFoQpRKm4S8rP+rwfPulTjCIc9x6FM/PJ83CZ3QqFw8QouRQixropFDZCHNAje4N9tK/jbsNvQl92c34991XMcbDHl/luuJc4kZcSv1AoFE46HO+iANXGzXZA+Cg8df7tDtEJfvbrLp/EmCY+sfNp/PSupd3SWBaXvJ4Y/CXh/GQvMobZNmLaE/nskF1QnHf1su9s98uOr2svv3w6jBzBjXCr3jeFQmFv89e5fqU789coPLlrKAtPijTsNlKgycIM13G+uurs0v2m5ZOUmbL37tFzqdzN5UHmxs1pe5/ZPbJQOGiMkkshYqybQmEj9AZzyIsgvuzmuJswvlw2iRNJeOPOvaC8juXO+fTc193nKj85l09mzx23TX/BWuUHC4VC4SSDcU5xp42HiC6ITpz3FM58yjufPva0b2ji0+1v+MnpzCcOKOdf8vz0btoJlESoLCY1jmH0R4CSvfDbRE67cSiP9fHANR9fnHvdaxcITwhQH3n609q9I0y1Tw6HemqiXSedQqGwg17/WDcHmyPzTIjwhOiC+IIQ4yd2ik75AG/ikmeep5qe9nXca7kvhZZbMQqhyZ1e3jd0VxT37n1bXu9zrvy6FwoHjVFyKUSMdVMobIQ8kG9Cw2YzX0tfIpEx7DozxonU319HtEfGuL10dMvukfj10l7FVWWJeXmtGe/ZMLrFNHvpFwqFwkmF45yiD2NgE59GAQpxpYlPr3ttE58QnRCgEGGWxKc7b5rEJz5Da2Np3P0UBKiYZ3aTUYCybM0vpLNN+BliE5HgmI8/ZPj5IfeM+HTdk5/YzoLi0zzFtxYnlG/6HG/LZS0UjivsD7A338KNeVr0y3bd+HRO4YldQAgvCFDsDmKXUBaeTDumM8dY1hg3l2OOMX6maWya1ipSJu4REY7zoLj3KEZRHwhR+LkjKubf2wWlf6Fw0Bgll0LEWDeFwkZwIM8vLK5x44UY3Q0Le9eYvXQicYNOmNeZMa4vaBjz9NowMLqZjiYvuPjCj+FiPN2iH4zX2mMcGP1h9DNf4pkW92s4TN2xx7rwGr8eC4VC4aSBsU2BB7YxkB1Qo/jUPrsbxadrnvHMJkC584l/gkOc8tDxtlNoiB85CUebMIg3sUxTGkng2SaWxCdofoPJuwFBjl1Qt/7Qq5rwxDlQkMPI2QWFQJU/N4xnQhUKhb4A5dxMtzhX4zrO6zCZY8bP0OLnZ7gjxuQ45mW6XvfsmfqTTvbrMaLnD52X9riuPJmEp2zcc/5Ej7qB7ojizCuFKOJi5vsy/0LhoDFKLoWIsW4KhZXIgzgDe3yZMPD716u8LHI4XwbRThjNyBgWxny8XmcSjxcWLyW36uKew1hmyx3z4xrTbdBu+zWM4SV23KNbTktid5ux37QbNoYnTfIkf8LrrmmcmE+vDKtEqEKhUDhs9Mal7Kb7piC8Qk8b/9q5TzctiU/s+rnmsq9tIpQ7nybxyc/PRgHK8fQiAWkdg3gDL4qrABXCbQsX7YBShAr5IjJx1hX3zw4oeOaKF067oB65Yycc75F873vFVIYZFgrHCbHtxvkWY0b0cxxhbuePms6fmWMirnj2kcKTcz/imq7mKsb5X8//ILlJeXvkHiR15byeukJ88qwoz4iKB697/7kOCoWDxii5FCLGuikUVoJBe+4FwiDPC4FfJngRINgY1pdApi8EXw4xPeyGie76ZbceeaG7hVnxxriWgZeUW3p52TMBwM1wloP4hOFvYnnpGcaXnGG152tMGcNaZ5SRvHN4rik3eZI/W41NI5JwmPoZPzKHiSwUCoXDQhyLmlAS7HBJqNkDia8Ag/iEoKL4xMHbfHaXxSfCTeJT2/0zkPRGkzQv+oRuHYO4dJF75Oh+qYh5rNoFhckuKO6bXU+ff+azFp960tc0Ye4T3/c9O/XRdkH1BSg4B/0zV/nJQuGoo9du81xLu4xzMkznqvHzMkQo562GNa0sJpnPOsZ09sJN48ayZr/I7B+h/5xwZr0pRPmZIiZzaufyhINxri5FdIvcFL24qxjR84c99MJtysLhY5RcChFj3RQKK9Eb1CQDuyLNy172siaU+HKJgz9uvZeSftEuYzjYe5HEsF4jgiHsIBphRgHKcPxSQpmvuOKKxbd927e1FxkvNcNA4iFOPfe5z20krXg/hMHkRWkZoOXQLfpB0lBYgvzKRRjSivEUoChDrtd4P9KyYMr4Esfei1soFAqHgWkcGsWRacfO4BbFjix6QMc4ruO5RDEcZzdxhpMHjrOrxwPHOe8pf3Y3iU+T6HSxODRXnj0zpC0vFTk9aN1avxOH/BGhqJtb//KLFp9+/OObCBV3QVEf1DX3fHvn3kkTZDOGmeU+3H+hsN+wrToGOXeL8yvd4rV0fqeAgvCEPQooprNXxnIeFkXPD2bobj1iwji3pW6oI+rQM6KsR+bLrEmY41vXpiUF16v81yHG2YQRPX+Y0QuzGxYOH6PkUogY66ZQWIvewOagzWCP2IOYo5iifx7c/eWCOJDwvCgMC3mx+OmZYYhDXMOZDn4xHfyIyy9KCGK81LOwZBjK/JznPPsC4hLh/MTOcKT7ile8ooWBpElaMf9YRr/Rj2Xk5dgLw0SD/Emfl6f3QXheqsbHnXydlOBHvthNey5vy0deMV3pfRYKhcJhwDFIAeorX7mziRcISlHokVP4gb5Xovi0xCE9xCcPHEdMQWxy5xNUfOKzPESYVg7jKzzJmPYl0PvWzNwGeulST9QtbG7jPbV6Pf9AO4z83Mu+s4lPN3/149puqHte8493hLnz59oCkJ1fWYBaJzqZ3+xzsm5DHRcKRx22VeZScf4a7Y5RmrgxT4uiCWSOxzzO+aVp75YnAfF+rEPFp54dMv9lnss8XhHK3VDGIT3NeB3Tif5wHWLYTZnz6HGTMJfCwsFilFwKEWPdFAor0RvAJIM2Igdiyrd8y7e06ziYa/LC4OXqS8JfKzB5USig+HJmtxH+hiGOL2iEJtLhJZPTQUTipUP4LEB5L5SJMJT5RS96URPOuKbs5G+ZTYMwClCIOJSVvLwPiRuiD/HJk/QIE+/De1WAIv2YRgzDfZKGO6C4N+uPspi2cWLeuZ5JAzf8vEfrpFAoFA4Dvkfc/TSZg1sUnqLgkTlN1oOAwfiGaMIh4j3xCfOzz/umJj5xCHf7zCyKT6YXGf1GHlX0ynqRADWSuuX9TD0hOHEYOQIURJB68F1XtZ1h1DNh53ZA5euczyw7dVsoHAfQVp3nco2ZaZsmHHMvf1SM8zLmbszNYvi98CQg3g91Nic+6W89U3/UI2uHOJf2x1vr1vDao5vXum8TMS+v57hJmN3SOoOrEOMUtoNRcilEjHVTKKxEHJAiGSQZ1KIAxctVdwZ9B35FEcKx6weTFzACDHZeGoRBaOGljJvhMAlHeNInP675dM50MAnjL0mY2kk3l1sBijCQtHhZITBRZkz9MRGgKKPiUSxTvA/SID/KyAvQeyAM15jEJxx2xC/DYMZ0uA/yxA078Yj/kpe8ZClNy0gYymfehol540f5fBkVCoXCYcJxOYsjsztmBrIIadc9kYjP5wYimrD7SfEJYeWDlz298ZoXvGhx7tU/urO759azO5/dDXHJc0lcCeII7vphHnVM9zBy5Q6owZwOI7/ihZMARZ3Fz/Co91gPc9xYfIocymO5C4WjDtst80moXVFEM5L5bfzhkPmYc84okuyVJwH5npyrwmncT+6xrqlP5srUL/XMGoB6xy+G66Xhtdwmctp7ZbwH70n3aM4xoue/FxZWY5RcChFj3RQKK9EbcCADHS8EBaG4Awr/OEjyAiAMYgkvBl4QCCxRpHHnEvYowmAqqBCPPBCpCIsdYkfMIQ/svHRIQ2HLMlkufikhPUUa4pIG7lFkwh93z4CKu5fIg7IYlnujTNxHvC/8uQ8nHqQD8Uf4sj64T/zZcUXaxsGuAEV62L1P64a0CEs9W1emCwlPGNwIw2SHuigUCoXDhmPzrqjotMQHdnY+3blz4DjiCbt4euJT++wO8Wn89A7RZJXolYWXo45Ybq+bMJR2eunfPrMb6sTDyP0Mj/rzE0XenevEp1WMcXM6scyFwlFHbLtzi/74AyzzOeaSzMWYq2F3bprZS2sTngT07ivWb6+uY93hrwhlfTuf5nnktIxjOl5vG+bZY/aPZVzFTcP10Au3VxZWY5RcChFj3RQKK9EbbDAdvBWg2JnDII+b/pi8ZHkZxN09vngJrziCO8IJ4XhxIPYQhpcJ4fBHIIJcI+JokobCDG6bCFD4+3LiWrEIP9yxM1GA8RM8/Lk2f+MjJhGPshIXN+IShzwRfkif+iKeYXDjczvC4a7YRTrUA+IYdsKRPkIfduoHcu29EIZrd0VRtlg+3Ei3BKhCoXAU4LicBQl368jJrys87RykrfjEzqa2m+fF37r4/Dc+v312N4lPr3ttE1QQqNrOpyA+UYaewKJb9D/qsOyKapO4Rn1FcyR1oWiXDyOnLt0FRdheHfUYyxHrMJqZhcJxQG63zoe5xtTOXMu5nPNN7MxLY1zDm8ZeeJLQu78eXWdYd5L5NHNt5uD88Kro59xXWt/G030TGHav3EYa0Do4LBZWY5RcChFj3RQKK9EbcKAvTQZ5hI0oQEH82CHFiwCRBFGEFzDhDcNLmBczfryYo0jli4JwXLOzCKEGAYj0eKlI4rgDKopCmOThAI1JeqSFfw7PSwoRh3KQLtdRgELwIX9fasRXSFKAIj3suBPf+8CkLkiDMPhHQYhyER4BCn8nLQhO2CHpk4/pcm/mh5/1TBzrG+JvGMpPXpSpUCgUDhOMQxBBIosSXRFqFJweueMx8Wnnk7u7m/iEUIJgcuO3v3TpwPG484lP89oneg/tHHzu+0GRxrLEMuWywaMMy8g9TeITTMLTRHZGDfVC/bDrid1Pn/uqp7TdY7f+0KumXVDduDOM5YC5Lnv1WygcB9BWHTck8yrnVl47X2XuxRySHyLjnDSy57YbnkSsuk+uqTM/zePauTTX1DPrDebRzNeZt/M8CBPr2jSi2yYw7G4Y87gUxnRsc9tKey8szGOUXAoRY90UCivRG2ygg3YWoBjcJeF4CSjq8BJWgNKPlwOiCkJKFKAMg6loQ/ru+OGFghvkxUIauvGiJy1MRB/T0VSAUiTyX/EgZXTXEfmRhruSmDyQl/eCG+QeiGv+MW3u0XslH9M0DPWBH/VF3JwXZcGdtAhP3lxzH+6aIi3K4zVhLAthLSd2yhBfwIVCoXBYYAyCChAyi09ZgFrmzplPik8IKNdeviM+Xfe4p17gwPEsPiE8KT7BKD5pRlouedRBGbmn2bpL90IYd0FxGLkCFLugqE/qtR3Wzi6ogSCmsSlzvcoYplA4DrC9xoU/8zLsmMzrmHcpfjD3w83wMV7kJthrvJME79v6jibuPgPm2NS/c3ZFKOMTTmLfFMbfhJYNWj7NfL0Nrkpv23nBwjxGyaUQMdZNobASvcEGOogpQCGUKLhAxBGvcVcYQXxBBGEgjqKK6SjuIBLxkuCljcCjwMLL3HOSEGmIhxsCmC8Y/MyL/GN5STMKUMTHjTSIQzruMuJFRRrugLK83CsvNPMnX8tNeQlD+oRR8CEudtLBJIz5W0/cHwIUYUgb0x1RkDQtG/Xn7jLSofyxPrGTBvdKXPIkLLvIfNHCQqFQOCw4DvWoeLIkokAFlGnn091NOOEf2278rpdPZz597Gnf0P7trh04/u5fbmH8VC+mmyfkWRjJAgk86qCM3t+DF+7Y2eGUhCfvY6kezt4wfb7IDjI+xeMzRkSpdmg7u6DSOVK7ZazXSP0LheMC2msWFZybMR9jHgad58W51yquw17inDR437H+oc/Aa+rddQJkPuwaJIaPz2YTGHZTxjJmkjfrBMpK2/GIDY/niOspwlnefN+mFe0HwcI8RsmlEDHWTaGwFr0BBzLQMbAjeiCUIMBEkQWTwV7xRdEHQUnhBDfi8UIgrAKKYXhhEAbTdPzcLoo5uBGOeLhzTXwGbMrqYMzgjTBjWSg/buRNvqaNkIR4Q1oIUORDWPwQwIiLH/mRFp+9mR7uXEPLQzzjkJd28iF/yP2RNuVWgMJuHRKeMnJN3XNv1hn5GAc7pMykRV7Q+rAuCoVC4bDh+6RHxRGvGbva+IUIMjCKTxygzc6nay772o3Fp0lMSeJMFkUaOzuHjiooH/eH+NTu03Kne4h+1Ct1hNDEZ3d5FxT1iEDVdkGFNOBFdbWGhGeHlvUcPxMsFI46bKv0GYUATOdlzhWdtyIgGM64q7gOe4lzHLDp/RjGeo/xtPs8IEIOz4FnwlyZa9cGMVxMZx1i2E1IWZnne5QIc3/aCWWBzOUh83TIXN7rSMMZjzRIizQRrbgv7mWurW3aBnfDwjxGyaUQMdZNobAWvQFHMvDxkmVnDkSMiXSwZ3BULMJdkxcC/gzMDJ4MsDGMJAwiFWb0V1xBmMFOfqThi9/B2PKSD8IS/oRVAEK8wY10ieevEKSl6EM87bl83osvA4Ugw0LS96VDXZA/afryw5045EV5eMkQD3dIePIgDcJTbtxJl3LxYlM0I1wsH2EISxzqwZdQoVAoHCYcm1cRgUIydvH5nJ/dRfEJ4Qle+7wXXCQ+ITYpPDXhBfGpfVLmjqrHxJmu+HQMBahHHrmt1VUUmiKnuhiu2zuBXWW3nl3c9YY3t11QiE/sguJgcg4ob3XJ4e0hDevqojrbgApQ0a1Q2C1i+5lrR70wPa4LG/1d6HMchXMy5m7OdZmLMS8jjPO8mNYc12EvcY4DNr2fGC7SeS20vq171g/Mk5kb81zi3Bvm+DLnJ6Jbj6RFe2AtQd6KTszryZ85OWWBXPeoXwzXC8/agDRJm3k+bZA8yZsyeH+xbNEeucrvUnkaMUouhYixbgqFtegNJBKBh4GcQQ/hJBI3BlyEHAZBBkTs+KngM1CShi8JBswcBrsDKSZxcIfmIfGjPAz2cfAlfQ8axA1/wpk3btiJTzzi4EbZyYNJhPljt2zmr0k40uReDedLgfRJwzrT7r2Tl/kTxry1E55yW2brC3fCWmbzto4ol3nFZ1coFAqHjTgmQRdz0Q2RAvHp7gv3tl09j953S9uNg/jE7hxEJ//tjp1PCFLt4GzOLRp3Sym2TLttmgB1sfjUZRKqjjIoo/eq+AS9lyj4ZD8/a6TuqMPpM7xnPqvZ22d4CFDjLijTUkiSU3qRK+qYZ1Io7Aa9dhSZ0QuzF86lxZyM+R/zPcUn5l2OZfjnODKmWdgMsf7W0Tm+P4Qj2vCcmEvncDwvGf3W0edrGqTN3Jt2gGjkj8GKSVE0cp4OWQOsu2Z+7/oiilnmYT74Ec71wao2CON9ex/Rf138dTyNGCWXQsRYN4XCWvQGEhkHW8lAf+6ec9O1gxrEjruiiv699AgDDaOf/lJ/08aMcWJ5Yx6E0T+6GS+7EQ4zls38LAv+EjsDP4KQfqZBnJh/dIvhYprZP8bDjOUlXixjjCMLhULhMBHHI4WhnoCBG/6IT+zqUXxCFOGMIg8c57oJJYPf9LnYKD4R3zyWRZcNRKhRcIlhjiosH/eIAOX945ZFItyX6gIO98pOJ3ZBcZ4WAtR1lz257YiiXt0F5buLOo3pmrbmTprzdUz+lrtQ2BS5HWVm9MLshXNpMcdise+uFK7n5l6ysHf06nMVGa+YGyP28HwQohBzcHMsgz4v59PRLxI/qd0fjRWdIHkpNrEDKwpOCJT+aO08fh0J5xyfuIhq5EmapK0oRZ62xSh2IWQR1/siTe/Je5bR3euefVOeRoySSyFirJtCYSV6g0gmA5UDlwNTtkvdZQyfw2HmcNFtlXv2kzHd7N+Ll8MbJoZd5+aLxbSiv3aY/wo25xvNVf494hfjFQqFwmHD8WhOfFLQwB+hIotPfBqG+AQVn85fedWF+Nkd6SiymM9FXCU+jWlEHmVYxnbPM+ITNIz+jdTDEKedBfXuX54OI28C1BUvDIeR37S4/66dfxHspW36S+lGc4aFwqbotR+Y0QuzW0b0/OkH/Nin8MBC310nshevsHf06nMdeU4INghBCDPxOcX5MdewNyfXThzm9ohAiDoIQKQbhR9ELvKIYlP84TrnuxsSz7alIAVJn7wQpXpiFGWinPgTjjimY3m8Np+5tYnXhXmMkkshYqybwilEHEQuhXlA6tnzQIapm8SdAS7GlTGNGJ9r7TFszw2TONrJy3rQXT/z0k3qDmMepocZ48cwMWx2M3x2j2F76UU3TdPqpad/z71YLBYPkwhDPXEIIQN3xrj26Vfa+YQ4gvjE+U9d8cmdSylN081+q6hQc9SxVN7dCFCtvh7eeZ8M1whNnKPFJ40c7P6Rpz9tceO3v7TVP582tudBnCGuz6+XRyPC0xoRqnC60WsTqziHXtjdMM61ImKYTOZWLOhd5CNI4EZaq+Zdhb2jV5+r6HNFrPFZIcb4rGI47D6/GNe5vsITYhbCE+m444lr3BB3FJsUeUwnppk5576KOV3LT76UQ4EMMYr7zp/o9c6LMk3t0W0VC8sYJZdCxFg3hVOI3qCxWzrI9dzjtQMhxK7QFN0NH5njQt1iOob1xYCdMJiGye7aMU1Pf4mb7tlPt+xnnLmwMVx2i2F7YaI95qG7bj3TMIbzulgsFg+bChdZEIpjOkIHu27YlaP4xD+0wfjZneLTzjlFo+iRRKgsksDoLxVmJoFmvD7qsKyNuxGgqKeBvjMQmRD0rnnBixbXPOOZbRcUQt/SYeRj+jALUFMZWtpJfAoiFHEtd+H0wvawKefQC7tXRvT8JQt9hAcW9+w6wb7JvKuwd/Tqc47Uf5wPx7OgEGYQXubixGtpfM9bIh12FbHTCWFKIUcS33R8r/XWLNrz9aY03ehmGSiTghSik6KZ5ccNEcqyZJpGr6yRhWWMkkshYqybwilEb9DYhDnuJgMkg1Uv3KaD627DbRpeUr444BJfe3TXr5e+7g783rPxjZPTk3Np9q4j59whecmef7FYLB4VKl5MbqMQ0oSncecTB2PzCRg7ctpnYY976gUOH7/xu14exKebWtwdKkA9JnbAKJLAmPckxozUTpgokB1lWMYevc94v+0e2ckEh3qzXhDyHrjm44tPfN/3NOEJAYpdUIh9HvA+7TQbyPPalQjVYeH0otceNqHo+a2aI22LzLHYYcJCnk+dWOBHAaIXRxb2jl59riJtwTk6QgtCobuAeGZzzwp34vFMec5+vgd53qTjLiLC2OaIdxDtL+bRy8+6wg9SLoWouCsKIkpxP9wL4eI9GFcz+m3K04hRcilEjHVTOIXoDQxHgXOD2apBDr+s+G9KB9Ken5zz37Ss2ufC7xfNb939FYvF4mFSoWISLBCPRlFj+uzu3b88iU+e+YQIxSdh7NKZ/p1tjHeRADWKHlEckQpLUWDqCU/R/zjAsvbIfXsdBSjeG9bLV+79ShOZzrzxze0sKAQoDyP/ws++ZUfwi5/iwSE96sk0zGPijPhkfRdOL3Kb2BbzHGwvc7EYJ6ejmIEAhTjB4t4F+rr5V+FgYH3zzKBikiJSPozccApPCDKINfEspd6OpxjPPHvM6IXZlJa5x5i27dHwXNNW/YwwClFc44ZIFdszcb2Wpr+qHPI0YpRcChFj3RROIXoDw7YYByGvc569MNmMdKCb88tu22bOF3uvPL3yraPo+a3iXuLIvZSzWCwW94tLYsUoZrTdTIhPV7+ziU83XvHNC3Y8dcWnISxCyCSmzOyAUhiBUVyCiiCY+ukfw8GjDsvZFYECuVdJvfFusH5YRD1yx8NttxO7nqjzTz3pa9puqE++6od3DiNvu6CG5zQ+M+vOfNflD2PdFk4vYpvYhM5j5uYzuNOGs6lfDOd1jzFeb76JkOHnXOyEMQzx1uVTOBhY3zwbnw/CIc8NUQmxxc/PJKIS4ou7nvxcjWvc8r9bxzyifRVFzw/2/Na11zl6X1zbprFzD4psfprHfXK/imwc1K7Ilrmb8pxGjJJLIWKsm8IpRG9g2A0zemEiNwmz35ybCDCAer0brht0e/cc3YwvdJc9Nxjj9dxjuUQM40SqWCwWjyQRn9z5NIpP/NsdB2F/8LKntzOfFJ/yLhzGOESQOA5CRRUZRY8pLCLKYEbRKYaLPOqgjPF+W7mTGCepr6985c7GKCC1eEN46vfc6167+P1nP3vx6cc/fvGbf+YZi+u/42VLB75b/8Y3jZxXpvWrWTi9iO1iU/bmb85zMF0k5zCb0HHB+HFMiX4s2l2s++mS4daxcDCgrm0LPjsEFXau+RkdO5n0x8SOMKXwRDjPSYo7nuLzNB/TyH6ZoucHV/lJ8uqVY46WzTiaCm7u9kJQ5b4xo0CX0+Fac105TiNGyaUQMdZN4YRgNx09h90L8+C1jpuEi2FyeOxOKqJ79O+5r2POc5N0emHWxd0k3U05l9ZcubJbsVgsboMIDj3zUtgTnzh76FNPeEo7DBvx47a3vLWdT4Q4srPbaYeMdwogpqeYkjnlqSgzxLf8CigxHQUqeNRBGVfeayD3DB+8cEczl+IM4dkFhdjkZ3iIgBxMjijVnsGMAJXz6dF6jm6F04nYBvZK+r/zRBbUq8iiOZuS+KaV048mC3bEC0QKFukxHcPE68zC3tGrz1XkGfAsvObZIRoiLGF6DhTu7PrhMzSeKwKMu558vjEt7fkZ99xWUfTcs9ul0PLOuWNaB9w39w+pDwQ4hbpVaWWeZoySSyFirJvCCUCvw0sn1E4ym/s4UZzMED4yTwwN68AKdVtl9sJFOoA5mOV8DSN1c5LbC78pTS+aMQ+pu37xPqLfJjTeKm4aLtKXgqReNskzLxbmFg/5Ga4yvY52yxH94gIkmnPuPbdoSvPYxNwkDCZlkubHNSb27O+1/jG8Jtw0/03Ng+Im+c2FmSv7bszcnuZM2Wt/p4HxfufqKJvx+qIxZBQx8IfunnEHTUyDMSku4vAjLfuI/aKZpHv+gSYq8dkXAseZK164+Pwzn9U+/UKEQgS5/Q0/ufP5FwdgN+GJeDs07V76mZapcbwn2eufx16ASvcofWbSZ92e2xCHevYAeD6/Q4DC5PD3fBg58am7mE5krnefVXQrnDzE57sb9tqQ7owtEFGABTM7NNi9gVDA4pnFMqJQJGJRdoOEhcQjPufi+InVuXvOXSRQUQZMRAv/TYx4sVxcr/rRFBb2jl59rqPPgufDs3UHFEILz96Duf2k0s/zaAtZfPLa9LJY2eOqcouee3bbK1e1xUjv0d1QtnHqhDqjnqyPXtxoj+jZM08aRsmlEDHWTeEEoNeJo8gknWBqzwuGOFmN13FCCWMcr7Pd6xxHP4i7k09M8jO8YaThCMN1tEd/GPPw2jLonv1ivvGaMNA8cTev7Ga8zBzGuJjm57W0LrJ7ZPbnZWC6moTJdRTtsRz65XQNY31F07DZD/ccTsZw5Ef6lglT6p6Zw0nLaT7kEcsQzXhtWN1gdiNtaV7rzHhNOj33nG+0R/fotol/pHVuvWR/afxeuGgnXAyjPYbLZdJcFyamK1eFm0ur5xfdonsvbg5zHBnL3rvO9dMzrbOpToKIgT+7Zh555LaJvFPa+2UMc+5LD06TVNOzD+BOP5CKHYhLik8ITxARCvt9P/X68G93Y1kwR7IIsH/hF9OP1A9zk4VDvCd4lBHLuSl95ksM9YrIdMsvvKPtPuMTPD6H5HnEz/CoI+qeNjG1A9MY07TOoXkSR7fCyYLPNXIaS9bQcSOGx42Fr2ITQpFiEwtjhATFA8iieR0NCxEc2OkBFat6opSLb/yJQ5744bbu/goHD+ue5+Mz4hnG52f7sS1wzTP3Wce4pLVpO5a7wV7irEIsx27I/dLeEZyoD/sM1/QJ/AhDWOoj1pPumaLnB08aRsmlEDHWTeEEoNeJ2+QvkQmfxO4kkYHDwSNO0qUDrRNF7FxrmqfpzIWN4U3ba0389ct2r3tuXse8NfM1zOUkfvTXjXAxn57ptXGiW88P03R11/QZYNcths3hddMOc95zZdDshZHmjTn3QumR8HMLu+gX89oLYxpeU07yMD8Y+0lvsUV4qT26cx3rDbv55vqcM+O18U13lUk4yqBpeVYxxtUtXuNverrJeL+YMZxuPeJn+WJeuskc3uvoNmf2wuof3aMpo7v3lNOMjG5eGz5Sv3jP2a+Xvozx5sLldCxHvo9Mwusfw9kHYl+IecR8TKOFC2ICblmA8lMs/OnjkP4YxwLLQdll8+MTums+viM+jZ97IT61f14bxScPHCcP4k3pBqEjpruOMbzXLb3I8X7i9VHGVNZLofU5ks/weDbXfv8Ptt1P1z35ie1MqFt/6FU7u6DuvLu1JdoKbQK2uhrj85xiPUPC2/6IVzh58FlP48eMHTJO5F0VXEv8OAwZsQmBCJHABTFn1UjsCkmKSNKdThA7/goPhFe8yulyjbtChaKUggVuiGLcVxzrZOFwEZ9FbFMITDxTn/MrXvGK9jxpG36Sl+PEtHbDw0SvPKvIfdKWvWf6HmIT/Yb6oa6sJ8+GkvZt43tt2kJ75knDKLkUIsa6KZwA9Dpxm/wlOuFDeFJ8ws7gAJ0gzpF0o5mvo70XVvbcIJPQnvteuJt8e2WdC7tt9vLxWfT8DqqMOe2cr4x+mC40vI52TJgXI5oxTLRnM07wYnjNXp6Gj+Giu+GIaztcFTaavnTnwsa+Fd01L4U5rbk0Nwk3F3eOOfycfZO8tFv368wcv+fudTbhqvGuF77H7L8qfPTL6a9LJ9t3w1xvMqbJtf7WS67PaNr/DAcnMYF3zSg43HPHQ820PxoPf+ySPN35dNcbdv7yn3+7u+5xT73Qdj4N9ig+8e6K8dfRsu6GrZwreJTRK6+M6Pk3ps8aJTudOHuLfyNEgGrC4PBs2AXVzuIanj3Pcm4HVKxf0NrL4K4JC8cbPsfdknYTF7CYCk6IPSx0EXsUiCR2hSaoyIQ4hIDAeTUskN21JPmsDjf8yIOwiBHEc0dVFKjIA1GLPDGl4hRh426QzMLhwjbFs+AaEzvPnOeI8AS55tnHc45y2/SZxutNeJjolWcVvd94zf3Sxukf9AdF2bwbKtYv17z3Y11F6BZ50jBKLoWIsW4KJwC5A08TulFg0pQKUNoZHJx0x0mivH3gmXsfWtxy15cWN33p/kY+rcDdMLpFExoGUzfD5DRi/Dl/yqCf5Yn+hMc0negf/eK9mIf+OT5hDaPbF+48/6hhpfkY5ra77mtxz3zhfNdf0+uYR/Tzno0f7wPTe4lhtOuf0+A6hjEf/Q3TY8+f+iA+7cQFJ+7Y9bPO8HNhanzqigUr18Y3DH76ex3DxLhcm4dlMP94v9FftvKnZ5XDmH+vDJGEjf4xPi9m7eYRn2kuJ37RP96LbSa3CdPRH/biY+oP9Y9pcH3u0YdbWjFe9J/LA7OVbYivv2GiGe/DuPpFf6hfDKcf+RgvhsFumJiH6XPdyyP6ew+E0w2aFu6mQVjjTvEHM+YR3U1Lv+gPe/dKWtgJF9OyHDD7YcYyYIekbx6Y+V5ve+Cex/zGPGIZJP3wS3d8uZmQto87cRgLdCcM8Xn3ICqxiwaRCUGDv/v//Sc9s4lQ2NkRhfj0xc9+enH27psXX7j39p00Qxmxk77lID/8JG7eH/fifcX7iOHj+1TyrsQ86sjljozo+TciQDVzWYBCJOQ5cfYT53EhQF37vBc8dhj5+XNL84smQJnOYK6q28jC8UPvOfYYF6LxWrs7LficDSEA8QeRKYo+2Fn04o+AgIBEnCgwxUVzXBRrRjfDyhgfWh4W3pTH3VKUhUU45WEBTjzTzCwcLngGPs/43Gk7PFOeJc+UZ+zzJ0xuI1zLbF/Hw0SvPKvo/ULqIN4r9UN/oN6iEEx/VISSpmXcOZ5kjJJLIWKsm8IJQa9TZ+FJ4s6gwrWDC2acgMcJPebvfOauxfs/csviNz9982T+7tkHFp++/+HmzzVh9IfYf+/O+9rknnD6ww/f8PlmZ8FPfPiZm7/U3CNxc7Fw/dk7mtt/ueZsM3/j2uubaRnJizRjPlx/9Ny9zZ8yUM5f+dgnpnJi4u99xLiGwc3Fi2EsAyb2eB/Y9TMc+RKfe+GezIeykIdlwJ9r/eHVn7it2fGH3qflMxx5EJ+yWFeWA5N8KUO7jyGM/pC6JE3us6Ux3AfuuBGf9LkmD++Ta/KPJEz0x97zt5yf+Nwti9/7+Jda/pbz5lsfaM8bUmbcoz/U3/uIYbh369q6Mn/vwzJaTusyltHnjX/Og3KTN2WgvD1/BTfSsG3jp+nzoJyWgWdtWWy3ZxeP3Yd+8T5su/E+MKH9z/i2N/2JQ1xIfrrHPIhLOcnHMsR0LCf+1L1p2M9ww89yRD9ImvhD/TPjfegW04hl9D4sH+FiXa3KA3/CxfvwnqN/rCvLYV1STvyNJ7H30ojhcPM+fZ7QPAjrffbuI+aBmcsA9Scd75P0Yx6GyfdKnWLHD1LG3/ni/Yv3fXJnjLB924eJT5jfuvHuFveDHzrX+ru/MCNaKD6xswbxiZ1PCFCffd43Lc69+kebPzsUWOTFcpK/dUX6lhFSBscyynHDzbe2vok75L4hddDEwlHM6rH3bj3K6JVXRvT8YVt0jaJRFKAQptgFxTPhnwk5BwqR8Lbv/YHFg++6qp0TtSQ+KUCNXFWfsHB80XuePTrXxHRhqp3FK4ISC9m82wlxgF1G+DN2xIVua68hneweiRuiuGb2nyPhWXiTL6QMlAXBYp34JAuHB+qf55PbBybPkvcLoorP0WeJaXvBTnifp26b8jDRK8865rrSnWvc2D1In6SfshMQEY/+YB/ZpE9Eimw/7hgll0LEWDeFE4LYkZc4I0JJBpI42WayzuKZyfr7PvixNrGHV/72xxf/6n/+9Ylv+v/+9uLtHzqz+NXfP7f4jWEhzQLkjVdfsxSGOPj/9u0PtDD/7jeub+4//vb3LV7/1qsX/9OvXdcWJSxQ4C984JMtXfwIw3XPHz9JGiyY8GfxTh6EsQyUCXfLQJn1g94HfpSVa+KYBmbMgwUW9n/3S+9p5cTEjjv+hPuPH/idi8oY/bkP3GI5yJcyQsqR6xK7dYnZu0/rKuZB/pSTsLjhBwmLG4zlxM80sONPfEgePGcWnLQJyqw/ZTAP/Aijv2UkHG1Cf8qQ88Ce70N/ysj1u371c80f5jQIE8tAeakr64FyXPn+D7Q69D4oE/6Wk7S8z3gfltEyWFeWQX+IPdZlvA/92/MIeeRnTrl43vjH/kV8/Wm3+GNij/Fzm+n5ky9xYa8PU3cxD/uwzGlEf8uJP/EpB32xl8eqcuJvGuSx7j64nrsPSB7ZH7tlgITneUV/8yBczoOwuJmG7U5/6H1yH5jmYTrm4X327sNnPncf5qF/LgPhKRtlNI/sj9uqPCgD7j6vXh6/8rFPtLZP/4r+tAnGTN4t7GhiZxP/rsYZT+yo+fTjH98EqCg+feLaDy3e8Z5fW7zhne+dSB9GaFIco0y4U5/0Zcg7DJGJ9xn5ve297295Q64Zp/FvItUaAcpPDX2vHmVM7/4OI3r+jVF80hyJyHT+bVe2nWnXPOOZbadae1ave+3O4fDnzy2dAxYZ67PHwvFF73lmunCVurNYRcxxMYvgxM4iFrTsskDgQRxgwcuiNsbdrQgwx1XpzN0fcSiPZYKmk9MrHC58Dvk5aY9uc5x7tpvwsNEr0zpyn/meY11B+i6iE/3WPks/9lwo4xrPtGOaMpfzpGCUXAoRY90UTghix81EaJozHRiYGCI+8eswE3Mm6EzomdyzIGJRwiSfxQULCq5xc8HGYkV/GP1dfOJGXPxZKLQF+LhIh4o7kbjxKzq7TVjos/CP/ooVLnbI0zygiynL6YJKEtbFlP7Gx4TkEcUEFjPkTR1hUl+4+2s/4fHL/ix29OfeYzktA7/qc53vg2vuIy5O9cfETjx3JfTqShHM++jVZb4P3HlWkOdH3iz6KAcL2fzMXdwSJvtD3IiLP8+Leoh5YEekaGUcwsUyYOLPveLPvRI2pmFdmAfl/ZVhMUze//5X//NUTtyJrwBlOVnYck1dxvvMZSBf4lKOeB+kQTjKoP/cfZAGfpTDuprKMV5TBvwpr34s5LkmD9sMJmngL/EnHn7Qth2Jm2Fsd8a3Ls2DcNhxj3kQzzyyv3mYhmXQDxKHtKmLXhrmQV3oD3t5QPMwDfPQ3/swPsQ+VwbTMg/CcZ3D4GYa5qF/zMNyZH/TsAzeR/QnjvEtg/4w5mEZsj/xYhq9MuQ8YphfGfoTfnP3SdvEPT4v08ZkPGTSivjkZ3ecKXTzVz+uiVCKTw+++5cXX7zpgbZjyr4V8yB9SZlwsx/CuNOJ6/dc/b98hTEgC1DsgoIIUXNilO9SRKijDsvao+j5SRYGS7tDwplQntXF4ePtMHLEwq+7vO2CQix89L5bdgQoP+MbaP3FelzFwvFB7/llutCMC1KIcIOwxI4ndjjFz3kQnhgj+ERKgYc4eREbaT49rvK7VFqueH/ZH7NweIjPwudhm9IvM2Iv/pGHjV6ZNiX15PuA+orX+CFCIRKza9E+HEUow1nXmrhhylzOk4JRcilEjHVTOCGIHTdTwSleOwhwHgbCEyafKfBLs78SO0F3ks+COhI3FpUSNwSrOX8WLPg3UeszjwlPTWAaRQ/cEUowFUNcHPhJSSRxlvyHPMwfYs9liP4wllN/Fl6Y5IG/5cB0QcN9YFqG6E88/PQ3PvQ+zJ+8VpUzChV8jsU1ZJFnGOyWg7ysy0hEPPzm/C1nDuPzIg8/zYG2CZ8p9liX+dMYrrM/ebTyD+lr4sZ9EmbOHz+eOeXUXZqHn65htwyW0zJA/WO4GIZr84fkbxmsp1wG/WMY/UzDPCineePndfbXvVdGqL/ltM1I7PrJmAbXOcy6NFb5T30ohOF6Lg2f+Zy/XFfO7Jf9iW/fUUjMecQ0DLtpXXEfXGf/GB9Gf8RDw1gPXOsPCT+Xhs8de89/1X0aRsY8sn9ud7Zt6ojnjal4ZZiYNuMhux0QK9xJw0Hj/Nsdu5/YCaX4xLlC52+/v4lQ9BvuwfvM9YDdcVfS9xkjeLfxOZ7jcf4Uj3BeM35m4aknnBxl5LJGiuy+6l4bmwD1QBOg2AX1hZ99y45w+LinXmjPbbjmeV44e0ML08IP8UzP3WNxF9kcC8cHvecn80Iz2vnsCYGJRSu7Jli0xh1PfqJLnLh4ldkeF8XRPebZ889cd09zNP05OywcHvKzgOvaQqSY8+u5y+MGykzdQD8/jHXlNW1cIhLzXqc/ezg5IpT9OPcH7KQT3c072k8CRsmlEDHWTeGEIHbcTejEEPGJayboTMwVn9jlw4ScBQaTcibykF+HvZ4jafbcZfY3fc2YB2GxZzevM6c0xjDcW/SXOQ3DET/fcyZ+rUxj2Qw7F8cDfHt+pIFf9J8rc2Qsv9dzeUT3Xj3GtCKjf7xfy4eJG2Yus/YYxzRiuMxYF6Yxd1+RMd0pr5G68Rz0M44CLPbJf7RzDbk2vNeZsYxe98rdSyOWtZUn2OdoPEziLKU15BHDGk4zM4aZ3MY0oj36z7lFrvLPfuZlnem/Ko34bDLn4s2lr7mN/HN9ksaSfUW9tvYX4lOeGB5me3NLeUSuqqfM2GZjGTBpZ2cf3uHdF+7dKeuQL5NUTIUzid2xFH/C33/Xne1TLcSKG7/9pU18QsBAgOJv/fkcr+2kufXs4s6zDz3S7ivkASkLaU8cymOZoWHIT3IvkHuAlEkiPvFjC+88foTBzXj5vQmPOnpllqLnx/3GhUaXowjFM2LXEzvWPvdVT5me3c4/FS4LULsRn2Dh+KD3/KRtCdOFLAtOdj2xOGWRGv9Jy/NjXJzmdKT+phv9DosupL3H7A8Lh4fe88i0nW3atgwP5/I4jqDctOG5dmwbt44MC+nbWYSKO6FyGjFd8472k4BRcilEjHVTOCGIHXcdnVxHMmlnIs4kHCEKQcqJeByInUhE04GEsDEPw/f8mIxCFjKac3TBk5njOcF1oItmZHTz2gE0D4qkSXnl7RfufwST/LjG1I9rFjm6Rb/oT5rS/KOJe3azjJrZTTuLK/Ixfa7nOOdvWfW3PDnvaEZapthucnhMy5jJPUQ7Zbjz/tuX3AiDG2WN7jF9OZd/9KfMlrvnhj3m5TWmnHPPfvGatGO+mdmPckTqFk3JbkdIPl7DGCaG6/lne8wjXse6yn698s1dy5wvjM+i5y/x555zujE+9d8rr+NajEu4aLc+ucaMNEy8nuOqOLTtnnumftm0beU6wB79vM73KLMb6fM3+83v/AOLr9z7lSY2UG8wikOKQC3tUbiYxKfxn9T47A7xiUOtm4Bx9TuHcDe1+1dIgqYPSVNSfq8pKybhGWd17xF/wvGO4333lp/7xfbDC7svePcRxvSiCY86LGePIrvH+6ROdbcNTOTTuoHsTrvrDW9uwpMCIrug2LmGeNjbAUXbWUorcgwPC8cHS88wkb5K+9H0Ux3/wh36z2PslIhnKeW0LmqHe6Do+e2WuymPYQuHh/xMJM+G9rbJ85wLI+bcjxso+6r6sH/arw2LiR99WREK5jOhYhoxH/OO9pOAUXIpRIx1UzghiB23xzjBzHQifua2u9uuJybguOnf0vBQ0XECunStfQozTiaxc538mYgyIYUsZryGiA24Yc5dGy6HJ902ySWfFYxh4nUbDMdr/WQs4yparh7x0z+mHfPscdMw0Prs1VvPLV7HeJjal+qFZ9m77nBVuS2vZc7X2Y0yRDft/OOSbrKX36WQvEybOvH5rTPn/GJ60DxyvqtoPM1I/4lqjuvC6M9ZLtphL6+DIGWIeffKsdey7abeySPXUbZn91Xshd1N/DmShvWhXeoe6yuHmWPMA05n/YzjexSHFIBo7+1g6lvPLu18Qrj41BOecpH41D7huu+WFk+RCJI2VOwiv/bsxvdJe78MJE/CrxOgJGH99BwRChO7/qYbedTRK7OM6Pnne+7WwfC8eZ788x3/XMgzhB5Gjjhlm+A5OvZJ3JfSDeITLBwe4nPI7EE/+2K0Qxep7nryczvOecLOZzvueiIeZi+taI/5rnLLzOiFkT30wkXmMD174XAQn0NmFEYiRc8PZqzzP07I9xJpf+z1Vd3p73xO604orhGhYniurXuhX3Q77hgll0LEWDeFE4LYcefopA9T8iszwhP/FIT4FH91xt8JRFuE9ASHnlskeSc3J6IICNviNLlNeV0qTRc6mY6cc++RcmLGNHt57pWkl+tFmv86xnCmt+kCdTf0/mM+c2Z2W3UNe/ldKmP62yRpb7t+o0iQ7fCRR27ruq9iTP80s1c3cp3/QdAyxDJvk+bTRKWRzY/3QOOOQOT7BT/C8GnW+bdduTj3su/cOfPpCU9ZcHg1QhQHWiM+tX9Ru++WFodxSAFKMam9S9oPGuOPGuHdwzuKOOYbuer9B3nn8f5TgGJRjJtCV49HGb3yZvbCWT/5+iIO9c9uNp4pn+E1MREBaniePN+2C4rP8IawvfEO96X0S4A6MojPAcYFY8RcGMnCEp6751zrTyxA/eTOXU/uioCkYTouSud4FLCbchyVMhcuhs9m3TPCX54GzN2vbvbZ3Fd1g5/65O+1nVCvfOUrL/p3PMJNa8sQP/KkYJRcChFj3RROCHodONLJdqZnP8VP7xSfJINEJOlhMqHM7k4w22RzNPN18fjRhd6mnIsX09xv5rwvhVOaM2262vf+Mo43m5jF/WGs3yZEjf961oSoUYCaBAVForM37OyW+a6XN/GJM4OaAPW8b9oRn979y9Nf+NvXfPcgPrk7s/VF05Rj/8Q/k7K2cnSouEQeTIiZGPMveUySEaO+dMdj//zTeAxFkljeTNHz24hD3bujjU/vEKB+/0nPbLvZzl951QX8WpixrUCfFc/F59tLu3A46D0L2fN3Icl17Gtc4+dftLP4RHjykHF3PcW4LkZXib6yUCjsH1b1t+ie+z92iZ1Pav13PHdC8X6N57wZP6YZ7ZvyKGOUXAoRY90UTgh6nTLSyZ4TP4nghPjkwePshlKAykLUtkg5poEnTuxZUES3NOnfhL38LoWmO5WXSXQ017nN+Jt2zu9SaNrbJvdO+izqommec36buBOfa9PZxL7KNKzpb8tcl+9eTUgeMb8e58J5vRdzt9xrvJPCdfUZ6ydeR/uqsNs294PuSFIUckdUG9vgMGa3RSRj98D2qda7f7mJT/xtP8JT++v+UXzywPFp7B9J2jB+Ghx3XhEek7HJcHJJ9AhpZsbFLhNfhCc+HeBf99pEOL6HvB55HBDLmyl6fhuR+g+7oK55xjObsNh2QfEvhu0w8ptam1B8is/D9rSU5sjC4WDds8h+9BHPbcJOX+QaE0H3Ax/4wJL4xOLzzJkzK896ktN8q8NCobB/WNXfonvuv/Zp3enD9HV2QnnuG+MAonQcA2J4rlf1/TkeZYySSyFirJvCCUCvQ2bGRUQkAhT/APTmn3lbM/kMT7/9EqAgZYoLlaXJvmZmdO9c9/LZBlv65pfNOdEsm/l6YC+vS+VSXrEMl3I9mL28tkXT35a5n4x5zeW/qRnpZ0ZzZnGH6+qp6usxbruuCB//fQ6xh8niJPY8dN9F4tMtv/COxUdf/t1ttxM7ZBCfPv+Nz18WnxCuhj4R+4cCFMIT5LNRqACVxSf+EII/q8C+JIiN6W5CfplFfMKcxKk0DsrjgFjezB52G6YJgWdvWNz+hp9sO594tjxjPsNjF1Q7z4swPovOc+6xcDjoPYPoBuPiMC4gcafPcE3/QWxixwNk8YkY5V+yEzbGi+lvwkKhsH/o9Tm4yg/SnxGW7NOxn7PrkZ1QjAec/8bOKHdC5TSifVMeZYySSyFirJvCCUCvQ2a6iIjXMApQ/g31fgpPkDLMTvAxe27RXHHdy+9SaJobl2WdPVznvC6VvTy2dd3L71Jp2lNbmLle5x+vTTfndanM+WRzL9e9fIrFo0zeDfEf7tpkE2EBIX7kI3fsiE8ITNd+/w8urnnBi5r4BBGf2DHjv6Ux4SSd3D+iAJXFJ8UM/CdR7OF7mgiF2yR2wDHdzNgPtbNAZhcUJp/gLYWL4+LA44BY3n1h2wV107TDrZ3pNTxjxMbPvO61O7ugxjO9pmeR6jE+e1g4PPSeg3YXlfTXuLDMpO8oPrHjgUXnqk/uTF/23GShUNh/9PoenPOL/ZoxIPZh7ZjxHzAxGReiYBXDGn9THmWMkkshYqybwglAr0P26CIi8ra77mtnP/EJHlsj+QSPA1j1N15OqzjDOTGnZy8+VieY8XqdOXeNuR/MeawyN7mO5hFn9f8i9J0Qf6Bofk2IuPsx3rrz2R2fYrnzKYpPj50RtLMDS5FH03TZVeWndwgYUXxiopp3ZO1GgILmg+l7kMUzZjwDahKhAo8r8n1cModnz7O86w1vbs+XXVAfvOzpi+u/42XtYHkEqum5dcY9nhf1357bYC8cHnwmQjtkUegCETsLRz+jwQ3y2R39hwWm4hOf38RwMc3IVX6yUCjsP3p9T2bgFvsu11lA0s44wBpTcZrz4BCsHR8cI+J1TGcVjzJGyaUQMdZN4QSg1yF7jBNu6T8AsUXaf8GL/jmN4nbpuRjbMveVc4JJZ2FxEXt+vXjZbbfmfl137eHcmni9ys/rnNYp5qZte1OzuMNN60tz1XUkgsySKDO0ZcUnxAjEJ4SmLD75aRZhCEvc6R2T+gOCBPm3MkRBaew/xHM3FvRzwqXwpKUZGN9tXvPDC4eQ8y94LKIRpLxP7zXe83GF5b8UKhppbzvZhufKYeQ8a0SoM1e8cHHfT72+tQf/dbOF9zmPJumQngIULBwOcv1r79FFIsTuZ3eKTywu23lq42c2cWGpfTcLTFgoFPYfvb4nM3R3HJCxb+OnyKRI7ee5jBO4Gd7xwfQ2HSOOMkbJpRAx1k3hhGDqjJ0Jt3Syncnku3168KX7L/LrpXOU6aJpW+Z+ctMy7MYE2g+U2xBUtpQG6Pptiyv6WOM6/yPC2E52c33UzU3CzJlzbseFc/d1KabXE+mnsa8O11F84nwnzgTiwHEOpuaf75r49LYrW5gmPp3fOeh71Tum5UtfQnSSg7vvJkQnRCjFp6W0ZvqgYQwvEZwQoNgJzI8x2GPYmAY8rsj3sVdab4hyfHLJ55bseENo5LnzzPksr+2C8jM820xqP6RTAtThI9e/9h7jgpHFZU98wn1udwPMafZYKBQOFr1+2KPg2v4d/e3ncRzARHBijGCsyIeSE89xIqY1x+OAUXIpRIx1UzghyB0zLxqc4DlxjOQcKM5+wtSNiSWm8WN6vetsrrqOXIVNwvQQ079UxvS4B7AtM6a5jfQt57ZgeseJsdzUyzauI3vuew27H9fHlfkeLsWe/S6F20zrsHnJdTiJQVmAemA68+me1/zjHfHpSV+z+PTjHz+JT+6GQYzgkzommefuOdfeMXniGtOd8hrz872UeVFcOIpQ3os7d3rkxxfOQmQHFKYCFCRuNI8zWr1cInM9fuXeryweuObj7TM8dr3x7CG7oB5811XtoPI5AYq0TA+zcDThs3dxiElfZOGIYBs/q1F8csFpeOPHnYTQ9A1TKBSODmJfnSN9PIpGjhPScUBy/pPnQXlOHGFimqaT3eRxwSi5FCLGuimcAPQ6p5PuaDLJ4zqaiE4fvuHz7dwLzChCEUbGdABmdMt+ILplf+xwFTYJcxCYu59LtXsN4jXAf7dmTuNSQZq74syug4Mm6NVzz22Ta0zs+0XTx4zXPXPT62JxjrnNaMfstfclu6JQsLOjiQOnEZ+ufd4LFtc9+YmTCDEnPkHeMUxGFSGmNFu6o0gRxArouynyonjRnqjYEckuKv+M423vfX8z43sQxkXzcUasi0thrBvq3HO/bvz2lzbREfHx95/97Pbs22Hkg//0bMIzpR3k5184OFjnPWZ/F5VRXGLhyCLyla98ZROfzpw5My0yJfHoP5gxvR4LhcLRQq+fRtKve33bvo8ZhWjHhXgoOSIUwjXuxt9kvJBHGaPkUogY66ZwArDUGYcFgW4uLpjc5UWFk0c+v+Pf7/j0gIk39japHMLkX6pWMaYvVl3nsD1sEuYgEcuSy7YXu+iF2wu3jV4e2+J+ph+R7SC6bXpdLB4rusgfF/qTWBDCOGb7nohjeLyWTiAntyY+3XTRzieI+KD45L+hkabxNRWEpjRlKPtkjvReIqP/Oua4CFC89/gBBubP0Y1j/OMM7+FSGQUjnk8UIW0HH3n603Y+w3vXVU2AXHqmI2kHiJK2v8LBIj6L+Ezm3BkDXEyygOQTGheQHjhOOMNK40czslAoHE3kvjrHubD0/zweQMaKeCg5n/FyKLnjg+tP43ttulD3o4xRcilEjHVTOAGIHVIymfOXRSd3+tGxnVwz8b7qv3xo8YZ3vreZHEQ+TbbTZFHO5QkLJw+953ypPC7olb1YPPJ0sT+O4Y730nC+F3xHxHdFMx/a+cc50sEkbpsEIj51Pru7+asf1znz6aYpzTapDO8VhYxYpsk/myPjfRgPs9dfe26WxfgIUAhOZ+59aPF7d97XrnvnSjnZhScF3s9eONXH0EbaP92dvaGJTTx7xKfrLnty2xH3mde9trWDdlbU8Pzj/IM0EKAUoQoHi/xMZWzr0c3FI2ITohMLR3YxIEYpTBEW0/AxDReVOf1CoXCyEPs3jOOH154HhQgVz4Oai5PHDdwxjzJGyaUQMdZN4QQgdkjJZG5OgIJOBJhwRwEK+zTpnlkAwIyeW6Fw3JHbfbF4LMiYLQc7Y3oWVaZ3Ap/Ojp/P+t7g2glfnPg1vxnxKZ/55M4n47Z8Q5l8L3VFKDmGzfQ+ZC9Mj94zZYrx3QXFDzC8A7HHtL0HeVrh/fvMJiJCITTe8MnWJtgBhwD1wcue3v4Rkc/zaDOcF8U/7VK/tEeeB+IT8X02hYPD0jNcQxeCLBoVn376p396WjTaRzDjojGmEe3xulAonCzYtyPjmMA14waf8TKO+K94cRcUpmNJTMf4Xh9ljJJLIWKsm8IJQOyUkYpPmtmfyTWT7V/52CcW//5X/3MToD567t5p0t04LgDiZAEWCqcRsQ8Ui8eBCiks+BWhJgHh/PjvcnAUofC7+8LOewAy9kPeIRBRKX5uxV/vIz6x64W/4o9nPrU0Sbvl9Zj4BE2P/MwL4qfZYw6zKmxmfA/GfNn9xOd3fIbOeYj5E7zM0wrv37qZ6gcBiud99ob2/GkHCFDXPe6pFziYnAPK/QzPeIhQbV4RxKfTXLeHAet8FV0EYn7xi19sn8pw5hMLRg4gj+LTpszhC4XCyULs35GOJV4zfiBiswMqjimG01w1xhxljJJLIWKsm8IJQK9DOrGHTvRzGCaBTLwRoBCffvPTNy/vgIIzv0AXCqcNvX5QLB4HuuiXk18ThUYBarAzycM/i1Xt/TGKDFl8+txXPWXx2a+7vIkO02d3UXxSeArvEt9JMotQ2qdyDtQe3bnebd8kP+8T+gkeZyHyQwwiVAlQfXj/1k2sIz7DYxfUg1e/s+16uuYZj7UN7OyY46wo2gT1zy5snkUJUIcH61zmRZ6LP54Vi0I+tWPnE2S3AruhjINJ+Bg/pzfnVigUThZyH5e9MUJh212VjDOEMyxhGIMcj2J8eJQxSi6FiLFuCicAuTNKFw5xARH9mTgy0WbXE+ITphPvFsYFQ1g4rGOhcBJB/9GknZdZ5lE1M3Fn0sZ7gGvNiU0cekyEUvxhFxRsEz7EJ8SFD39oZ4fLFS9sn9shMGDmnU9+VjUJT3LM03dSPIAaN0n+8dp4XAPtu6X1AUlL8kMMwpN/xpEFqDzpPY2I9w9j/TW3of34GR5t4ZoXvKjtgvrUE56yI05eedUFPsNDhNoRosZ2l+YlhYNDrHfpIi8vAPmXKv+1CpNzoHIYr3fLQqFwstDr5zK/T7H7KV4Wt+MYE6+Nh3mUMUouhYixbgonAHbGyDihd4If/VGTmTjy6y+7nhCgPn3/w4thejhNKDmvIS4a5FyesFA4qaAPlVnmcTAvGvvTIv8iDuO8Ezvj3nn/7c2t7Wy59ey080nxqf3V/pOeubjxim9enHvda3fOfLrzpiYqTRNMhafwHrFcilRRhILmD3kXYRJvEjouga0uBpPykZ6cE6CM1+om1OFphPceaf01+/CMm7DEYeRXv3Pxie/7nvZZJgJU+1fEsY0gUMEHrvn4shA1plk4OFjnkS7yJH2lt0PBT+9a3whxY1qbslAonDz0+vocGWP4/I7Pe+OB5I5DvTi6H2WMkkshYqybwglA7pTSib5mcw8TPSaOCFDsfOIzvLgDqh1SHhYNkavyLBROImzbuzE3peHLLPNSTcd5BRzsza3tRrp4t0mkkznGfxaWCEM7n1Xt/MU+5/jEf7vDxD6JTxxMftedLZ0oSsQ8IOVqAhVlCbSsknCko5nTmXs/wW74ka0+BpMwkHcgh4+v2gGVeRox3X8TjB5uP1BZP8wX+Je7tgtqaDO0B3ZBtcPIn/zE6Xww/iWPA8nZDXXmjW9+TIQy7YGFg0Osd9n6Zrjm2ca/S2eRyGLR8SKGj/F6i8Y5rPMvFArHH/Tx3ngBGS/OnDkz7bLkjw7igeR5PInpHGWMkkshYqybwglA7JTSCfzSIiT4uwPKM6CufP8HmsluKP6lpk0sS4AqFCb02ntkRi9MZqGwTdiuHPMvGvsd02dMzn3ys7smQAXxiZ1O7HpSfGInFCJDO9tnFJ8QJdpEMbw7fNdEQan5KT4pjIUfRyIVOZbYKb/3b3hM3aR1wf3hLxGcOIScc6DiIeTGy5Pf04jp/qnzgW2H9GCnnqYfrAYiQLVdUO+6qrUR2gpEjEKE4l8SMa//jpft/DteCVCHhljvMC8Oafd+eocAxaIQe+4P2I3bS1fOYZ1/oVA4/qCPx7Ei2z1njrEmH0ie40UeZYySSyFirJvCCUCvQ0LFJ802ycdvmCQ6uUZw4gDyN7zzvc3kl+BpQmlaTCy9Hinm3AuFk4LcxlcxouefWShsE7FtLQlPmY7po2jANeM+7woEqB3xaefMJ8UnDpNGfIIIC/GzOyeIU3opXeg/600CVMx/Yl+EWuKY7hQn+ZOH5qo6oRyWzV1QErt+hM0T39OI6f6nZ/XYP9oxX0CQYhdUE5SSAKVoCfl8k083+Xe8297y1iZe8twLB4/YpqGLPJ4n15zDwnksLAbjp3etr49xCG8c7fpF9rBJmEKhcPxB/2ZscIyxz2vHhIwvjDl+7qvgneNFHmWMkkshYqybwglAr0MqPCk+LS1GhokjkwUmjghQ/OqrADX3L3i540fMuRcKJwGxfce+MXddLB4LjmP7ZA6cxKfxMyrEJ3arID5x4DjkszvOgtr5V7Md8Yn2D9silPRCmvqRtiKUflPYSP3mGMN1wptfdpe8C3mfGQ4iOLHrifdf3AVsOtxjTOM0Yrr/UP/WHfWFAIWYxPlOtA0Pq0d8uveP/5FGr9vh9d/4/MXtb/jJnfOgxvlFYf/g8xPaM13o8Zmdn95BzoBCkMp9IZJ4caEYw/ag36owhULh+IP+nccF7bphhwjdHkged0EZdh2PEkbJpRAx1k3hBKDXAaHik2ZzD78wM3mMO6D4DI9zoJx0ty32nQk+jJhzLxSOO2LbdkG6ioaLcbye8yuzzP0wJfbI6Mf4PrXzh+7bOfNpIKLA+bdd2cSnjz3tG9qOFYhocO7VPzp9dsf7hDT5dE8hwp0QkveP4pMC1EVlGUUN4krcLyqv9L00836aixd/iKFclgPxiZ1PfIYH+TRdP8K2ya87iAeeRnjvbQ4xkDqhfvjjkihA3fIL71hc+/0/uOBf8NjtpPiUGQUoRM/TWq8Hhen5jfXstYtAzLjIY+cBn9x5Hgt2FoL674Zz2DRcoVA43sh9PYpP0vGHccY/PYj/uJnDz/EoYZRcChFj3RROAHodUOFJ8SlOvCETfCaPCFDxDCgEKBcRcwJUxiq/QuE4w3btYnQTGt64PXvkurBlL/te7VxHxnBLRHy68+5pBwvi043f9fLFr3/9sy588LKntx1QfDKVxSfeFQhPMufDe+fBC3c0+j6Kwg/MopPvJtOJ13thRHQ3XYgAxdlPHEDOjuAsQGWeRizVwfhDFsIjAhTPnrkCn+AhQH305d/d2g5nhvXEJ8iZUJ981Q+3nXYIULSVwvax9NxGRncXgizw4gKQnQf8GxWMB4/3Fo49FgqFQkRvnMh0jEF0chcUn+Qx/hzHsWeUXAoRY90UTgB6HRAqPmn6C64TfSfe/gveb3765mZvk8nBHwHKsJEZq/wKheOO2L5dkGbT601fkMXifpP2mNtpHs95L8C282kUn9qZT9/+0rZDBfHpmsu+tn1KNX12N4pPpKXwhBAR8zPdRx65bYlRiDK8jO8lTRndd0MR3dq7cDBj+ghO/gseP8bccteXVuZ3GjHd/ziPoB6pI5+9AhT/bIdQyQ6oTz3hKV3xCbI76hPf9z07beq+W6bnUtgepmeWGP3sd7y74uKPXU98esfiz91PClTr3nOFQqGQ0RsrIhlXHI8QnBC+X/nKVzYh6rjugholl0LEWDeFE4Be52My50Sfayd3kUwaWTywCwoR6tP373xGMU28Zz5vyFjlVygcZ9iueTEuTbr9HCd8luOnKc2NvpNN/SPnwpZZ5l7NoS3SVh3Hl8bz0O58LzTx6c6bdnY+8ff44cwnBAR2qiAUPHj1O9vh0sQ1fd8X5tEmj5RhIOlmAQq628V4MJeXiSZpLfW5LdF3YRTB+OEF4QkB6m3vff8kQFmmxrFu4WnFVA8DqUeeT3xG7RDy8TM8dtB5cP2cAEUY2hXtz/otbA8+l1WMz49+5+cv8eBxhSnNGD+yUCgUeuiNF5GOK9E8c+ZMG4fYBcWYhCil36pxSB4FjJJLIWKsm8IJQK/jQcUnzebO4mMwmdwzuVaAYvcTAhTb6XFXhW6LljE9mbHKr1A4zpjaNosjBaOB7XOltnAfzJFTmBkSvudeLG6dYzttk7TgHtuqAlFb/PuvZS/+1nbWE+ITwgEiwW3f+wOT+MROldaOSX/oF0vvCfOgXxBuhuRp+ZbKZrrJfbqHMU/eZUt9M3B6z81Q/yg+QQQod0Bh9gSoOOE9rfD+Wz36rMbnstMGHtsFpZh53WVP7opQ/CPeuZd9544Axa66MZ3C9uDzWsXYrhGYrr/++iY8ufuJg8cNt04ULhQKhR5644R2xxTnE4xDmAhOiuGcBbXJP+JFHgWMkkshYqybwglAr+MxQWSSrfiUJ+YKUHx6gPjEQeSY/gNQGwg64hPMWOVXKBxntHY9LIzaopqFO4vwYbHEor2ZmbrP+ReL+82pDY7i6JJbMAfSnuOZT4pP7lBBIODfzDinp+1+ov23uEO69ImxX7Q0Aw2bab5TGo3RLbqP6XodBCrfab7n6Kf5HdejcbhWYPI96BlQmAhS+uU04GnEUh2MYlF7JucfaHXaFgTDdTuMfHheiFD+i+JHnv60i0QozofCj7bX2gci4ymt2/3C0jMb6za7SRZ1LPgQnfLup154WCgUCpugN25EN8cZ3iOKTBDRSUGcf+X0nzgJt4kIBQ8To+RSiBjrpnAC0OtwUPFJ00kjwpICFP/847/gcQ4UdnZFlQBVKIxtmwXWsEjnrBJ2iXzhZ99SLJ4IsvhHYGri07OfPYlP7n5CgOLsJ8JA4/GJlYzpZZJ+z31T3vaWt7Y8Wt/78Id2BKlRiFJMUoBa4vDumvpvYnsXDqYCE+87BCf/BQ+zBKiLsVQHzg3GnWkuBlgYIED5j3g8s3Ove207QwwR6iIBanDnOTO+Oj8pbA9Lz2wNeXbsfuLQcXc/efBvb6FXKBQKm6I3dmiPY4zvEUUmTEVxzqXzLCjojqlNeRgYJZdCxFg3hROAXkdzYq745KQ7MgtQmP4LXg4bmbHKr1A4zqBN82s+n4mwEOdw5muf94L2D0+YxeKx5uWXN/Y+k8LOZ1IIB4RBLDAeB0xH9tJcclvDi9IY3SC7ZDiD6jOve+2OCHXnznlBniXFO25OKIL2Y+h7kImtAhNUhGInFMxnW2WeRkz3j/g0ClAuHGJ9sijwByzGTsRDxk7az3VPfuLUzjBpJzzX2gG1P5ie2Rry/NhZ4F+f591PLgZjnEKhUNgUcezoUTGJcUaBSTtjkcI4u6Ci/254GBgll0LEWDeFE4BeR4OKT5rNfZzkQSaLClA//vb3NdMdUIaZfukMzFjlVygcZ7DQ5Zd8f8VnASVZnGfyq36xeBQZ22lsv1l4krjLXlq9fhDDsJuqhX3CU5bCwxguxpf6Xfe4p17gn/gQfBGj2A3VPuU7f+4iAWqVWBTtvguNA3nnITzx/vMdeFGa4w4deBox1cMoQLFgoO7PPnxPo/+Gp/gk206od13VzhJDcOK50qZoHwpQbQdUCVBbx/TMOoz+LOZY5HHOigf+IkgpOvUWe4VCobAp8vjRI+NNFKK8Zixi91M8jJw/S3B82pSHgVFyKUSMdVM4Aeh1NCbZUXxy0g3p1JDJIr/6xk/wmIQvTSJDmjJjlV+hcJzBoogF1PXf8bJpl0hckM8tnjWLxf3gqva2qu3ZfmVPbEIYgKTjmVC9tCItSyOC08iWzmAiJEkFqV46kbEs11z2tU2EOvPGNzexoidAxfdQZER0j8IV70HOfnrfBz92oGdArUq755e5aTi4Luw6/4mjsMQcAdHp7OLRidhjGMguKJ4ZIhQ7SPnUk+dLO+CZZgEKrivLNvxBzy/TcMcR+V4i9Udcyof9xn++M3xe7BUKhcJuEMePOTLOONYwBkHEpg984ANtfHJ3JmNWTxhfxcPAKLkUIsa6KZwA9DoaVHiK1M/JNYJTPITcibciVUxPZqzy2w1iOqvSyuG2yZz+HGKYOfawSZgeevF6biK7R/s6ZvTCyDl/MWeP7LmLOfsctw13QLFwYtHsIv3Wv7zzaRDEDyJSeV0sHgi/6+V99w7ZwQc52ynvdMLNNt3CD+nm9owfZ0JFt8wWhzLlcsX01pTZfgUplyIWO6Fuf8NPtv4Yz4FCSKLvrxKLot33oO9AyJ9v+C94iFBdAYodUOMuqG1hSjtwzn2OljGXd6ns2ybi0mBGAcodUFO+SyLUTU1kaofdD8/4N//MM9rzRID65Kt+uB1YHgWorZPnNpa5S/1WhRl53DB3D5gs9Fjcca4KOwxY4Ln7ycVfFJ7igq+wA+tjjoWTjfysoz3ztKNXJ5mOMdGEjFHu0Izn08W463gYGCWXQsRYN4UTgtzRougk9XOSCPnUgMk3nx387tkHlj492C8BKoaPcbjuDSgiusWJENztQNRjTIPrdWnqPxcuoucfuQ6EIZ983z0avsd19wQzemE25Vx+68oh5uxz3DbcAcWiSQGK3Rh8kse5UJxJA1lAZerXYwyzm+vi6SPPv8e2q6TjDrvxh/bKQeKIUFFM9bDx81dedSHHNb6HgK+iYXP8OcZ42a3lN5SXfsfOQ3bM0O8UoBSfemNAZuvHyY3xJ74Dz9x2dxOg2AmMectdX5r8c1y4LfTSlrM7u4JIYhkRf6IAFONu28xumYaZiLA0PC9FKHaxIUYiPkUB6pE7du7LNC7VnNjEp6EM1Fuqu2mOo18KY7hoP06I5e69c5lPuLuAnQWQg8hd9Dnf6MUtrJ+PwMLJBs84949oj9enGdbBJrTOGH+4xkRwYpx65Stf2c6DQiTP8Xo8bIySSyFirJvCCUGv42UBygk7EyrIxLtNvsezLzDPfenByZ/JWZ58wYxVfj0QLg/Yuvco4oTI65zOppyLF9OM+UX/Xr69sBHRvcd16MWZ427DZ2b0wkjqYdM6mmMvDzFnn+O20Ra6w6JJAYqFML/e+89NfF7C4sZ7pc+0axYxLHx6bIuhkc0+huUedJu7dnGEvcyTZS6RhfB4zXMPfPS+WxYPXrij8e4L9zbz/i/f/Ah0Z5Bp0D5xY/GPoMNh3py7g+iE+MQndopPtGfi0Hdpx21xPqTT0qCdT+mOZcKk7Fxn86J2muwpzjRWDP6Wl/JQXg5Bp98hRE0CFGFH+l4T0U9EN8KTX3wP8v678v0faDug3vbe9087oAi/yTtwr1hK1zoaGAUkd3hNHMP5fpYKUIbXNJ14vVtznd9aDs95aocf/lA79+mjL//uJkJd+/0/2ATH1saGsJvkuc6cSPsa825tr1N3za3HMY0p3Gg/TrDMMr+T6euer8KiDjPufoJzceFph/WQ6yqycLLBM/bZ00dsCzD3mdOMWA/r6Dw69imu2QXFDih2asY/SZjjUcAouRQixropnEDQ8aLoJHF3YguZsDLR5q+n+ewAM/7yywDQFiGhQ8OMVX49xPAO0Jh5sHYQ5xrEAclrmOMK7eto3JifzPaYT7Rbjug3x03DZQrtc2XD1C/mFf11W8UcDntMA/baB+7k3yvDbuppt9wPtAVx2AEVBajpU6BQhrhQgfY7zUtlK1OZJ8bcFcfFNLT/MZ7TtjgP6f677nxMLGqL7VE8Gtrp0j+RXfbkdhA4Z/E08eltVzaxh/C0X3fBTvkO7vEdIlfdg35zZuZSfqNgsKkAJVchhuM+qDvy9H7ZAcU7EPEJ07MQl8oVuC300pY8W0WkiaMw8pV7v3KRAAUJb9tobSXG3SJb+tmdNhfslqO1m/GZNo7tkZ1P7d8Pv/8HFw+++5cfa7chjUuhbZa+AWN9UFcKdlOcFeKT1P24gLLGZ5XnDOx+YiHHzicEKHYY4Ob7O4eHMb3TilgfMPeHWH+SMGWePDPSZ4+fIopt4rTDetiEvfrjGnGcscpPhdkVFeNlHgWMkkshYqybwgmEnc8JWGScTDEBY6LNhNuzL8584fy0Cyp25MiMVX5ziHF6gzhkIuRkKIbPg1KOt4rGjWkY17TytXbDwjn7KhImD6rZf5U9Er9YPqjdMkV/08ItliHmEd1iGnNxuTZuL16Mm/2x53YgDRfj7obbBOmxEFaAgksC1PirPZzrM/S7aBaLu6aL4rZA3hGXGllUu7gfF/aQT5qw03axn3v1j7YzntjxxHlKiE+0acQndqSwqwrxwkV5bMv0Q3iRGLJf5H52sQMKroPhYh/kfrxXf4jhHETM7hlQgdtCL21o2S7yG9sBYy+0jFNY2sPQLpowrjm2kX1jbI9y9CN/xJ/WPodnSjtzFxSHkiM+3fpDr9oRoHiuMd0tkLwfeeS2RkWoOA+ivS+1a8ru9UDDGB7qdxxAOeO71HevzIePs8PA8DGeZr4+rfD+I6kv6pM65K/iEfMg18WTT4Tcm268eepjsZ/A045YF5sy1yHrQc5/cryivqN/5lHAKLkUIsa6KZxA0PGYZGXaKeNkyrMvfvzt79sRoAZ79DdOZMYqvx5i+DjJceCOfpBBBzvhogASw2W3yJy+6UrdYhqKX9rxVwzTL8b1OtL0MKFlz2GjH8SNMDmsfjlM9se9l0e06x/DRbdMw8yR9Aln3Vg/vXx76RnOdGSOL+fc4TbBgoSF0ewOqCBAwV6fyf1vryycLPSeMe2EBfFFYo87Mzpsu5yGRb1CE7zrDW+exCj+/v6zz/umxWe/7vJ2oDcmB4EjACDy+Ekfn/P1xn6uc3nWIYZdx4v6zEMIUDv/nLbpJ3jrkMNjxnv1U3TOQ2yfoneEuCZqjNfbxJR+4kVtAPLMBzMLUM2PehuFSNtEM3HbL7Z8LmYbNyf/x4QneOHsDe3ZIkIhgHIuGQJUa4s5/UskwhN5a7ZnOIpQ9jO5VM8jrd+leg486qCMvkdpL7HsuH3mM5+Z3VEQ39Mxfnz3nlZ4/5HUF4ITO8moT+knQ8WTyfh86UNRhIp96LTDetgt43hDfSL00ccgYm8Mm3kUMEouhYixbgonEHY+JlmZcTLlDqj47z/sgIphYmeWGav8ejBsb1KkO2SwkbhjImw4IOlnWN0zcTefGD7Gidf6Rz/tXkeBRWInvMRtLt8YRn/doxnDZr/oHhnLgqkghB3gBs07M5YzMpdVrounf4wb3TLn4pp/NvP1NtEWdRsKUL3+Qp/rXe+FhZOFpec7LNhtHy6IaU/TwngUHqLwxKHNkDbI4v38lVdd4JOmz3/j89undXxyh/iEnZ1P1z3uqRf45zF3Pik+uTMk9iHoO6C3OF+HHH4dl/rOKKRsKkDBdcjhuVfvD7LjyT/jwPQzxKVyBW4TOe2Y59KYEdvAYBquPbexzprgw7iUiOizTftuSNxMni1sO6He/ctNKG3tcQyf4+/JPopdCl+Pcaijoa6yEEVd9sbopTZg/xvtRx2Usfe+BcwJ2LnBAhoRKp6pkseCbJenFd6/9YJJ3XGGloIEOzSws2MDc+4aM16XebTMuWtMyHPmeXM4NnZEXeevtovT3l+AdbApjWM9co2JwGedM37F+s08Chgll0LEWDeFEwg6HhOpTDulE2uYP8FjAq6fYY0nM1b59WDY3sCBm2SwcQCPW5vhmTNnJhHIeA5SmXHwQhAyzVUkPOmTJyR/6K8bOazpmmd0i3lqj+FMxzC6aeZ0o1tMVz/LynWk8WM+czSMjOlrx6SOrBe+z+a5QK6hZbE8hvfZwV6+mOape6zP6GYYuU00YWBYGG3yCR7s9Zfc//bKwsnC0vMdP/2hnbgghkvtaVj4cvaPZhSg3On0sad9Q9vlxCHjEjvEj38fmz67Gxbj09k4MCys6Ve+BzZ5B2Tk8Kt4Ufr7IEAJwvbehbwH41mI+RO8OBbBbSKmG+tCUaRxbB/QMXOpbNTZUC+tHbzlre2Q74Mi/wjac4f8413PHSKQQj7Bg6vS2QYpi7zlF97R6uqLn/106wP2N+u4S8Wn0E+OOijj3HuS9zQLaRfOvK9t5733crTD04xYD9YVdUQ9IkBh8m+C1DGChPOiues5GqbMgzU3JeERbulHPnfcYv+Jfec0wzrYC2Mdsn6gvhGgMBm3YtjIo4BRcilEjHVTOIGw87nwjXRSDdkBxUSbcy84fJWJt2dAET9OhiMzVvnNgbAMKg4smgzcEDuTJgYbBCcGdlRvtzfzix3bnRl88mQpphfFCs04GSNuFEMk6bKdljwZ5CgD+XGtmCJNO9O8YlliOTRjWuv8oHbKTTl54VkPCEGWNdaNaRrXtOZIeMub4+rHtS9f6gn6nKw3/CHloZzUHRMz6ha7dW++Mf1cFv2jadkitwnSY2G31x1QkH7Xcy8WG9ui9rGDvlkI8zmcApQLY/pA6wdDeAUo2h9CDcLMjVd8c2uj9/7xP7JE/u2Oz+7OvPhb26d5ik8cWt7apuITIse4wKZf+Z54rIwjY9m3xKW+s0sBinvYFDGe9Qt5DyI+8R5kR7ACFOGame57mzDNpfxGt4nmP5iOfYRrbWOsL54rQgsiIzvh2j/MXX55+9fD/eQ1z3hmEzcv8nveC3bKEMwchmeLSMqZZNlvW7QuMCV1xCHoiFD0A0SoOE7b5zQbbf+hLRx1WM78nqQN8V5mHsXCmfdxfqf23q3ytKNXJ5D5D/NT5jtxnkhd9kzizPmVeTxM5rDMuelHzHsRpnDPbQOeZvTqQ0b0/KV1Tv9iLcj4xXoC9174o4BRcilEjHVTOIGg47mYibRTMnFFfIL+A9DvfOaupQPIYRQBIjNW+fUQwzOYOFjnQduBhoH9277t2xaveMUrGl/2spctvuVbvmX65S6+6HN8TAcn7ycOVlzzAtHNdBBPSJ/8FFM8KyEKJ8QzTkw3EvdYlzmc8WF0z/5cm5/iExNHysYLULFOIYhr7800LLdpW5ZoxnriOsaXuJE/eVFHV1xxRXsuXPOsXvKSl0wTW8rHy4JnycvCusXPZ0d+MX3sUnssY/TP3CZYlG8qQMG8eLTfxf6XGe833tvcdfEEcVrULu+AQoCSjsdT2woLYdqgu59YzCM2ZQEK8hkeu02a+ISA89DOJ3ctTfMP1K+X51T2LXHKQyKo3LndQ8gFYfO7ECI4+Sl6FKBi2WIf3CZiOWJ+E8e2EeuecLQTxo6dT+9uart6Pvry727CD4IQh81Tb/tJ2hsmO+y4drcdefPJJ/+2eM1lX9ueXTMHO4zxTUNzm6Qsfn7KdSvTQOoHIYrdYvYH6tW2Qd3GZ9J9LgOPAyhnfpfw3uX9Gxdx8T2U37mZpx29OoEKUM69qEfrMNZv8eSQ5xoFKHdA8dzzGuo0I9ZDZEYvDLQfYTJeUdfUOXU/17eOAkbJpRAx1k3hBMLOx2QqM06oFKGYbPMJQjt8NQhQMHZmmbHKr4cYXsaJDteKKbzMETTc9cQLHgFDd0QP7ISP6e2GDl7kC3lpkD5iCgMcwgllkYomhvU6p7sJiUf8VWlYPq8lLzp/wbQO2AFFeaGfC5qHZkwbmm9+WcpeGbkm//gcfD68GCATXD5fdJeU14TzueVdWrl82c38e9wPsPjb9BO8uf5Cv4vmEodFJfcEFftw956zqX+ZJ8CMok7jjvATxSfIGO14TBuBO5/i7YijfLp05ooXdnc/QRb2FwlQQ1zSI+3W7xE5RlKGuAAnLz/9k937CeZuSB5LbrvcAQU3RY7nPXLuE8JT3gHVKxvmNhHL0c2TOg92nw/kWgGKMQlRhXO+EF0QXKg3x61tEhEJM4o9Cl6YTYBCbHrcUy8gPPVoGqYT7VvhKIIpikUqQtGeaGftuY7PFlq/s89k5HEA5aSdxPc7cwPnUf4QFPsu17xzolvkaUevTqgv5j/+2OY8UT/MufosHk/aT1gXZAEK5ud9mhHrYVV99MLB2IdYNzB+UeeMX0d5nBoll0LEWDeFEwg6XhSdpJ3SCRW7nyDnPv3Gtdc38zAEKAcWB23Ir0cIFYhA7Jbhhc7ADtniigKuSMSgr5ChAMNEACqCmCb+iCC8MAiHv2IJ6TJpwB2BhF097tRRfCIu6ZgWbjEvw5EWZSJvyuoEj3JwD7gRhnRIExKWNCBhiENaDLSkj4kf+TqBpJzsBlMoI89YBvLrpUPY6E9+1gt5GM6yE056H8TnGVAG8ic++VM2TOJxf6RBmtwf6TNBIw5upEE44vjceB7ei3lyTXj8rGvyIy5tZ+4FlLlbEIcF7152QFkm+h7XkvsxDFR40ox1HBnDlHkyzCjq8IxZ9GYBKopQxPvSHV9unw3R/hCUaJt8xoTQNCtADf6EY8fHA9d8vLXbltY4zlseGMtw2wP3NL8oQFFO2m02TSOmpb/XPV70ntmlAEX/2hSGx/Teof8G61mIUYDifmJ+cJvIZcl5tXoPJmEUSLgXBSjONkKAUnRBdOTfDj1j6TDJ5278OyNmz38/ye5AeetfflETpqgfhDo+WaSdtXG8CbBjXY+0nrvPZeBhYFX+0W+O9EXeybxLeX9zva6PZp529OqEOmRuQp0yf3HehB916ziym3ouHn3yjJnXKkA5r/bZy9OOWBeb1EkOG/sN6wrWAPQ11inYN+lXh4FRcilEjHVTOIGwszE5zYwTXRY1HkLuGVC33PWlabK16aRrlV8PMTyDhgMHgwhk4ObljbjkThkGdf0Mx0sePwYiwiNwYPfTOXcwIXggViCyEIdBC3dN8iCOggsvEcSn5z73uc1PwQN3RDHyojyEJw1FMmi6hOelpKBC/padeKRDGIQVrikjJA3jQ9IzbfMhPmkTjzI+5znPvmA5yQcTEkbhhjRNw3ohDMIP9cZ1rBPDYqfOrHvI88IkbfwtF3VHvUD8iENdEd9fBb32uSp8kX8so/eJP8Q/lp9r0uEeY7li2+pxt2AxvNsdUJguwu13tnPLCo0HtUd/aBzvjWtM7E5odSvzGJqjqAN5prQdhB8WvdihC2BIHPoVAhRCEoIM59zMiU8Q8QYRB3GCBTef7NF2aT+mKxWe4O0X7n/EPFtbG8uJ3fZnGW2LEDth2v2N9uzvNSSPaG8C1D5+gie95/YZ+vgeRITix5goQMXy0Zcxt4lYlpjXROo9uRHOsSUKUHx+p8DCmMU/zFGPp5n0E4Ra2j2CHO2J3VYIUOweJMxjOwDtj4/9K6Vmj4eBVflHP2l/sx/SL30PM4fgfR37ZE4nIttPK3L9YFKHzmOYlzBOW6+OmbGe43Xx6HHuWeXnxrNlDsu8WQGq92wLe0euS/oWfYy+Rp9jjRDnGzm8PAyMkkshYqybwgkEHc3JaaSd0ImuAhST7h9/+/vaxJtfgvWHxonMWOU3B8IyULgw4doBxMHFc58QNnCDvsgxsSNwIHZgMhApUDAwKehwHpFiBaKGn4zxwsAdEzdMJmYINvi7Awq3KIDwgiEtwrP7iLx48WgnP+wKP6ZrmZn0kRYmAhDX5EVc0icv8zN97JgITqTHfUDyetGLXtTCRtEKck2+XHu/5KmdvPA3DGnj5sQUN/OnjuPAzr1QD4TxOVkmSN48N8Ut/KkT8iJt4hCOesSf8lgn5E94iB/hLK9lI6xp8uwpWyzfHHcLFiIseHe7A0qTfmfZoG0gtudozjGHw8zXxePD3nNj9yk7jr5w7+2Lc/ecm8LBO++/vZm09XZ4+LBo5swf2iXCTE94gk24GRbbHMLMwcuIFCzIz99+fyO7qciX/MybvLiW+FMWwlqeSMvpfWQ/+6XtX9pnYn9p3OUOKLgpCOu70HccVITiUzzFJ+47lss+vJv8NoFl0URwNM+JQYQybAs31tUkQF1++fSZGWILz3qKG4WsS7ke2OphyLs9x8Fs/pvS9ML10meeyf8xv7BDSXPddaifC2dvaO2JOqJP8BmgO6B6AhRxe3Mnrw8L5t8rQ/ST9jX7H2MI71TnFdhj+MJ65PrCpH6dpzHPYfyL4Rw7NIsng/SpLEDl9xssbI5enWG371C/rB1YC0Cu4zh2lOp/lFwKEWPdFE4g7HBOniKZQEV69gUCFL8ARwEKcQgzdmKYscpvDoSNL+Q4YDCQIGAgUiA0qG4bzmvD86LnhR9FCV4I7ojCDT/cIaINdvwQSQhrGPJFbOEa0QPBg/xNBxKHiQZhIIMfYYiLnfQZFInDSwlSPspNWZmgEI4wxCPNKD7hpjBDebkmT64RiYibxSXSJIxlwJ38ySPem2kTnjxjOUkbd+qDtHDnXvAjXqx3rnlOhHe3mPWjmER80uI+cCMvyoCJHX/rEbvPjfIRxrx5BohspE0c75Pw1iu0PazibkEcFiib7ICC9p3oRp1BFvnWq/fuM+5R/+LJJc/5LT/3ixfRNvALQ9vPJkRsQFDiHBvO+8nCEzuiIAtt2iu7n679/h9cvPH/+copLUgZyC+WJ/phzpXNOKtI/0Rkt3/aF2L/uOgdM4oGmwpQvNc2RYxnX4V+jo74BLUvlQ2hZbzeJkyTvLrikwziiuG4dwWWuBtuSYAa48S8LuXauQTP0WvZ6ijUU3Pj+vwDO20gm2NY0pprI/ppGk7GssXrxiF9/uHu0ftuaQIUnwDSHxSg2AGFeyvHJD6N9Ty4UX7qGsb2YvqHgeneOvlHP2ldYjL/4F3O+5X3Ku/RKJQUNoP1ZZ1hUr+MecyJGPesV+sfxp2gxZNBxiPmrcxVeS/WDqhLw1y9RTfqnLm0/Y35NOuRXr3Lw8IouRQixropnEDQ2eKkUNoR40TKHVCefREFKMMaT2as8ushhveF7KSSAYSBBBECUQLRgQkTL3PC4I+JHaHIc4UYgBRAeBkQBvpiwJ2BiokXwpZCi+EQQaATB+MwwFEe0tctpkl6lIM0KIviCqZxoEIJaZM3eTEBZBAlHcjLS6EHk8kh+StWkI4CFG4KSbEc5GOe5k94/F0IUgb8EHiIT76Ew4476XDPlI17wY97Iy70GShAUZ+mxT1B8qMs3AdpWsYoQHlNfEQs8sFOfK7dgUb5MEkDd9MnXcoYyxXbVo+7BQulTXdA9foKZZLWxT959Q+1++FepPZszl2XeTLMH/4n/2yW//xVr1z86A/9g0cRjbLZ/u3s8sunw6b9BE/hibaKcMMnWQhVxJH//NWvamnDf/Ejb9q5xi2RdjpXRvw05+6P/sqYwDgwNznsvmeGhf9+foLnu5A8JaITZyDyGfpvfvrmiz7BY3zZS36bwDQVlboi1PmHp7CUB7OFo67On2siijugeP7UVxagLpXWm/OJBy/c0cQd7VxDhRvYhB05jKWtDQTxKY6Pto94LXXbdJyHLf/B7AlQ9A9EKHdAGTbGlcddgIptl3c/8wbfob4/C7tDrF/ttEsXxNQxdR3DZRZOBug/WYCKfa6e9+4wV29cO/Zjsp5hPk29YzLHiPHmeNAYJZdCxFg3hRMIO1qcRMk4iYIIUHx6xxlQ7RO8LzwWJnbayIxVfj3E8JkM3Ly4GUwQKSALGEQR3PGH+OOuYMGLnwUPC5/4CwQTLCYELoYIr0CEqEI40nPR5C+C2hnYsOOOHfKywSQdXjgurhAYYvrENQ7xvbdYHtKy3IaBTGBIg3IQDhIm7gSKQhjlWCVAKaSZPuEoJ/7mg50yEI5yUo+kjZ8CFPfpORLk572QB3WNmyQN0iJv68pnZl48O8QrxCbTkYQhfeIQlnIQRmK3vJYtt6fM3YJF0qYCFIz9hvJEUofcL/fF/XFv1EWx+OafufIrb/6Ztw0mvPIrurvjKZKdTO5+8nMr+dmvu7wdPn3mxd/aBAgW3CyyjRvzhG96/ZunfHqmfNObf3bJvo72Vdo54xDjQeyjmrnPNNLndrEDCm6KGMf3HERw4v135fs/cNEh5JQ1jy/bRCxTV3zqkHLxPreuEFfiDigFKOqwiT+dNPbCOJeI4pN23chTk09GYSuHIlS4jvULied1JPlrEibXXWTLO1xbR1mAcgeU6UYST0YBKoY5DKzKP/rJeG+8K3ln8u5xThDDFjZDrjNM6lkBijkL858YLrJwcsDYlQWo3nhS2Axz9ZbdGbtc7/TGMp9BjnvQGCWXQsRYN4UTCDpZnDxJO6ATKegvv0y+f/fsA0v/gmf4zIxVfnMwPIMEA3i2Y7KA8QwixB0GGF7qkAVNXMwzAGESx1+ffDEQH3dM47BIirtnjMuAht0FlAIU6WOHvmxMR7HFHUns6MFd0YS0uSZd7oEwiivcF/4xDORFRhjiUwbSxkSsMWwU1yyHAzKkzOaPP78YWC/Et5zkRTjvnzCQF6n1Szl9RpA08Cee5ST/+BwxuV/rTgFK0Yn74Ro/8sCOP/ULiUc5EW50ox5ws57JFzfKY96ruFuwSGIRt5tP8LymTNQDpP9Rfu+XesfOM6HeiqeXN9y8w7N339xMdqHqR/v44mc/PZHDlGl7tEc/v4Ncf/Z539SEJ/5t7PyVV10gLG03xm8c+iRpazev6Ga+mHtpo3Ecol/jRn+IdIy4iA/tToCib20Kw2P6noPuBOaHGMwoQCG457JuEzHdTUiZJvtYV3EHFHWlALXNHVDQumsmItJAruM4l8MgPvE+YSxtQtRgTmmOn7tZv7Ft+B7SHjnF35BRgKI9xR1QuPusY91S/iiyNXc/zxt5GFiVf/STsU7py7yHeX/yHm3PZQxnvRbWwzqzvqw/5izUrfOoGC4yYpVf4XCQn8kq0reYy/GuU4DCLYcrbIZcb3Okf7nmot6Z18R3QxzPdNN+kBgll0LEWDeFEwg7mhOnyDjRgpxzwTlQiFBx91Nk7LwwY5XfHGIcGAcOB28GFcQNhAauGeQZ3DF50eMHuWYg4gWAnQEJ0QLRBD/iI3BwzcIfO0JA3AGlCMKkDDtp4UYcBjYWUdgh8UhHO36WCTu7efBXKMHN8lNO7IonlBG7Agx5M7BSPs9oIj/EJq49a4m0Sc/0MQmDO2l5L5ZTO/XnoE05KRfl9n6ZOFkG0rOcvlShdUbZY50zufVZGo6Fp8/ROokCFKRs+FtH3gdp4+Y9cY0f+RKPNKyLVZO9yN2CONvaAeXz4l4of29RLgmvSVp1fTKv/bzHf77DvX2W7Fk0I2lnfJaGqHTfT72+nemE6MQ/eXHAeBSeEB0Qb2ifbffJl29+BJPFtIJFW5AP15QFkjemYRAJyPORO8h/53BmyqvpfUQzcq6tc3+QOH5+fdE7hjLu4yd4Mr7jEJz8FB3Tf4PtlQ1zmzBt3s/RhBfln93G55kFKP4Jbz92QC1xbCc8S4m77YEx2WvCYdIOMTlUPB9qj513bYwnY7raN2brQ0MbDgJUa0/jDiiEVto/f8riM49zpsf6xNgfQ9qHgVX5R79I6473J/0S+q7PYQvrkesLkzpmLkXdMseiHcdwkWKVX+Fw0Hsmq0gf4n3nfJW5Mm0hhytshlxvPYI4nlHvrD9ws+6dX4Ac9yAxSi6FiLFuCicQdLI4gZJ2QCdZEAEK4YmzLxCh4g4oOrCdODJjld8cYhzoRMgBxMFFAUWRBfFCsQRiZ8B3pw0LHsPCKG4w4SKMdoQd8mGiQJrQX66My+KJtBVBIAII4QhDXrhZLgQbhCPSZxISBSDLRP4KMpQBP+IqpFAmy4kf4SBhEI0sPy89wpk+ZVW4IR/KGMuJe64//I2j3TJQNtyIzz3rLnEjPcvoLxD68zxZePpcfAaYpEt5qSPvwXJDro1DOPyx40ee3hMm9WCevRd/5G7RFuJ7EKA06XeUCSr8cR/UOXVDnUrvId4L/c86Jb1yP1nuEPHJa//xi/CSsLQzxAT+Sp7znxCgEJ4wPWD8tre8te14+eJNDzThiHSIa/ty94kCFGRxzb/eUQbIdSsjC/ZE3TEzczt2YkhbjwIU5D6tA0z7ysRRVNkvAcp3oe85GM9CjDugDBfjwW3B9HL6ipG5DJoTx7qiTpoA9bwX7AhQw1i1HzugJgYxxnbGc6V8/NkCYzJjPSZtwjiEQ2iifbzjPb+2RNqJ7wTbCyZpEJ73S2w/m5I+RLuljnoCFGIn5Y4kHs/jkUdu23kuinjHWIDiOVC39EnnHvZBWdgMuc4wqWPmMox7zqNiuEixyq9wOOg9k1WkDzFGMWdlvuqPtTlcYTPkepsjdcwYRn9jPOMdYb3Hd0RM8zAwSi6FiLFuCicEdrBIJk6ZeaLFRJtDVzn3AhEq/vJLZ8bM6Was8ptDjAPJy0GDa8kAo4CB4BDJoOMEl7jujCFsJIIF6fBiYOHPgIWJnbiKV9CJLukomBAGk/wUWmJa5KFgQrkQoUiLPIlnGMNBymQZzNt74b4VKxCbSNM4uPmi434Jp7tpmJ4TectuGUyPMPxqYBzSII5l4D5JGz9fqvEZkTb1hD/3khcImLiRv3VJ/RKW8mAnDdzwp0yxnrwH/LnGzWdPGNKwvORF3tA21eNuwcKFhfAmn+DZV+w7XFMuSVmpY8pPHXDvlN36lt4L8bXX9cm7log+zW9Y5GYBih8ICK8ggwDD+U+wHUT+/T84/bvdm3/i5xe/9h/vWHz82qHf3fTA4p47HpoELNJUSFJ8guyO4jBpBahIy2eZWXxj51pGe2zL9FnaOv2UMSK3deOR9kXvmF0KULzXNkWMR76S9yDvQM6AQoBCkNIvxpHbQk7X9zTXiFCxDNlsHOuK3T2MSeyAYoxCXJl2QI1hLxVTnoowmANtr7hRNp49/5bIIfW8P3i/+KwJR1tAcPq/v+IHHqJ9xMPtsdNuaDO8mxgzfe861luOVTDMxKGcWYBil5g7oKxnSRyfxSRC5TQHHgZW5R/9MnkX896hjnmfYrd/y8JmyHWGSV1Sr7Rf5jaxrWaKVX6Fw0HvmawiYxtjnPNy5sq5X8HCZsj1NkfqnTUQ/Y33TH4/9HgYGCWXQsRYNweCXkPosYdeuMhCv46cMDmJihOoONHi8zsm3vzyy+SbM0icgDmpzMxY5TcHwsZBOg/YDCS4McgwYUXMYYBhAgUZ8BU8nNwSh7AKM4RhMuzWTNPCP4olukPzxV83rrWbFmkzSaYs5oWdlxCiERMR41p2yDX560davLCwWx7KgJ/ikHGJh5sm4SB20iUN45q+6ZGH6VAnhDd//AlPOlzjJgmLu2Xz+cR6I23T0h+ahukTJpcv+nOvTNwgeeJmeQhLPpTbcJbXsliuWIbM3YI4LFx2uwOKvkNZ6HeYkLpXZKPdWB/WE4z3Ek3cTTO6H6fryFVhenHmwh/na9uF/yamAMVimWdNW/KzIPzZ/cQC2t1Ot/zCOxoRn77nO79v8Yr/y39evOaHrl783JvumISom299oKVFuuyKor02jgIUeUcB6uzD9yyZ5G25Y9vO9wJpy/ZH+mgUoOzrEH/iRZp2I6LKlj/Bi2F9F5KnRIDyX/Agwp9+hM1l3hZimtx3tJt3Npc4ClDUiTugDkSACqQ94I552133TeISf5jBjzHYcccfUr//8l/9+CPPf+43t3dlFJ/cQYydMZK2gzuive1ok/sxzFRnq3ZADe6Ek8aNcyfbjDxMrCpH9JO0Xeqd96n1Sd3SV/U3bGEzWF/WGSZjmwIU73rrt8eIVX6Fow+eO++7KEDhVs91b8j1NkfqmLr2B/h1oi88DIySSyFirJsDQa8h9NhDL1xkYb6OVk2gnGwhQF31Xz60+PG3v68JUEzCnYQ5sczMWOU3hxhHOhHCdKFCGTB1YwIKc1iujeN1pOFiPEwZ0+mloVigHxM4Bj3IpMOJh7uL4mBo2pE5H6+1xzDaYxjd87XhYnjtc25zfqYX/XSP9hgm+0fqb9jopkmdmUZ0N6zuhotumOu4W7DAYxG32x1QmJQtMi7KFaAot/ReJPbYB6P/cbjO95XvEbvXuOtvn49tYS6efnNp6+d19DNOz38319qjmcN5T9FNOj43fxf2QzjHaHbC8PkcOzUQnBCi+LTq1s+cffB3/n/nmuj00r/27saX/bWPLF753R9ZvO5VZ5oQ9cEPnVv83se/tLjz7EOPRBGqfY43tG0FKEWoKEaRb75P2yMm1F/TMTLvgKKtG8e0fCfZXyaOosp+CFDxPWj9wvYp+r0PtfchZhagYKyHbcH0dsNYpkmAuvOm7id4TYA6/8CY26UhliG2U2hbQGhitxLCEmISIhR2fizg837C0DYQoDjDj3995F3Jgv09V/8vX2EBxzuU+MTT7q5R2pF5roJhJgYB6ppnPHOqIwUod5vlePZNr3U/TFiGXjmiX6T17k5j6hy3GKawOXK9YTI+7HYHFFjlVzj6oB9lASq+K+q57g653uZIvVPXvCfsc74f5tI5DIySSyFirJsDQa8h7AdPK3p1AT1HIk6iJBNGJlwKUG9453ubiR33aaEQJpkyY5XfHGKcTAZv84+TJNyjX3SPdt2IqylzmN51diMekwkXV5AXjpO5TBZc7FDKaWK3TPrlMLIXN9rn6H0SnnpaFc+whu+FWZev/tHMzyc/75yfcaKb4XL5vNbd+DHeNuHCZS+HkEPKJmkz/FqTBSj9Y7zjzt6z0S0yusWwXFs3uume3eC6tCHxbGdz+fbsvbR7ZVjFXnjdeuNzJON42wF11507bW4gQhKf2SlAsfsJ8SkSIerKN35h8Su/dGcToTwbijN42k4rxNUh3yhCSfKkfN479QaJy6d9uOd+Tlq4E4+dirZ1dsAoQMV68J59T03cpQBFOuuQw2PSV2XcAYWZBajcBraFmOYmtDwTh7pijLroEPJRgPIMqG1hKe9hbuDzpH54PzLGxU/pEKHieEdYxUn8WDQgWhEff4QowiNA0X54x2KPApR5roPlbOHXCFCxXWYC21h2Pw6grNQvdU2dsmDjOeGm/3G7p8NGrjNM6nMvAlTheIPnngUo3OqZXxpy/WVSx+zqpM7pc/kHijkeNEbJpRAx1s2BoNcI5Dr/HsWc+2lDrodIJvcXTfDDL+z82vsrH/tEE6AwEaD4pbItLjriE8xY5ddDDL+KqyaFm5I0GKj2mpbxfaF4zeSCX3UZ9JjQQSYfTDwYFM3TeAdF8owLvVX3bRmz+26e0TqK6GYZteeFqcTN+o7usdwxHbhtkOamO6BgXiBSTjknQBEu3qP5Rh42cnlW0WfmM4Jc99qlYQ0no1sM2zPx59pw0S2GIX/dYlhouB4Ja/ye/xzNYy6e/goimpnmjwg1lX0Ym9nVxKd27HbqCVDsiMJdEQqxSiHK86FMn7TJH5ofJAwk/Cc+d0tLA5GANKY6G98ThLd8UYDq7YDyXgmLudRvEKD28RM8SZ6S9+BvXHt9O/+JT9I9hFy2e0XsGeNuE7FMcxRcU57o5yd4ngFFXcFt74AC5Oczg9SL7YD3Hu9AxCIXBCzKFJPwJxwCFO7sgCI871EWbbQZPxEjDd+p2G1Hvls3gWVs5b0EAarH4wLLy3yF58Fzsc5791zYDLnOMKlP6pY63s0neIXjDcajLEBV37p05LqLdkgdlwB1TDHWzYEgN4DYOXv+6yjm3E8bcj1IhaclASqISkxkPYQc8em3bry7CVD8+tsWCocsQO0XL6UMvGyYWNCGvWZCzYROQcH2zTWM8XsvpoNixDp/0AuzG2b0wqwj9bVpne0HdrMDKi8MoeWHPQGK9G0j3mfLN6Sh22Eil2dTck/2A+9Pd0z99O/Zs3uOp5vpzoWhr+qXaRjLFfPGrnCCXTftXke76ZlGNHvh58QnGIWhGA4RCAFqbgcUxP2NrxkmaW/8QiNhiaMQpSjk/fWuEboI/853fnrxL37kTe2zKcQa3PH3vqhf/gEN+5wARbres7zUHVBwHQxn/WEqLkEEqPgveNj1M27kNtFLPzJCt6lcY11RJ/ETPAWo/doBFZ+h7ZxnzvP28znGOxbk7oLiHWk4FmvPfe5zm7s/4LCIQHgivu1GAQp329Gm92P53CVGHe11B5TXtJvjBMtNvVF/LtQUA2G898JmsL6sM0zatgIUP0Rij+EiCycHPOfaAbV95LqLdkgd+6MHfS6+H1bxoDFKLoWIsW4OBLkBxM7Z819HMed+2pDrQcbdTxdN8kciNn303L1NfPr0/Q83sgNqCtMRoTJW+fUQw2/CTZHDxzSy36YwnpM02i7XsQ3rFsPla9My3qYw/qUyY50/WOe/F8Q05zgXbs5d7gfaAm9YoOz3J3guzmHLN6Sh22Eil2cTcl/cn4zu3K/33gurPfvPhe25R+pn2MgcL7vFsNhjGtnutfFz2Lnw6xiFE92iAOX5T5m4//sfu7fRnVKER4xCUMo7oiR2DjDH/12/+rn2D3uIT9/0wlc1k8/qFKDifSnOIzK88d/+2CQkKED17vcikWeXAtQmokAO77Ui05nb7l4SoPwUvVc2zG1iKf0ZCq5zmZYEqAPYAZXJM+X5s+hmVxNkQcDCgPGOQ8URlWgHtA+EKBZrz3nOsy8QljaiyAS5Ji7jJXH0iwuMTUA4nnV73isEKD5fjPeTaVq966MOyxoXanl3TuyThc1gfVlnmNSjdVwC1OkBzzkLUL33XGF3yHUX7ZA6juMa5pywHnnQGCWXQsRYNweC3ADiwNzz35Q57mlFrIPIdeITE1kFKMikGwFqmuAiPh2gAHWpWJfeOv8eYvg8oGnXpF2vmnRAwx40cjnWlWE3YXvI8SMjev5zFHPu+wEWLizidnMIeSTPW64SoAyL2fINaeh2mMjlWUfui8kAuwMhggRk8YmduoDx10LrAipseG3dGC6y5+ZuJ2iaxncRTDnIX9HEMJrGjW6YsTzmEcNERjeu58oURZE5xjCUAeEongE1J0KxA+rnfvKeJkARxk/ziPdLbzm3tCMKUQmTf9BDoPrF/3BjC/fNf/VfNvFJAYoDoxGpWnmGd4T3A/mcb06AsuzeB+yJPAf5CR7/NHiUd0BBoX0ql7t70iHkClD7tQMq9w3OPGTxxaHjCE48dxZkmNivuOKKZqe/0fdYMBAWf3Y/EVeTsZH2Q5tRgIrtyHzXwbJOdTQjQPXaU2RMiz6o/TiAclJf1Dl1y/uHcc861N/rwmawvqwzTPrEnMiXWTg54LlnAQq3euaXhlx30Q6pY+aYvBeiAGXYOK5FHjRGyaUQMdbNgaDXCHq0wcw1nMzCDnp1A7sC1CgosQhgEssneOx+4hO83/ni/dPEG38Oqs2LBZixyq+HGD6yh1643VL0/PbCXvtkMOy9dLbFS0EvPRjR898vRvT85yh6fpHbBOmxQNmvHVAu3mM/M9/Iw0YuzypyP9wbvwK7sPQTG+5fO9d+DmId0Iesr9indNdN6jbnZ1zoNYsxy0D+8RdL/OOzMK7ULedreGhaMYx+2CNxi4vaTUkZEYAQihSJFKGiEMU1ApQ7oHRThOKgcvyjEIWoFYUnGQUownAguWXhHrkPzChA/ZNX/9DSzhXuOdavXOo3u9wBBdfBcFHE471IvghQt9z1pSY8ve29729mPgPKOHKbyGn3KLju1RV1cpA7oHIbpq+zAENsYrcS1/R3iN1dUCzMaRu4s/uJtkF/RMCC9EXGAxbvEH93RXGNH3luglhH2xKg8vVRB+Wkvnj3OOZSx94DjONTYTPE+tNOPSpA1Q6o0wP7VxSgYp+qZ7435LqLdkgd9wSo6B/Dy4PGKLkUIsa6ORD0GoGkkdCBe5xrQLKwg17dQCfYXMeJN4teFwHsekJ8uvL9H2gmO6GM0/4p6ZB3QPXC7Zai57cXbto2MdeF25SXgl56MKLnv1+M6Pn3GNHzj9wmXLjs1xlQsS1ptnxDGrodJnJ5VpF7YjHJxIBJGQtIFp98csOuB65xg4QhrGM+JA3qItZNTFs3w2b3HvWnzql7z5lh0sIC2LiYOR3sxI/55TCRMZx2849u0b40Pq8h8Ri/eyIUglIWorIAFWk44hGGw8r5PI80/toL//USFaKiAEUZeE94PxAB6hPXfuiiHVCWm3vQhBf1m10KUAp4q5DDY5KvRHDiH/A4gBwzClAxbhMzBnObWEp/hkI75dKuAMWYlAWo/dwBFUk/ok+xEKB/0acgizFEJ8YBzoIinHYEKMLadnLatBnTdaywHW1yT4ThWbfnfYp3QFGXCCKK/4y3ub69LmwG68s6w6Qeaa8lQJ0u8JxrB9T2kesu2iF1jOBkn+P9EAWoOMeIPGiMkkshYqybA0GvEfACpAExoYA0nEzc+RWMcDC+NHs8rejVBezugBpJ52QSy9kXV/2XD7V/wcNEgPJf8KYdUEmEyljl10MMn5nRC7Nbip7fbmj7w3Rwi20y+usG88so+2+bGb0wMKLnv1/cBnrpym2Chcumn+DBvGDlWctVAlR8WbZ8Qxq6HSZyeVaR++He+NSD+2RiwASBQ4f9PIeJGn6Ecbx3weqnC477vgMwCccCKr4XyCu6YbLLApKe9Yw7i1+eAeVgwhifg2WwHLgTx7Joh/H9BLmGlIP4XFMP+OFGWSyjdWR9QUWRTRjj0m48JJwdTL3dUKsEqEj8+VQPMepb/sr/2EQnTKkARfp+gkf+kPqhXNzHgxfuuPQdUAf8L3jsgkJ0uv7sHTv/BDvY9ZviDOWy7reJKf0VFFznMjVxZeYTvP3aAUU98Cwh7Z3+jVDEYoC+YT1h8uzp71Ggog8iKnFNn7D9EMd0caftMF5EAYowm8CyTnW0BQEqXx91UE7rkbr3+eBOHXsvsrAZcp1h0n5dDNcneKcH9KPaAbV95LqLdkgdM5ZFAcr3wyoeNEbJpRAx1s2BIDcAJxdO+F0sZLoQYOJOw3KiktOTpxW9uoBdASqISUxk+eQO4en1b7267YJiAu6/4LWFwgHugJrjbrEq/pz7HGL4zPiS8Zo66718MjcJs1fuBZcaX8R0IjN6Yea4DrsNvxuQHguU/doBRf/S3zjmG3nYyOVZR8Zpx3nIL8LseGAhyYRBkYaxHT8mD0ze8KNuGPeJz3sAf4g74TCpS90kYpail5/YKXSRD2mSPmXwH7hIg3IQzzJI4pE/5ScMiwrcLK/X2iHp+2kf4fHTDX/KHd9j8blvwvz+c5xGDPJMqChE+YndXgSoTAQpPsEjXQ4mP3/7/VMZKBf3wu6nuANKAcp/x7O8MN7HEhGgDvATPMg7jx9jeP/xTowClP061v02YZqrKLRbJuuKOul9gref/4JHfUD6Du2bBZgLb+sKEzv9gUUC4ewvjIUxPCRd2wl2/IkDDbvp/VjWbQpQx3EHFGMXY9C6RVphc+R6w6S9Ws+0cewxXGTh5IDnnAWo3rMv7A657qIdUsdoCNQ5fY53zNzYFnnQGCWXQsRYN1tBfrhzdictNBJ/FabjriMTHBYsNDYnK6QV81nHk4ze/UIn2FznX9iZ4OHHZJtP79wB1X79HXdANfHphAlQYLdp9tLKbtG+V24zncPCpmXJ4VZxHXYbfjdg8bLXHVAupiRjWW8HVG+y0uNholeeTeg4zb37j1dMzhnH48IUd+lCiTEfM/pzrZjDhA83TNxIi8lIdEds4ho/FrDufuJzQHZkkA7vF+KZhyQ+CwomlLyrTFtSFtKzfLhhmqdhohtpcF/xHRYXtavImGyc6MYYjQkVovgsz8/pON/JQ8h7wpNEeCJsT4DyM7woQLUzoMa8bccKUNTXKgFqKvt4H7Hf7FaAsv4ion+2+y4kT8l7kE/vfuPa67uf4E19FDFjMLeJlu4aCq4tk1z1Cd5ud0DFdFeR+nAuRv+gb8E8pvHMuWa+ZxjaP32OcQB304lxaBuYzPmMlxd2QnvPnWfdnvcJ3QFlWebKhBvPJC7SqO8cTxZ2MFcv2T2S9hoFqP2u51Vpxbx2S9HzgxHRnsNlip4fzOiF2S0PAoxJzG9439PPGKdoC4dRlpOEXH+Zvlfi2LZOgDoMjJJLIWKsm60gP+A5OwMyEwomp0xAoCJTpH76M/nAJB6d20mO6fY6e+ZJRu9+YXcHFBxFJYQmJt6/+embm/iEuSRAxTiBGav8eojhN+FucanxLwU532jXDWR3/Xruu+VhYtOy5HCruA67Db8buHC51B1QLIIYwy7eAfVA84/j2RwPE73ybELui/vj3vknLO6dyTn3zrjOpA1xhnphImH9GA5hCaHIuIRhkk88/3GLa0QO3Z0IKlIRH5M6Jwz5IUCRHmEg4hjhyJ8wmNgJiz9lJTzl4CwbJjwuNrCbB+XF9NBly0J6pAVJy8XJJu+uORI3izmYMApRkF1R7ITi07ye+AQRqHoClOJTFKDiGVA8Y0WEOQHq7N03t/IRxjJ6Hxf1GwSoS/wEL/tFO32RulNgcvcT5z/1DiGf4o7iE9wmpvRXUGifykWZGKO29C94pr+OPnPHLq6jHdo+o5vh5sLH9GM+ULcYrldmMblZR0O7OWk7oCyXzMCNsZbxBzIOW4+Z1utpR64P68TrOVKvjHUHIUCtSi/7xecd76lnhyL7r6oP7eaFOdfOIGmZHuG8FjlsvodVaWfuNygL/cp3fRbKD6ocJw25/jKpY37MYM7F2Bb73Fz8w8AouRQixrrZCnoPOpOGwYvQX7/osFFoWkUm7JBrJrakQVoOWpqreJLRu18YBaj2KyDuo/jExNDJN+c+KT458W4LhM7uJ3jc0bunddw25vLoucuIVX6F7YG63cYOqHkB6uH2It1kQnVcEMvsfTF+I94gwHDvjOEIOIo37mpSqEHAUczBH+LP+M9EA3dFKdxJjzy4Jl3y4Bp/0iJN4uGukET62Fkw8EkeaZIGeTihJF8XFKbl8yMsE07ugfTJDzfvCzeuSQt34pEe173FSa67TRjffY7ZijuKUJwRhQiFuITIhMC0SoDCzMITZz8hXiE+vfOdn27/lucZgZDnTFkUoHqf4BHG8JZZZqHnUj/By37Rbp8kT8kPMQhPP/729zUTQUo/4uT+uU3EdOcouLZMjWNdUSfUzaWeATWlu4LUHfWR60S7fjCG5Vp/nwFtweuYVqb+mr02lGnYNvfZkgCVrw8blqVXJuzUAT/6MoYx3jFOUv85XuRpRq8+NiV1zVjn+2JVPV8qemmOS7sjBctmX5Sx/+LnOKA9jheaukW/zJ77foPyZAHqMMpx0pDrL5N6ZzxTXI/zqrn4h4GxKxQixrrZOnoPnYbCYouOmcWlTUjnhtHNrdu9/Ho8yejdL4yf4GUy4OOHAIXwhAj16fsfbnbc2wuiBKiJ28ZcHj13GbHOv7AduHDZZAcUzP2NiQicFaCGMKsmVJHHCbnsTA4UjLh36oKJetxRJBFucKOumNRhJx7jPnWFSTiFK39xZDJC2kwCIX7EVTRiUaB4RfosFgiPH2EQi3gmvFdIDzvxIeEUpCgXeZEvYRSpuEfeS+SBm3mSnotA3HXzmWfkupujPypMPy4MNE1NxnHoJ3mcBeV5UFGIQlzC/nNvuqOJTIpOHjoOOVeKnU+IT/EAct4T5AcRn3qHkCNAxfJYXnjRO2qXAhT3nxH9s92yki/0AHKEp3/3S+9pu6DiDijKa33KbSKmO0ehnXJpV4C6lDOgTHcT0jccs+K1ftnda0gY3KhT/WPa+kX3eB3jaMZ0Dce13KYAZVvT/bBhuWQEduqGvsjY01scx2t5mpDv3fqwTe2GxD0oAUqQlmUel3ZHCvGeY9+FXMf6jtfavTZ89NMNc1PuByhPFqAs837nfZKR6y+TOmYeRn9jTsYzWKUJHBbGrlCIGOtmq+g9dAYIJ+D+shyFpE0Y43ANSYvFQq+j93iS0btf2N0BBUdhiUksE213QGEiQPEJHgsMw+Y8jjvivWzKbWMuj5575ly4wvbRFsPDAmUvAhRjn6T/MW5dJEAN/StOqFbxuCCW2fvi3uPuIexM2HBDlOHaiQQmdsQdromD6a/3vAesRyb8CkZM+g3vZBATsQk3/A1DnpRDYUlByrQoM37EiwIUdoUqxCZFKidAuCNE4UZ4rkmPdM2XMuR31yYwbGQc173GhIhBzW1oY4hGCEgITx5KHg8mR4DiWgEqik/E48wnhae48wmaP88674DKz0jhwTgy9pvW5/bxEzz7JHlKd0DNfYJHmWMf3SZMcxUF15apcairJq5c4r/gTeklxnuO19SH5Nn6fGM9xTBwzi0y+8cwpotpO5K4GTaW075wEndAWY7I7M5zYVxi7GE8ZB4ew1ln2k8LuNceYzuKbtGcI23ysAQo8h6XdkcKlg+T+oCb2jHj2BLDRBp+jtF/P0AZnM/0RN79zPskI9cdZqxX6l0Bih8b0QRw0z/zsDB2hULEWDdbRe+h0yCYbNNQ6KRQMWmOhjNsjMM1k3pMOjqDUy/fzJOM3v3CKEBN7qP45MKB3U8cQs4ZUO/75NmlM6AMk3nc0bunddw25vLouWfOhStsHyxcWMTt5RM8yAsTsghizDptAhTk3rh3d0AxfjOWUxdRHHKMp26YVDiZxx/TCQZhsCPyEIZ6hNYtfqTBO4cJobuRyBfiT1mIq51P8IjPAo3ykg9xyYO4PQGK949hSIN7xJ00owDFOwp3wihAxYnSbhDrVbrIjkQEeuSR29o1bYydS4hJ7nRCbFKEgohSkE/w3PH05p/4+Ul44lO+9qNEeH9I2zi88/7bW548qyxAEZb7jvcOc5/Z7Q4omJH9ot2yKjBBBCd+hOEcKA4iR5DSL8aV20Qv/UyhfSrXWFfUyX7tgKKust3naF3qp7t+Xvfi9+ymZzyuDTfHGKYbR5FuqKOTtAPKMkVmd8YdRXfHrRjOej9NsG42ofWjuYq0u8MQoOS4tDtSiHXAdbTHfh79Y5jsFuPYz/WTuV6gYfcD5M+7PwpQuUz7lfdJRq47r+Nzdy6IAOXczXCRh4mxKxQixrrZKnoPnkYSdz9BFxpzNFwOqxuTekwWGLxQ5xpd5ElG735h/ASvLUSCH4sB/DjrAvGJf8FDiHIXFP4uNjKPO3r3tI7bxlwePffMuXCF7YN6ZYGybzughnCMkb0JS+ZxQSwz985YwpitAMXknEkaJkINZAJBnUTRSSFKgccdUNQjkz3cWVQp8OCm2MREkLRwY5dV/OQONw4wJy5p4k4Y0iMeYdzZpBtlJZ6CCvnxTvMzP8rHPfKu6wlQ5GP5XJzE91ZGrMNNSRuLRIRi8c2OJQWol/61dzciQkUhin/JQ3wiHGc8+amdwpPvg/heaNeDaRsnP+6Va97Xua0THsb7lktCzy4FKO41I/pnu+UlT+mn6NefvaMx74AyntfbhGmuouA6lgkqQDEm7fVf8GJ6Mj8nxyjbLs+a52x/gfQN+4HhMKVp6a5J+6CPEI9r54ymMxcPU78YJprbFKDy9WHCckRmd+rScZTngz2Gy/V3GhDvt8fYfmLbg6viE572T10flAAFTHNc2h0pxHu2Pn1fw9yHsUP82GGMyRjgNXFjHMPCmA7MdrgfoAzOSRSgDirvk4xcd5ixXmkLvGuo9zi2ZRo32g8SY1coRIx1s1XEhwxpLDQSBo8oICkozdFwOWx0h3GC0uvwkScZvfuF3R1Q0IXEcM2kGwGKw1cxsTMZN9xSvJHHHb17WsdtYy6PnvumLGwfLlz27QyooY9tMn7B44Jcbu6Ne0d8UZRx0oiAQ31A/CDXTOKJw4TOiR3vEeqKcZ96xJ165B0DCaNoZHqY5IsAxSSFhQHhcPMZ8G4hv1gOTIUl3z85TyaaLDgsH+UlPUzcCM+170DuFXfun/uwbjAjFJBw91p367RH25ncWXg/vCRAsQMKAcqznyBClLufFJ2i8NTeFUl06uXJtfQZUY/UEWnhrgAFWxmHNC56PyFAHfAneLzz2PWE+OQ7UL8Yt9XpYG4TS+nPUGifyqW4con/gme6mdRTz402TTv2GUfaR+JOAMw8zulGWvQT+yfXmNqZ4xnPOJm5nNhla2enZAdUJPdO3SmKYLZ3Tids5ElG734jbUea+XqdWwlQy6BcsZ86blBPjBFx/aY//R9/3qmZxPGHKMg1dU2axO09F7lfoBy+8ylj7YDaDnL9ZTKW0R7obwpQveef0zpojF2hEDHWzVYRHzKkE9IoGCScxO+GdOps102Tzs7A0+vwkScZvfuFXQEqiEpMYpl0uwNKAYpP8PBn4TLFCzzu6N3TOm4bc3n03HfLwvbAwmWvn+DxMpQsXBizXLDx4myLgRMoQAHK6z1hIsAwOWNiiTjhPXONm+KMkwkmlExOMakrTOqLeLgz6cSdd4Djv2kpFGGSFuSaOITBJBxxieekl/IRzvjEIzz+MU/LbzzSsryWDzfC6gbNN09QM3CjvUiAafhVnNrRKEwwhj9yx84neIhMCFBRfIIIUrhf+cYvTP+atyQ+pTygZSM/r7XjT91Sj7T1d7zn1xZfuuOx858MYxyul4QeBKhD+AQP8YnP8D7xuVuWBCgY48NtIqfdo+B6qTxjXVEnvU/wLmUH1Bx5ho5lCLkKtZDn7We1tHX6CHGob/sB1wqR+LmQoM+5E5K+SBqY9reYRs8OczkJ09rYlgSofH0YMP/Mnh9jDeMYz4bn0d45KUzmSUXvXnu0XcI4/tneuM5tDRKWOqauGetzmHvuuWfxzne+c/GWt7xl8Z/+039a3HfffWPJ9oaYNhyXdkcK1IFkLKAvM27kHcKGob0yBjCuvOQlL5nGF39EwqQ9M5/g3eq4wTjBOjM+ux73A5Sb8dBycA+9chQ2R647GeuV553HtnXPHx40xq5QiBjrZqvID5qOSaNg0GFCulvSqeN1tmPSCDdpeCcZvfuFCE9OVp3oR+LHxJtP7+IneMZpAlQQrORxR76fTbhtzOXRc98tC9sD9ckCZd92QA1hnHzFeD0eJ1DeeE9cM1YryOiuuIMfk1HINe6QOpLGw51JHvG4duzHn3C8b3w/EI7JKnbCx/RMk/iWj3DGtaz6x/JwrRt5mJZuTpBjHlzjblxIuTMUZjIJq7mW484nxKcoQGXxSSJAsUOKcIhQxG2Lr2HhjshhGWzL0APHoW6Q/Kk/2voP/5N/1iaHClrEj2nA7g6oA/4Ejx9eOP+JA8g5A6r3CV7kNtFLP1Nop1zaV32Ct+1/waPN0k8UnxSa7DeMaywIXDjiZlu3/ee+yzULCcKTLum5SGUxSn8mbIzPtfFlFAssK+6tTW5JgLKt6X4YsCyZ2Y97p65YFLtIo85imB5PKnr3KqmraKftOE5nv2yP7tTxnAD13ve+d/GsZz1r8bjHPW5x+dBPP/7xj48l2z1iuuRLXuPS7kiB8lkP9FnGB8YGzlxEYKJ/00atb94bjCn42f+pUwVp3J0/Mbbgr+BN3FgvPe4HKDtliQJUfvb7lfdJRK63HqlfnjfPn3cF/c33QS+8PAyMXaEQMdbNVpEfNo2EyQUNhQ7KREIxCjvmJsxxXGBAFyu9Dh95ktG7Xxh3QLVJWPKH/NL7Wzfe3cQnfv318NXm3xGf4HFH757WcduYy6PnvlsWtoe2+K4dULuC5Y33xLX36TXumJJxnL/rx4x+MbzuTjYwvTZcj4SJ9hg2lo9wPJeeH5y7jvbsnt289n4isNNWMnUXxp1lEqB+7T/e0c57yp/fQXdAKUCxA2oSoIb2rwCVhaYsPnFfkvf0m17/5tbWezugYjpdAeoAP8Frn9/ddvf0L3gIUVGAin1abgs53TnGsEvlGcU66uRS/gVPTOnOkOfHgpDnygIR4Uih1r6IiMw4x0KcdkB/wvTXahZqCiLO5/AjTdy5ZmFB+izoSI/xUiEFkj5uzv+iuGlZtTe3FQLUhbM3LMVbRevoMJHLJLMfz4T6oS6pM+qLuophMk8yevcb6ZhMe40/RiAoUG/4G6ZH2tCcAPXwww8vvuM7vmPxxCc+cfGn/tSfWvyRP/JHFm9605uGMBeL55sg50v7H5d2RwqxjIqhCFCcwYhw5C4o6oo6pr4ZBwhDu2Vs8HlQt4wJ+hGP9BSlCJvrJdrhfoCyU+7aAbUd5HqLtF6pc54/fY065z2yqm/Kw8DYFQoRY91sFbnT0SDojDQOOigDRBSPcI+cc8+MaThA9Tp8pOi5gegeGdHz3wtzWiK6ZWb/bO+Rib1koj/5jcKSk+9P3/9w2/kEnXjHcJkZq/yOImJ5IW2Hlx9t1bbF4AZtZ/tB0+/lY/768QLepJ3vhRm9MFD0/HbLCOy77b8ihukxY1WYnh+MAhQLFwUoF3dtkT6GzYtV7gvS/3iOWYBijISbPNfjgl7ZoRME75lr68cFpH7R3/gyutFvqccmliQ/qRtpmod2/Y1v3obFLbr30u+5Z/tcXJiBG+0FRDPHW8V2P4zfA90B5SHkqwSoj197voUnPiIUZSZvmAWoTMJ6n7ynaevugIoClGGMR3l7osq2BKhM8oZcky/khxcEqH/3S+9pZncHVOjn28KU9i54UV3deXcT7KIAxVg1CVBDuHWY0ltDnh3PlYUgk3/GNJ8nJmHojzx/3l1es0hg3IPEhVzjTjhFLRZxWYByUZ/jExY/3tvmbVnsz1NdUU+jAGV7UoDCnTiGjfVr+9SUh4lYjlXknpjP9AQo23+PET1/2POL6LmBGH4dxZw9u4PsF/17fjK2YQRVBCTaIaSNYaetU5/swqNdK0pZl5i2VXdkmP611167ePazn73483/+zy++7/u+b/E1X/M1i7/+1//64vOf//xYukXrJ7/6q7/adkrJ3/7t31488MADi+uuu27xK7/yK4tPfOITwzi8czTGzTff3J7pRz7ykRZmWNb9qYHfNPA5Ay8f+NcGPmvgHx74xwfi/r8f+H8Y+NyBTxj4BwaC/83A/91Awj9v4P9x4NMGfuNA4vyvwzXhvn7gfxvcyOvpA8lrgnUK6efUjf1XUmfWJ3VsH8fdnZL4U6e484chpEN6PB8EKcYCno31bb7a4X6BfCh3FKBy3vuZ/0lDrrceqV/ag+8A2on9cBUPA2NXKESMdbMV+HBpFNCGwMARf0lggGCQ1c51pO7ZP4eNIgEmg1Ovw0eKnh+kzLEBzzVm3bP/bsPPMdYfZr6vTdOJ4tOSAMWCeQzDRGtOgHIC1xOhMlb5HUVYVuuSOvZlxouNQc3J8GHTcvBiY7Lhyy23g03bRY8ZvTCRuV32yjPHuXC5ncO5sNE9l0WuKpPh5/yXOP5yvskneHkBQ/qRjFVZgGKRv5v6O6nk/hlzMK2PTerE8D2/zE3SkznsbuJui3nRuxu6gwny+RsCFGc8ITQhOGUqQHEIuQLU9A4YFu+UJRL3aPc5+Ox4T+e2TnoxDGlgxgW/+W3zE7xIy26+kvdeFKBuuetLS/4t/gELULy3zXupHJFjXSFAUTcIUIxT1z35iVsToKZ2MJA5He8jFoIIG0z8cc/PlWvCYvL8fZexWMBO22DhaPvAnet/+a9+/BHewwpQmLYjqCCAu+9F2hr5xHJwbX1Rj23ec/aGrgCFu/Ub6zm27ymdwYw8Csjl8Zp6YK7MnIY6zKJIDp+5yi/SZ34QtEzr8txNmQhLG8eECEy0SeeCmNahgij+zBmpX0US6ts5ZK5r4iI6/b2/9/cW73jHO5oQ9YQnPGHxvve9rwlK4J//83++eMYznrF40pOeNPHFL37x4uzZs4u///f/fts59Y/+0T9a3HXXXS3Nn//5n18861n/3eK//++/t4UZlnUvHXj9wF8f+P6BZwb+yMA/PfDvD/zNgTcPvG3gtQNfN/DrBiJC/fuBhP+Vgfh9ceB3Dfx/D/zcwJ8dSJrEv3Hguwf+i4H/eXT7/EDCPHvgHxrYYH+kjqgb+rD9FpMxgLqhHnlHMEei37vLyfUedU0c3Nk5xTVhSVMBirWmfV/GdrBfIE/K4n0xR++1v8JmyPXWI23F9wpmfu6RpnlYGLtCIWKsm62Ah+vgHR88jcTBgw4KFZG0R7fsp92BHuqOabq8MFY1QCiiWywv13GipRvpxnAxn+jv5Dq6R3v01w0TN19e+kVmP65n7ed3PrsgbYUniD2SsJSHiRa//PLpHZ/gve+TZ6d/AMI/14fMWOV3FBHLC6k/JhVOOHgh8vLjZcIL7jBI3pKXtgcwUkbaf3zumD7XvTCjF4b0zQfmthH9dYtljNTd8DEOzPYezY9r04p+vX5jusbVNFwMM3FYuLCIm9sB1QSoJOp6TVqRjFW0LZ4nL00mZeZvGU47rSvbF9c5TOZcmz31HN4H1CPvBM51UoRyJ9ScAHX+9vunM5vsE3kxjumz8hnZjrEzRjFW0dYZW5kL4B7DEAczLvobEVW2+AlepOWX5s0B5L1P8DZ9B+4VS+mOQh/Xih2xbrLZOApQiCjugNqmAOX9myfjqgtH3pE8V8P5bGGMy8KQBTljniY749jJQDq0D955tBXaDNekjZ33H2Mmi1I+tSFvwpsOYyplmMt7qivEwyBA3fzVj1sSoKhvwkri2N5lSyfxKCCXx+vYD6lD5stRFBHaM1f5raJ9e6/kGcbxwWcK91qm3ZD3Mm3L8QvS7jRxl7RT2qttETvusa5vvvXG1s7/0B/6Q4tf/MVfXNx0002Ll770pc3+6le/uglKAOHit37rt9pB5S984QvbZ3r/8B/+w+b/d/7O32n27//+71/ccccdLd2f+ZmfWVx22WWL/9u3/18XnzlzAwvd7x14+8BHB/7PA//mwOcPREi6aeDvD/yegQhVHxyIyPT/GPgnBr5n4IWB9wx848BvH0jc/8/ALw/80sB/OfAHBn50IPmdHfhjA0njswPvHPiDA9lt1cDzg6zd7Mf0aeoHk3qhXunP9GPaK3Y+0bviiismMQoyB2bM4BkQnnGFNPyUD3t8jjK3n22D9Hn2lIHy1A6oS0OutzyeULe0J/qdbSGHkUcBY1coRIx1sxXwoHsNIApQNBI6KQMMbpgQN6lbJO7EZ3BRgDKs6faU70yhnfISJ8bTjWvMOfEn3msMb/yYTvTzWhpOxvDSMlh23bm+KP74yQXusCdCEY/JGWSiFf8FDxEqClCtPCd0B5R1Aak7JrUMZrwkaVO0L9oVL5P9IulnRnf7CQMtL2JeyLycfYE7weFeeF7xnuaue8zohYGxrWXqn+s1u0Hs+uk/tbcQJl8bXvecRvSnboyHaT+KNI71qLvpN55/oB3ke+bF33qRADXtgGJxM4SdFjvjNelHMm45qaW9RQEK/ynPE8DdoBc/czfoxYdHEb1ybpv0LQQlRahf/A83NrEJIjzBb/6r/3ISoJbOgBris/iOn9+Zbm6zsS0zbsW2nkUCGOPGvqOosh8CFOQeKCN5SnY88e93H77h802M4p9g9TNevN9twfRgFjmiCNUzG8e6ok78FzzGKRgPId8ruec4NvPceK68jzB5T+WxFTtjHe9RDw1ngc7i/E1v/tkpvgcN836jjZhmFqDw004YxCve1bjxHoxtyzJjUu6prsYdULYnBChEunU7oDznrI3x/tAQ5kRHAZbF8nhNfdgPewLUJhTardvYFyJx91nEMHPhYfbTrrlJWjlONjNJk7qg7fAedt7leoU2SL3R5mhrPepHO6SNEo9r4nFNHo8++ujiN37jN9qOJw4g/93f/d12HtSP/diPLR4/jGl/6S/9pfaMCAfuv//+lsbXfd3XLf7cn/tziw9+8IMt/CoB6m/9rb+1uOGG348C1H8Z+L8dyOdwXzvwTQMfHPhzA/n87q8MfPtARCV2LT1xIALUwwPfMfC/G/hHB1428KcGIkD924F8kvc1A//HgYhVvzaQsAhOvzDw7oH/w8DHDWywLTAWUF/OYWmP2hGQqG/GCp4BdYo7YhP9Pda583OeG2EZH+IZUKvaBtwPcH+Md5RPAapXjsJmyPWW69L2RFuA9J+5fn4UMHaFQsRYN1tBfug0BhoJgwSNg8bCBIRBGTtksHCBragk9Y9hGWwMazqkCfEjv1yOyAzcenF0YxAhj7y7imtfVLy4cPN+eaERh7hc647JZMi4sDchtxMRF0b3mJbX2jEJz6IhClB3X7h3EqCc3OJOWZycKUC9/q1XTwKUE7A5ZqzyO4qgnNYd15hOOOIvGLF+Ma0748U09nqNGdlzo70wKXGCDp18x3YCiZ/LiKm9x4xeGOPTbqkf27j542f+xrFM2vXDNKz9Iobz2vD6x/yg6cAYTnfTi+EyY5qGi+b9dw0L72Eh3BOg2u4CFiWjAAVj3yF+JGMXz47nGAUo/AhPXRi3WNwmaVu8HxCXEJkUotwR5Q4ozoBy95NxXYhjZpHEtus17Zlr3oO0dRYGtnX9JeG675pdClCUKSP6R+bykz/kRxd2PUHeidhj2Vp5Qz/fJkwT9soX7Re5jXWFiOIneNSVApRjVM5nU8Z3CaQeeEcyhvFsmdvxbBlDfb48exeYvKOYo9kWfHexWGNXg2Mh71/9FaDw8z0HcSdd4uJHfPzJz/ZkGeHUhscf5uIOqNaeRgGK9sRcybZgOtTtI4/ctvPcoenAMcxRwFTesTxe8zzsh9ZjrKe90LqNbSLTduC1z2EuzroymZ/pWIaYR3aXOX/cFC+oD9cm0HZo+1P0mCP1Sl8gLmkxJyIu7tb1l7/85SY28bndc57znMU//af/tPl/53d+ZxOg/vSf/tOLX/qlX1o89NBDrYz/9b/+18Vf/at/tQlQfGLnIeXrBCh2VQ3LOgWo/2kgYhHgrCZ2QyEu3TvwCwNvHYj49MjAqwb+yYEIUPcPZEfT4wcChKk3D0SAeuXArxrI53r/eiACFPlwNhT4NwNJn0/5jN8EKOqbeqG/srMJk76OiciE2ESdMD9iXaUfdUzdxnWh807Stb4VoPC3LWhKwu8XSJvyUd64foj5w8JmyPUWSb1C+iptBpM1ei8sPAoYu0IhYqybrSA+cBsIAwADBYOCgzuDfRxMFJYUm/TT32v8ox9kgCdNyACXB5xM0fOLNB3KymBiA4/3xMvJxo874XGnTEyQcKfM+DlYEoZyWhfcA37+QuhiNNKycE3YmBYm6RmW63bQ67BgJh6iE5MqRai4eOCFDJls9QQoJt+Em2PGKr+jCMpJHcUJDc/EZxfbk6Y0/raZ84mkPJSLFxxtzMkRbZB2hr9tw3S85h5XpQ0zsn9Mh/x56VMe8sxp2x7NP5cJxrD4GU57DhfDkyf3y7jBNe6mn/PppRPT9xc30jOc/qQNFaBWngE1LkzzYtG0MCF9nmfGZMl2Zr4x/5hG5HFBr+zF1dwEvXhztM01+7BgdsxHXPKTvChEIT69+Sd+/iIByvfGgxfuWLsLijZse+f9rQhBW/f9ZrgYL/ebJqrs8yd45q/o0ISn24b5ytk7GrMA1XZChjJvE6YZ63UVl8pFXcVP8C6/vNUVvNQdUNyv96zJs2MOkwUg30E8Z+ZN+EHeF4x5LiiZVxGed4hpEB47beWfvPqH2jXp4u88izwh6ZEG/uycIA7u5B/LbFtTMOJcM9rNkgD1uKdeQID64mc/3cL22uHyDqjjJUBRB8wPqEPqi7qb6mUNYzrQOpXYN5lbrKNpcR3zWJUufs4DfIdC3WiDtkfHMdPGj/cwbYo6YYyS2CVtknqjzdLGogkJQxrUaRRFcCMebRQ3Dgrnc7s/9sf+2OIP/sE/uPijf/SPNv7hP/yHF3/gD/yBdv0P/sE/WNw9hEWE+u7v/u4mVr3qVa+aPs0DCFDE+bt/9+8uzp0b+vtwT5T5T/7JP9k+wUs7oN428CkDASY7nxCg2O30twf+n0f+nwZy4Di7nRCgEJr4zO6rB4IoQP3QQAQo8PqBCFDsomKHFeCsKESttwxcEqBsg/R1RWX6OHVMnbrTyfrETTvPi3q0fn2OmPgRxnGAuVxsJ4Tz2eu2HyAf2hTtgnuiPcQ89zPvk4hcb9JnT9+m/djPfM49HgWMXaEQMdbNVuFDt/PRMBh8mCDQYJxAMAHpkU68CQnLwENnJ81VDVCKnl8eLEiP9BnUIGV2ACR/BrznPve5zQ934tApiIMaT8cgHOGhHYe6oMyQjsOAqZ37cLA1nmWJzANxJJNk/aC7nxSgjEO6vJiZcCE4ITzFT/CYjPvibgwTLpixyu8oIpYXUic8O17otFMnNTncYdEBlxccbYa2xUuc9kfboT/EdkEczDhB1IS5DjKin7TtUA77Be015gmxR7dsx7Rt6Qdju8+MaSEa0VeoCyd5+Pf6xdy1dp459Uj/js88hm2C7swneKt2QGmSluQ50caoO+7BMht3HY8LemUvznNT9OLO0fEeYqfPtX7nWD6YfpanEPXBD51r9jj2E39OfMokrO3Ztk4/pZ85Vhguxust/Pf7EzxM8oV8bof49BvXXt/OgcL0DKipbGvegZeCmO6q+o2kXC1sEKDaDqjLL2+flylAtTEqjE+rGPP22jbkM8PkWTJusqBkLvTGf/tj7Rk7nios8fx5X9EGWGQy7hmOa3dDOAciHmF5x5gOaXONu37Ex528Eax4D5y759xSGeE0tvLsBipAXfOMZy4+9YSnTAJUrz1x/9K2n8PAo4BcHq+pA/oh81Hfc5u+b3I6ziVgDKd/NDNxJ1/ZC2e5DJv9JX68q5lLcz+Q58/7lLZhW6KNOC8yP+Jix93wtifSgKTH/Ipr0qHN0VZtf9Qj4QkXf7wiD4hfFKAw/+yf/bPtczrOdvrwhz888Ud+5EfaQeN/5a/8lcVHP/rRxVvf+tbF0572tMVf/It/sR1U/qlPfWpx4403tn+4+9f/+l+3Q8z/wl/4C4v3vOc9zZ9w7IpiB1Q6AyoKUP+rgT88kM/jOJwc0ekbBv71gf9sNAmzLwIUdUBdU4f0Z+qbZ0e9UX/44Q6pb+pLO3VJOJ+fpmQcIk78BE8/wsZ2ZNz9APnQZmgflKd2QF0arK/4zDDtv/Q9+hjvl/jMezwKGLtCIWKsm61g7sFjMkjQYHw5MODwAqDhYNJxI3GL/obBjskARRq+CHDvdfZMkd2iXdLwHTSZOPky4V7IE7fnPOfZFxgkGUTJn0GH+2NSRdkoty8nTBbOlJV0Sc/7iYMvbuRjRyNN79209Ddd68hfYfh1m/LDngDV7nGcTDOJZaLtIeT8Cx7/iMeEPC5CMjNW+R1VxDJTL7RPBjXM+NI7KK7Kj+dKu+MFR3ugfLQhxQz8aIexbThh7KWX7z8j+knSIl3qxzbri5Z8JeWgvbprUH/KDOlDhrHN5jSg+elHPEzun/umD9LPYhkIY78if9xMg3vw2vA8b/ue9ao/ZYT8On7LL7xjV2dAaXIPkv5n2X1msY4ivffjbMLYBnWfu97UhOvS3a0Jd1PW/bjetglpl5j2A8Z97hMiPrnTSSEK6kZ403IXCDRtGMN4LWnr9C/GLNo6fRN37rnHSeiBuxSg6FsZ0T9SIYEyY5Iv5AyouX/Bm+IHIWebME3e016vomVq4ce6mv4FbxSgPvdVT5l2QFk/OZ1I6yVeY8bnrT/XPF/GX8ZPF5cSO+McYRCGeP6GoT3QLrC7I4LxlzCISs4RfR/jDh2rEZxIA5M0nDfRtmJZJW15R4Da+TdTBCjGbwWozyhAjXOiSO4fIsBS17YH6/+oIJY52qkT6oa641kxD+/1Qeqpdx3Tiu49tnpObsSJ+fmMMCMZn3j38j7kfY7puzinxThCu6KN8Owl9wdpd5j4E460iWv5SYO0nYM4D8GNsJYFd9sg7Y10sTPvMjxpxXSpA9sqdU1a/+bf/JvFk5/85MUP/MAPTJ/OyU984hOLb/iGb2gi1FVXXbX4G3/jb7RdTn/iT/yJxVOf+tT2j3jMcxCnODvqb/7Nv9k+ufv6r//6dkg5/5D31V/91Yu//bf/9uKWW25hoft3BvIPd+x4+lMDAZ/MPXPgTwz8+ED+6Q7+7sB3DrxiIDug+BSPT+h+dKAC1BMG/vjA8wP/XwP/24GAc574fO8/DOScKMA/6t018KcHGv+/oa54PvRd6oVnQl1B6ofn4JwIk/qlvrFTl9Sz9UVdU8e2BdNmHCGO40AM77XcD5An90UZKA/lOqi8TyJyvUGfOe2BOqau6Y+xffR4FDB2hULEWDdbAQ+61+EgjYZBhhcCLwYaD4MMAzSdVgElk8Ek24nDoORLxkGePObyl2Kdm3RA4ftkyk5DpxxOhHgxYOpHePxwp4yUjfuE2AnHNab3zjXhIXnhT1q8ZAlDB/PFShrE8SVJWXCjPvEnLOlRT/hTH4pPEHucZDqRGpbQTXRSfMKO+zSh6EzMMlb5HUXE8konG5jUXy/MfnFV28WP9s2zpo3Y5mkjtBfKjDv+vPgIa3+AcWIYEfPIiH6SdCwH7R46YaRMtD1om8WkvdKeCWc/sM3GCR3jA/dE28VuOyc/TNs6/uRB3gjA9hnKoJ/9hTywk7Z1wn1QJ6RJmUkHwRiT9MmHtMifspHGLwzlZJHiv0ttugNK+hwg6Tp+UEbKTp6Q8hf7vNT6oQ2c5jr23qkH60Jy8Db9k2vap+45jUzSyW4xLn2P/ulCgjzs0/YL+0juM01UOYB/wYuiAj/E9AQowsUxVG4Tpml5Yj4T03uYsJjczzoBKsbbDX1G8Vlp51nSBni2jOUKQr6LaEvuSuJdRXtAYML//9/ev0Db16VlfaBtoiYmGIFQRiKNoFEjBmOM0aQNJhg7I+qA4egk0NKGaDQk2mi02sSh5oJNsNMkwUEgXDRYWjIUg9qhxAL9wMFFgeKOBQUUUEV9dYOvbl/VR92rTq/f+tbv1HPe/1xr733OPpe9z/uM8Yw517zPd97fPdfarg+Q+ZDwriGY9B+fyYM5mbmS+Zjw0PWDsJSFfOhbac7lXeTGDwUqoL7h437lB7/rBb/o4ttf8LHz3H6pgFLGk6nyCSLr/EZUttFDgGWxPNqRAeMReSFzZOr4uy4v5TpwhyoIdM/8sNNW9AfnD8pHuWhf2pu+gEn/Ye+QaRmX8ISzD2E3nn2IdIlPnjDHMGnqLmuZ7dv0OfIg3ZpmjQOJQ9+kDJT3277t2y5e9KIXXXzP93zP/DFxw0NeueNW1Jd/+ZdfvOIVr7j42q/92tn+ZV/2ZZfkphN5EvcHfuAH5n/RI72/+3f/7sUP/dAPzd+J+sZv/MYp7+c46H78RF6x4yPjl/9EN+FnT+RbTSib+Ec8/gnvP5j4iRMNR5zPnPivTPw5OExAMcUrer934q+eyEfNwW+Y+Psn8qFzbk+BXz/x90z81yca/2flHIEcab+UPzJCtvojN2QOlaFh7Vs+O6/Qv4nr/pcw7ldT3rcF8qG/MrdRbsuRed9m/ueIKjvkCelPyJk2Z86gf9SwyYeAZSg0EotsjgIamkHvwHeSsBNgZ/JmkmCiYZAyKdGBGLi5GPGcZBKChCUOCymdj4nHge6iYH4jJkb+lXRsyskBlXKzgaYcHB7Jn82WdspPeRgYaOOxU1bC+CsfftTdwUPa1IVX+ThME85NAnEJQzzTSC0/ciIsV9BN/z/9Pf/5bFJWwtAGbpze/M6fnp+tG20E2UjxrYs1BRRMmciKLb+HiCyvckFuyBzTSS1ldp+kf1Mu2p+2p69D+iR9zY0/YyQ3SLvGhKwYhXFM0zfpZ5ANAHmSt/0Q2l+Rp2N3LQxlp26kZR0ZJ9SN/BjjuBPW8Y/CNscM7sQxbaiCGD9lYnvynOkwxolPOaFpWcYv/OwXzoeWQ78BBcnT8cd8hkxIk3pShiRzwhYzzLnY0xy5jcx97cmaRjVPxX6oWYn7V/yl6RAz2TEZW1/8pS+e/50M6r8WvzLDYffZfu4YZHznYSLn1ifGzXKr565ewYOpgHrxS566fAXvStxQNB8TpGc5VCw9wVBAWS7CpgLKb0ChfLqigIq4B3FRysz7gJrG9Ew7MpcyR+f+rSobUdLzTDj82S8Rjz5BWOz4axKvPvN9S8ISl3zIj/j4ycsyLuV+/k9Z3jUTGfkRcuZylE9XFVCEez7eZR2n9lYBBW0j5Q8fAi7Lu5RHOzJBVoxF1jTW4llOEf4QMmbpCylzaXtlm2Vcw9EHWGOZE+q8QTkhbuxraOtMh/x5Jg/PDJj0A/M1b5hzTGWGwcTN8DyTnucP8uE5w0PzSjfqRR2Ih3/mucbrgHhZdrgc7R4UkIHjto5XSB1sT+cN7LC2qfWUuOFHO9FG2G3DKht5GyAfysCejr5LH7cct533uaLKDtIfPEswXyDnURsnHwKWodBILLI5Cmjo0YDLycCJgg2vCyKDlQmbTsWEPaKLFeGNxzMTlBNTTjxrHCH9iW9n1k4+3k6i7CyKPFMHyOEZUs58pszUjQ04CibikxZkQ84z4Xn2kIubdcZOOtSXMKTFM3mbDs+krTww/+Qf/kNzWMrKr49unNyouvFWucRGCgWUr+B9y6vfOiuhcL9UPuWGbGHFlt9DhGWlnaknJjJE3rQLbY8bzLrdF+nf9i8WWvspJou2ZacP5LjYt/wVozCk5ZigD0Pzpv/SN1kU7IsePhkzkGcUPdSBMNSHfm7fp88SjzjUhc0KeVJf0uU9f+K4ADmunB9IB4WsYwY/yHhgE54ywSQ/yuL3A0gHN8JTF9ywk+dNb0A5P5E+5aOcpG8ZJX7N5rHIjZPKUbgRa3/cJ75xMOnfzgGMRw9wkvFwucbUcXOgAop1rSL9k66BmuQL+QYUCiiUT5g865fx5TFBeuY1zHOwBhPGNV0FFHMS81RVQM1K8kURs0bDpDkiZbl8ntph/rh3+OuuHSXQE37hnyStrbzhlfQ20pqp3xKO/uQreCifUEQxt8/zOHO4cp5MZTtSPmX7PARYFsujnTF2XQUUcasbcVnLVBxyAGS/QR6k7VqP3X2IaRmX9ZwwrK2s666xzBEQP9Zi4xO3zhWmt29d5FpaaWq3vOyjsad/htFOmjxTB+SNDCx/xhvxOjBupr8c7R4UUnFHGbH7rJt29+IZRns+W1+eMZEzNJx+pmf42wJ5srdj3aM/rylGGvtBedX2Zk5QUc08YZvrP+JDwDIUGolFNgdj1MgyB3slfnQYJmYWHDoSi6KsCxF2iDsdDnrAVdtN55PmUfOVu8pOGsa347MQeti2TBxOXWQpD4dJnj084+ZBlg24B2cmJdwJw0RFHJ7ZqEPC5IEeWl/8COPflfJMGt7cMMwXff4Xz2Umr5ECKuvL5MxGCoVT/Qj55SZrsPGFFVt+DxFZXtsdGSJbTBbNrb50W0ykO32dctlvaF/KCLHTF+lv9iOVVI6L5KheFdU/STkcE+Sdz2666IOUFTfKaxj6NOVjA+tcQJnxIwzyx06ftg1cdBx31I00GAuY+JOfY4Z8cSc9TOWlPKw/9hyzhLHc5EVc3Di4vPOpb7jxN6AgG3XztK9Jytls3ibp3yN3OPK7Tr80jvMR5NmDiGR8SMfLJVFA3eIreK6FrnOQG0/f+SM/OX+AHNMbUE+UbeExQXpZlppXKkZ0y3U9b0B912/6pPnbRiigfvxf+60Xz/yJPzPL7Lb5lj/3xZvPko9+Y675y13+kDCmV92rSTj46k/+d+f+hIy8AcXNqPmGVCqhQsY//cF3vv+ZDzz/w1y2T0K3kR9IP9cgw6VfZcXIf+2ZcbamgKIMOR4ha3Luq7Oc2PFTgZRrF2sl4511FBM38mXMGx+SJm4qrJhzMEmTdZz11r0BYTNulkVaV1H9R0zl0y6O8lyj8qTuyJu6UQ/9avjkTZDpLEe7B4XalrVd96UyTFmalrKv/pW3BfKuCqhROR47qizyeeRe25e5Qhkzh+C21d4wUZ/vCstQaCQW2RyM2sC7mB0EuwuQm1Qma8kiCdNNdxY5JnUWKjveqAPu6pDJxMifctLhOdhaDuyUA2URZeIgzMJLOA6WLqi48cwGHDcXb54JS/15xo6bB14P2xA/8jXtvOGB7CiL6eFOXMrGIs5rP26g3KjClA+bKTbaX/WtL7v4gq986WyqgMJ/bbGu2PJ7iMjyQmSCTO1nuXG6LeyTvmEoD+WjnSkjfacSd/oIJCx9ICdw08JNd1mRfknlZL9mLPKMHdJ/CcdiTH/EDX/jUH7GgvkzJnCjHyN34hCOulBn8lMB5bfYeCYsil3ryTgiDvmZj23JeDCtlAN0jDKWVP7yTHkuy/ncuy7e/Z0v2/4XPLikWQ+Q5guRC3kqF+RF2STyaB6PtN/I/TGS9SDNEbf8drH2Y/o6Y5CxyLh1PqpzT46XS/uBN6BgRfVP5lxAnpCbwK969j0XL3/9m678CHNlDVwUzfCYyHLAy/xkzC+ScKzr1IOPw3sDCgUUihUUUHxo+yd/+a+8+NFf82seLX/8Yz7h4id/9W+cTYlsUgFFP7tUQC1t7L4JxZPcbKM9SXvtUoLYN7e4TxjGGntY1lXGontDxylrHmsnVCkEWZcYw45V8sJOHPxZV1nHIGsnz5J1zX06adQymVYl7rVOYuR2KDL+Wjo1j2ofPScpP/VH3sig1v82kGkvR7sHBcqW7Qq0+5xYc7su7wL036qAwu0+yvKQUeUB7RtrpnOl523GFmOMuSjnDsKMKOrzXWIZCo3EIptVZCNu8ZCw0E7DQsiix0RNx2LgsqCxUErcckGj040622iw72LFKAxlJH+/tcTBkUmGclMW/FAUefDFpJxMQJQdNwYM4SnjLgUUz8QjP18NIj5hJHmyCUAm2N3kE5ZX8Fz8kJObKOivvrP8nvvQZopNN4onbkBhsgG/ssEa3IKq2PJ7iMjySmVJO+TG4bawT/qGoTz0l9oXpO70URQ19AXCE4/2dsyR1misVFR/SDosBsiJfg1V2tinGS+Epb8jS9zxNwzlvFTsLGniVhVQmB5YTYvbfiqgSI8xQhzGoRtj3M3XMvLM5mBUb5VBpmM5iccYmuNMhz9eY3n1p336+g2oSDPHDvVLqoBCVtSFPAlXyzZqg0bjENT+Yx/C9McIUE1R4+4i/RvTvsw4ZS3Lvo7faBw+caA/UAFVyw7Sv5LwlNc1UKJ4Yv3j9bvRjZfkMUF6WY4n8lQBVdZi1nXq4Q0o/q3z5b/7M+ZXy370I3/5rIBCbpAPkz9G09cRJe6YfIQcOXFrbL4B9Y7Xzv2OvuGeie9npgKK9U/SFsie/oxp/0+mf/VLOi5ybGScGr8+G5f1HlN/TMah+2rWN9Yg1jbGJM+sfdD9NyZ+HqJJg/piZwyzRzU+JusubuTDfoB1u5YD7otDwt4nrFeS+iJT9i+X+4fwvy9kGe6Tx8Zd5LEPaOeqgMq+f59le0hIWVT58IwcZfpjZ75hXDFHeZ7OOJmWTIzc7gqLyqWRWGSzimzILdaw9Tk7iQtTPrNgsYCpVEkyqFnYclFL7uqAI65hFJZ0KQNKJj5WjFKICcbyUEYP/fgxQFiEmYAYKB6mHTCYuHHIZUDxzKTlIZhnFjDCkC5puNDjT1jsuBEOKivCUgYP5uTnRgqysbJOkE0FG1023fkKHh8jf2IDXFix5fcQkeWF9CNkySYN2fH6on63hX3SNwzlo0/R7kn7ALR/eHuOfsfYsb2h4wXTtEdlSD9pGuRj/0wFFOSZtBkz5E84whPGOIwfxjvjh/6uwof6IH/suFF2Nry488z4Ix2VtCikMEmD/Oj/+Ds+yJ+xYNrkRz1SBuZHXPIzL+RHuZH5T/34K1dfwbu8ARU3I+rYIR9pOT2U82Fd3A1nnFEbNBqHoPafUR9ScXOoAmeNjCtM+jLjKfv6lgIKXhk3KKBu6RU86HjETr6QG1D5Ct4zb3/3k+tgjPNjwjTN74l8YSifkCFhWNfneiwKO+ap7/6Df2S+BeWHtlG03Bd/4KM+Yuh+H+TGk3a//4SyjnkcBdT73//G59t3oX0EImv2S3x/iu9UPf9x8w+1x6yQWuxJ+3v2edLzeW67gfsa8WcdYyxB9qGsue6fIesh7oQlTdYw1jLWQ9ZL1khMxqbkmTCu1aTjeDVvy0f+pA8Jw7N5ZX2yX/t8Tsi6SeqP/JA1+5CUH7wvZBnuk8fGXeSxD2hn9nasdYwlxlxt+/sq20NDlYlEXkndGVPMcXUv4XxD2Jx3komR211hUbk0EotsVpENWZkY+dsxoAumiyWDEzOJGxtWyGIKseOX8aTupCu3OmJyDfpnGtjJi4OzCigXFvxY7Fls+CAyh10GCfUlDnYOt/gTjjiYuDGQPExj14208/CO6aaAwzKH4zxg84wfz/hTPv4ND7e1j5BTDpVPkBtQfISc208vfcXrZ4UUm/FZBmyyyq+usGLL7yEiyyuVMfKmDXW/LeyTvmEg7eY4onwQu+ODvkQ/oE+gEKXPUif87a+a2cdhRfoliU+a9E3IGEVe5En/pRyEyT5MeON4W5BF2j6MO3HZ9GbaGYa6MMZ4pp74oYAiHm7Eswz48Ww80iIM8rL+1oUxShjToQy4MY5Mi/qtfYT8WDeg6hgbtUGjcQhq/5EVIzdQ4+2ifdzDOOO09nX8GXeGN26OmZmLQuW2FFCsg+TvGgh5Ff2l3/5980fIMe/6G1BymB9KEcxlnlDGhFXuhEFe3ILiQ9soor73M3/fLL/mfzrfDMtn5nRuP/F6Nbefriig+FHhks/vgVQ+yVkJZfuskL4udbPf65ZhXNcNo2k41lfWEPeA0PXVtQo39pnuiYnjesh4NC5umDyz7pEu8VjTt/bTuFnekZ/22q/PDVk3ybhU1si1yqhxXKRs71PGtDPjxz0jZ9TR2HnsqPKQOafkmMGduYh5yvnLszQ03kjWMDFyuyssKpdGYpHNKrIhK9f87RAsonQcDr8ql9iQ0nkgg1Xqhj/hMiwmzPCjOCyy5OcCnp14jaK6G1eTdJlYUDBhesh2cLDgcIjlAMxAwU93JyTKiDvlZSCh6GCBQj74c0gmPnHcMBDXQ3XaqTdxvb2hP+QVPAYpG4qqgKK8DtTcwLLR5tbT33/67bPpv+Dhv7bJqtjye4jI8kLkgsxVQD3EG1CY9CH7ns/pTt+h/emr+SqeSqiMm6yo/pB4xKfv2d/Ij/SRG/2YfAhLP+eZMIQnDH3VG0nGt98jc9JibNuvazjGGGmZp/7kY9uRVh0zuDNmrDt9XxmQDmFIi3TInzwYo7jh92f+2B/9wBd+9gvnX8yPfQOKeYLDjeUyzqgNGo1DUPuP3BejuLuYY4s5IPv66GCtCa+Mm2k83eYreORr3uTrOsi/3335X/+a2XztW97+xFhOHhOj9FmzR+6prLbsc10mmb3zLW+eZcYrwxDlSnPMee7m1bs3v2bua/N3tOZXGd/6/JweyieYyqdLBVS0RdK+lestJs/uUSHzP2smY8U9LXtF/DI+44qw/kjDWsXYwtQOVUCRHuGJT/q4MQ7xd78MCWNZCCstqya0bknrNnq2X+t2brCeSepK+7QC6nGBdmZvxxhjPHLmHY2Zx44qD4msGDvOFZrMS8iV8QSZxzzLECb3zCMmRm53hUXl0kgssllFNmTlmj8dg05DJ0lFEp0o6WK7RsOx4MoaL93Jh/wY+OTtgpplG5W5utnxjcszdhYTF3eek+SnH3bikD9lww0zNwOkhRsbANwoO/GZuAhPXPwI58aCwYdJPPxJj3oTjwM2xJ/Fj/QIM1JAkZ91ZPCyeeW2E4on+fqL+NXXDRj2YMWW30NEllemAgr56X5b2Cd9w9jXtK/1U/oF9UB5wo0hbwnRl+yDppmsqP6k7+GSMUY/JR/kxLizT5s+edn/Da9Ch76MnEeLCrRfU278GRfkhRvjnjxJEzf6PPEd+8aD+jkesi6W0/Ho2CMNwhIHN/Lnr+d9reXYN6D6FbzGbaH2H3kIRvHXaB93U8gYyr7OuEr/3DzmmJmJAuoWX8Eb3YDiJjC3n+5aATVK23yfUEK5Fi+m4TDn+WNR3M3zkpzmp1nJgjkrWB6JXfMdr10lSieI4o7wH1I8LcqnkPvcX3Gb+Lzy6V3Py9wwA+pPXNYc1hfWANZG1h3I2GDdYr3BxI1wrlGui+wJice6J4lrOviRNuEca8RnjSMc45A8XGuz7NjTzbyrv/Z0176L54ZRHZEH7cK+gTapcrxPZDl28ZxwF/WinRl7jjHG72hsNPbrh8xfyBQ5Mp44N7CXYE+B+77zTmLkdldYVC6NxCKbVWRDVqY/nYFOAek4LHAcCFORlEwlUmUNy6Lqwkrng2thIe7kTRnsxKMyb7kZJ+NyoPYXI/2gdSe/PODjbhw3A8YxLO6WkXDUjbIbjjA8Uy9kgL9pkQd2Bih1VkZ8r8ZDLeQjmqmAmuOyuZrisyli48qNJxRPvIaH6asHhFljxZbfQ0SWFyIXJjoVUA/xBtTcdsuzfUQ3TPsM5WfC5rYRr7xxE4oNEX0k+0+yovpD45EP/ZW+mflCw5BP9nM2wL7qhpxzXBvP+mDSrw1DPuTn+MMfkj5jAtO4GY9xYf6ScNYhy04eMNN37P3gd7/s1r4BRX5zuDzsTBy1QaNxCGr/kYdgFH+LrCn0c+yMzZECSn9NeWXcHHgDClZU/2SWg3whHx7PG1Brr+ChvMI8FjLtpMqnfZRQcq6TSqhFGTPPTc5Rj5C8WpdEJtkXL/vCrHSqvPrPd6wLuZ4wf7P+sO6wXmA37Wwz4rF+oZRgfWZcQA6raaqAIi3iGJ/0SNd8IHbXWGiZjEcc7IQhTQ/HhK3l24ekJUf+pon/KP1zQ60fpN4PUQGVZdiH54K7qhftzN4uFVCjcdJ4vk3q/MCz8tLOPMW+gbGEXBlPzl0p25pWMjFyuyssKpdGYpHNTmSDZiNqpzPYYVjsWByrgojnNa6FyfhsZmG6VzcPtDznZiA7a2XWQ9qhazzc9asmYbFnHOy6VzfpZqW6p5t10H0tHcgvc4YnLH+rrQLKX32Jr/IJstFG+fSif/D9s5mv4K2xYsvvISLLK1MBhQx1vy3sk75haLc83GU/MAxkDFJ+J20UUdyCQvlzyMJY/Svtc5gyy4Q93Vk8KAtlYJxSzvTXbnw4Sn9kHz1Xd9IyPfOoZc380u5rLSqgoAoobxiQlsyxQ9pJ5qc8lCMHDjn40b7GG7VBo3EIav85Zh8apW0ftx+PFFDzeIp+TnjMJ9ab99zuK3ijG1Csg3x8nO8/Ya4poOSxMEpbPqF8ghsKKDjLtChhCKfi7DGZ0FtOysJ5/Y3vetulzOiTuF2+VjfzXbMb/oTlRhz9wr0mZF2jb7N3gDzT7+nrlEGSDmsv/oRjHWSdJi7EHZIme1cPWpkGz5Zd4iZzf5DhSYsysycgX/bF+OOXYatb+o3SHzHLlO7niKyfREatgHo4uKt60c6MsVRAjcZK40NtkvJBftLn3CszpvLsYljS0G3ExMjtrrCoXBqJRTY7kQ2ajaidDsCC662IqjzieY01jAql6jdSNOEmDSuNoxLKzp7l9lmk+xbrxOJA0O6AGA2ONX/dazoy46c/9svyLBtSNhzWuSqgMjyLJZur+i94PLspm9MdsGLL7yEiywuRCZPcQ70BZXvb5snsB/R3yk89WAihN6FQADF26uYYVlT/SvIiX9KCWYYaBjvzght0F5JRWE2ZaUDdtdfwyYybbuY3Sk+qICOcCqhXf9qnH/0GVL+C13hoqP0uKUZ+MA+prL8jBRT+o7XlyriZxhOvT93lDSj+Zv/lr3/TJXWvceWxcCVdlUsTWbPJf1MJNdFyQupgnJxPHjNnOSw3mlAwwTe+5R2zQgklIzffIPvX1/3Y69/N9528/UR/Rfn0yne8+d38O+LXfP03vpf1VbK+0schdtY45vhUIOWawjroHhX7nOe0ZrtnM2y2Xdr1w9TPsZTumtrJC6UI5SQ/0zS+cWH66QZ1M936XP3kuWJUV2TQCqiHgbusF+3MmE4FVG3728z/lFBlAp1jJPMh86tKc87zuDvH1PD7zD0jt7vConJpJBbZ7IVs1CQNTwegw7DhTMWRxE1u+R0SBo78Mx5k4aVslLGWvaL6y7XOPSJh2UjkQNHdwZLhR/4wn01LN+2mccn5V7v3Xdnoq4Dy18AM76aVTRj/gPcFX/nSoQJqdFjY4k0xSvO2iaxSAYUMR+FuUj4x8oPVrz7bH3y2P2R/Y3Pppph6UCe/B8U/u7k4DvvPDppffYaZnm6Gof/w7Ebb8IYxTm7C9fd5lPaaH7Q8hIH613LWZ8Prp9uaAqregGLcaIekkWROykP55dw0jVv8jVfbfs1NdzDySzYeF3b1gZG/dK1IE2hmWGkfd72oCij6Ov5zfy9x67iZFVC3+Aoe9aAsroFyVkg8+57Z5NuIul/GDUXzsXCZ9oAqn7aUUFl+FFB5s0f/Q819wlTzrv0yzJq/ROn03E+/cyb98lu/6/UXKJS47cbrll/9NV83E6UBnzGYb0It6SBTFVC8nskaCllbpbeYmN9Z5+zjriPY7fsy3TG3SBgVRbqRhm7Y072SMqmAYk+MW03TZ9NJZr4jkp72GvZckXWU1N2DM/3BvceIjdvFXcqc/s/YTwXUaMw8FtR6V1bZ+Iwc2ScwnyJLxhE/ml/uk5ewcm2+komR211hUbk0Eots9kI2apJOwCTLAsfCNlICbSmI0m8UJt3ZOKjkynD66Z7EnbJRRju53AeGzQV2jYZfW4yx13RqmXblU8PvIuHZbCdxd9MG2XCrgMLk10DcGdz71FtatpuipnsoRzLaJTfqyUaSCY8NBBNe+mfd8rnaR8y4oPrL6pfPpEEZMWFuPCXhKDflZxFUAeX3oPwGE2Nma2O0Ruux5W7Z0j/9aho+Y1qP6pZxtvzSX5qm9vSrNM0MN9ufe9cVBZSv4HEQxn1WQPGL+RQ+x5Vy8LALmZPqoVzlU8ot237LTXcw8ks2Hhd29YF0d9xojvwSNYx0XsLO2jtSto7ygIyZy+cDFVCMsYr0r8x1UPOZt797vvnEa1aYPDuWCVPnj2Mh0xxxqHwqtJxSGVt2zeTITzt1HbmP3Kp/dQeUZ+SHSZ/RvmauEX/3n9xoynJnXPoeBxnWw6/4S3/tkl/8pS++JOslSgNuJXHrNfN4w7M/ffEjT79uTiNv4OctJveZ2U/W+joU1S2f9+EoD90wKQ/158c1OLoFXdMQ6aZ7ddvFc8WorsjafeToBlSycbu4S5nTzswJqYAatf1jQK1z5UguuEHmJcYN4wdZMpaYV/HbmkvXmBi53RUWlUsjschmb2TDSjoFixsLsUoglUJy1/NtkXzg1i2oc+Lw4D9t5FU8eRDGnU0V5Nc9fu3l170//3f+3vyLoAoo5IU5TPcaTIz8j0Uns5ywRm5J3NmAskFj0qsbtBrf57U0a95bYapffa7xecbULctBP68KKCdzyQRPONO77fY4No/VH9eoXC9lXhRQHIS/+xM+4eKZz/vcy7/z9uDhuIKZnmQ+ykO58Wqeh7SJcaq9svG4MOoDlfQXlUbOK+mXz7tIeNPjuSqg6OuZX41/hUd4Ba8iw6YCSroOciOGdZBnx/FsomS+oxtQa+6VdS701TvLvYsZTvta+9S8kvht5bnV5rvK6vrGmsXBDuaPnaxn9C8UKx5WpGngTjjWRfqkCijWSG4+sU7iT58d7RUpI6/lo4jCxJ/6ZJ1q/bIND0WNU9PxeR9SLupE3dkLOBYzTNb3Osi0HguyzhI50qdaAfW4QDszF7HWqYAazXePAbXOlaM5E/kpQ+ZnvxfLHO++wThbfKhYVC6NxCKbvTFqcDoNixsLN51H0nFUSCXTfx9mmmvxRv7Y/bWK5321qKPB8dC5Wk43zAtVQLGZSvKqAb/4svnGZOPtr7/IbJj2Bg+R223I2z4JPeDrvlYf3NmEbr2Cl/G1Jy0/Js/aa3ifMau9PpvWKJ7UH/JrLOVnEsdks4mdyZy6eRhkPBxL3odSjPy2uE95r5PuTg4UUNyAet0f++Pza3j8Qx7/lIdM+bYI7cDYIa7tx6GF12GZlzyUs0Gd+9lzz39rJOu3Vo8qA563DnfN5oj2S1n9tp63mH1xpICq/TzpmJmJAuqGr+BVZNjRjzGse/v8C548JtbSTrdD2qGSuNRjlAZuW3NItlkNs+a+xex3kH5h34Cj8CicmC9ZoyFrG1ShhIk7ez0VSJkWbviRBnRf6J6R9Jm/jTuqz6iu2UZ3CfOsHPlRXuqFvFCMICeeM0zKqrEfUn4+I2vlPLpplmycDxg/zCWpgMox9ZjavNZ5jTnPYkdmzE2MHc4q7o+VY4Yf5fOQsahcGolFNgcjG51OwcLtYs6k66I+UkBB/fchYZO6k7bpp1/mmW6UMTvzocxNxy6uhU2M/G+FoYDimY23m2rIDShvQal8Sn8P1NSJTarpWkfNnBzuk5SDiYzJy19FUcrsKh9+Tn5sILY2DpDwmZ4bV5+x78rTMDWcdkz9De/GscYxvBvNVEBhUjcWRhZIntlwm+6+vGm/rRiFuS4Tuo1kug8rcOPAWxVQL//dn3Hxij/+X1781WmxhMgaJe4P/sRrL8cNcckbMvaYj9YO5Tm+zLdyVKd028ev+bhJn7DPYdZ5wOetMCMSFtqPWXdrX9cfs8Znvbl8PlABxdjahRoe0zwxWfte9NQ3za9jcRv4ISigQPWrVO4jd9tun/bLMOZrGtr1Hz3rZn7pj10/+gH7MW8xsUazXrNfc59mXEzWNMKwhnEwgSqdWMtc30iDNHNONX/zTVpOw2b4XbxvjMoE1/yoL2MQ2SE35Jz+WffGfkj5+Uxfoj/2DajHBdqZ+SsVUKP55DGg1rnSORciI0zPLciPOQpZ4m4cw+lW83noWFQujcQim1VkA2cjpxsdggO+Ch+p4ifdsd8Gt9LHnc2LmxztUn/TqBylSb0kG54kE49ELvl9AMhAW2PdIFU6AEd0gLK5nw8AftR4UTxhuumGbqyhN6Agr9/lx1dN33gPndQZ2atMUhFDG9N2dYOb8VIBRXsYBlMZ81xlgt32MazMNAhjP8j2tDwZt6aLSf+iz/FsWNM2POWm/NZbxRMmz9QP+9oCucU69u+TiZH/UblyAwoF1Hf/wT9y8YWf/cKLz/kTf3xeOHmtgxsUzDX0N+Scr2zQfnkop73wq4fym9TLdFQENJtrtK+M5gLd7LvVf8Tsx7WvO5ftlRYKqHt4BY+bT/wbLK9l3acCKjlCDVPnDzmSN89r7YC7YarfiIQ3TroZH5N2py+wBtMPWH9cj1yrWKPwY760n5ie8ZlTiUc47Lk/w9+45p1p7Fufyq1494lReeCaH7JA/siadQpZjcLBxn6oMsOkv7jPagXU4wHtzHyUCqhR2z8G1DpXIpckZ2TmdMYMxM6+mLA5l2Nfm48fOhaVSyOxyGYVa42cbnQMBpsbAZgbAxU56XYoR3Ez3bW0cc9NDwsDk4N0A7QPc8PkBmofmjfmGlmoNHeR+miOWGXCq0GQDZqc3ZBDP98AAK2kSURBVH/itTP54Cq3Nvw3GEyeca8KteRIuVbJJLKLbBg5oGNW5iS1RScmyDP1o51YDCCTmgoZ5IycqJv5mwbtxOaMcPjhbj/PcLpjHlJW0iRfyod80h3TtCVhKSvyxrQfZX7E8fDBM+nSt61v1gm7CijSzjTSvA6VwxZtZ+p7LGZ/k/bNEWs/HhHZJBkzvGb3qt/5qesKqD/+wrmv/fd/9gveD7/oi//ipcwZr4xH0qYd81BOHZAfsrevwTrPVhIeWVIn57mteaHZ3GL2HdcOxhJ9c9T/RqRPQhWfjJvs6/RX/Wt/h1cUPQfegIK7kGFRQFkGlUz8GYffgOLfYB+KAupYpL45Z4/aQLfa7jw7jzvvMjfST+gv2J3LjGN+zFH0L+ZD+gOsezDmSfreqM/xTNrOzZg8Uxb8khmH/Ed1hLqv+Se3wtwXtsoy8kMeyA6ZswdgbI7q1dgfVW6YyJn+jIzpz/TRDJdsnA9od+ZB1jrGGHPUYx1ftc6VyAV5MTaYk9gbcEaB2JEd/pCw0D1FTUf7Q8eicmkkFtmsIhs7Gznd6CR0GAafyg3sydzU6q99FzOdNRKOvKsbJnmz+WGDw8JQNz6V+ifX3N1Iuam6b3L7QrOWtdKbGjL/DQbi718TI7sRmSz2JW1QadtgJrMdbcskbS2ZwCB9EOJPfsiBxUCyIYBMctSf8pM36bPpZTLELRVQOcE5GWoS3j5HnuRteUyPNHg2DzfRPFtm/bETx4kXUg/KjEm5XNxGm3TLhh9hqD/1yDpB0sOfuqf8pHKtTPlLyr3F2q4j2hf2oX1pH9o/07wJX/WFX3zxXb/pkzZvQKF4+i//9H93Ie13X/g//w+zzKkvZbEtsdPmh3wDShKegx1p2LebzWOQ/sn8wZjLebDOOSOmcol5w3nYvl77efImCqhjvYLHLeBvfuXTs5k3gTOuPDZGeSirlNma/EY0LHJP2duWusv0Iyx22o21Iedt2jP3RcyRzPn0F9OiLxCXeYo4OZ8S37SIR/rEJXytn+VI6pbh5JZ/pr2mCF1jDftQkWWUlB35ugdA7mvya+yHKjNM5KyMmT/XZAwb5wPamXnMPTr7+VHbPwbUOlcyRpjnOau4f3WP4NmGMDk/43bKY2lRuTQSi2xWsdbI6Uan8FCdh9J6SPX5UK6ll+4ektMtWcPmgRsaX9b4laYn3US5oUrmATrJYNtFN2q5cYMscGsmRHmknclQszIVTp//P375fIDGhLhxi4MDBAcSDybHpGlWcx9SrhGpF6aTWpJ/VtCOPyQ8MqbdsZM2smSzlv3cvs7EiR9hCGs6pmt82p50SRN/3XTnWT9ImekXpM2kS174f9ZnfdacJmXXziTtxFzpJpP0MMnLMpme5eRZuVXi/1g4qn+S7zv92Od97hUF1Le/4GOfUEAh11RC2d9oX2TtuCdN3Hl++5s+dKDKX3nqPDsicxdtTD7UgzwgbY17s3ko6T/0Jfon/Wg0D66RPpz9mDnVvk6/V7mw18H/Hl7BQ+HELSg5VEBN5dJ+G7jMJ5jzwj5EtswpzivKOmWOH23LWoKCyI2//hmGNYu+4TqHmfOncw57I9evmoZ7LfOiL0D8NbVn/Cy/z4Sr7sktP+KO3CtHbVHTfIjI8knLjWwZh7Qf5tY+orEbVV6Y9C/HCuv7Vn9rnA9oZ86AzI/Mh5yJR2PrMaDWuRJZQdYCZPUZn/EZ87nEPQJhquyMA9NdPnQsKpdGYpHNKtYaOd3oEFUBhakyh2epAufYzDwyn3ymjGyEKC+dO82bkAGzD8m7kg3AiAxMyqvp5i2pfKV1zrpj+gqeZDOJH68aSL97geLJfwCCqSjTXs19yOZUc0QWbM19yKRVyUEn7SwEI3JYlzyzgSZvZEI8Ng480z7Zx+krtiXyz804VLGDnTStu2XBnbJbT/MirGFwp83Nk2fKiYm/YSgDYSgT9ICCnXITBjlgWgbzpZykiZthpPJbY4a9Di0D5i5mf9GuTA/lqO8eytf+1a/e6xU8FE//7//2i2ZFlK/hkSfjjrGMaXvjPvczv9e2tCFmnWdHZHzTLqbF89ocke7NZvaN7B/Mg/RZ55qcB/dhKpdIN/s685ZzaY0Hq6Lnrl/BQ+H0Q29+x+X3EO/yBtQo/V2k/GvyzDWLPQVt677AH0FoX+dj5jjC2EbGp/2JV8PzDIlHmsQl7Kg8ppd+NQzPhkn3SsOtKeXw31LY1Xyr28hf1nQfIrJ8lbQt7aXSkPFZ5W39G7uRcvMZ+TFG2Nsxztyrjdg4HzCOmAdZ6xhb7PVGc9ljQK1zpXMM6wVrCGOFM4lnJMZNriWYyZqefMhYVC6NxCKbnagNnI1Oh+DQ7OYGE7K4YdKZWPQw0/8mdNOMnTRJf5QHdt2YENxcZflzw5H2Q7mWzsi+ZlI27GkmR24jequC+sJ3vuXNl3a+w/OGZ3965hvf9bbL1w5QOKl84ttQr33L22eyeeUfvZgQIGlo34epWIMq1So9AEHbN9s57battI3ta2yQ2WSxGIzIRAdZKAhLPNLm2UmQeto2KVvcCUs6qdjhmfhuPjDx8wBmfribj8ovymwcZGFfcHKmfKQDCYsf5WJDrN04yJh0CJtlsJwqn0hbue1D5T6ibSOzLWVt7yR9Iln7jBz1r120v9r3MQ8l4+dd3/X9OxVQKp18fdV+Rdlf/9an53ZClsifPkEbkD7tBmlDWefZpO2daZFXptVs7svsN4wV5hjnM57tb7tIOOhBnb5f+7r+ozRvooA61it4fPuQ7yBi3vc3oNIdedU2Y15xzrQNU748E8Y10bUH0i6sPxB32od5OtMhX+z0AeZp2hOzzseEyTiWQXuacK399yH5jNyTt5l28iFiVE7lQf3cS7ivWKtzYzeqvDCRJ+MJ+bpXy3DJxvmAdmY/5rrJPDmahx4Dap3XiMyQE/MQ6xNrUZ6LkCfrDOGQpeYoLfiQsahcGolFNjtRGzgbnU7BBoiDKB0GejDFziTM5iYPvPofSuN60MVOmqTNpE9ehNEfu6Sju7nK8h9CMfLbh7vi6q95Xbr5mzlt5NlsSwcwm+pnPvC+mWy0+e4Fyic23iie8EdWmsTZJbucHLSvucHcKFdzX9KmSTbE9AkWARYDbzpBJjc2X0xu9BX6D32XOMSlD7kh55myWF7y0iQe6dnnSI+0MaF5OaH6TJmIY9nwJz6TLHbc6beWh36NO/nhB6kbfpRjJF/SIg/qiUl5rFOW08NGpTJN8xCmrGAeNnRP+8jMemlW+11xznOPf8HjO0/IWAUu/Sr//c7xR1vWQ7k3oHLc7jMH2C9IizmOvMxvFL7ZHJH+4rijP9KXmCfoz8xF+O/bp3K8M5fVvr6rf7LeME5WX8H7qI/YeQNqH/c5j8kkP8lrd/lDzC4F1E0oRn5J5EUbMJ8wZ+e+x72VaxnhnAMk+x7CME/QFpi0K27GJS3Xg1Hb1DQNo5lustYNf8Kl2xozbqaLvT7XNPfN46Z8CBiVJctYiWxyzaDtbyKvx46RTOiTjC/mT+Q7r++DcLt4ytiqR/rt4kPBPmVjHLFuMq4YX8y7a2Pr3DGq84jIBzJGOLcgP88onNs8H1VZ5hpwHd4HFpVLI7HIZidqw2Vj0nnoICxskE6kHbLJoVNhstGBhJEZdhcNzyaMDRN2OijpM+ixr6VJHDfAWf59WDEKsw8Tu/zFKBwcYRQOutnW/JkPPq9YkvnqAZvu0asHV5RaEyvSr1L/alb/Y5A2pr3ZBLAYQCYy+gj9g35QfzEmHnbCqKzBP9M1LO70MRU5pEnf9hmar1QJRhgOARA7eRGXydfDgf2ZcpoWZvp7KMzyQdzwo/yExySudYLka543ncgrt5D+2jOu1D1NkPZjwnw3uaKA4mD8hr/4FfPrebzeSr/itiDM8YKcYSqg/vSf+GNzO9gPnZdsk1HZqhtp0SdoU/pk9ufksZBpZj7Ya/krca9+xqmsefls/MzvJrwOanxMyrIm+yxrQj/j3AcsYzLnN+YL5pNRuBGrDJjD6OvMYfZ13AlT1xPoejOnMSug3rqtgJrGpfVwbfP5Mp3FDehe10Pyfebt757XvlRA+UNMroP7MuUwovCZ8LVPIy9kiOyQI/O4pH1cQ2gn1gU36uaNSRq5PyM9npn/ads6/xyDYuSXrGES6X5d7pvOPuEeGtbKlu4j0u7sCdiTYNL+u/rqGh87qjwcw4xHxiVj0jnvUJ4qtupR/XbxIWBULlhB27NustYxVzPP5jy8FffckHXdRWXjGsT8xLhhDCFLyB4XebpGGbbG1S391njXWFQujcQim52w0UaNSmOzoWHwSTc7KIn8pQ5mmAy3i3Q+mHHTzfTJi/C4qegyvr/w1fKPeKoY1SU329qhG2tuQKFw8sOr+auvG2/NZMWW312C/khbs2lnEmOTRd/AzV+I1yYnwrKpx8yDV05qpm+69kGeVbBih+TP5MmCBHGjXMTTTv+kX+pOWtgdO6TBM+HNb60fU7aRAirt1I/0UJYY7zEj5bfKFQXUM5/3uRfvfOob5tfzeE2PsBysc+xA+o2kvWmPK4fyPW9AVTfSUgGFnfbPsMdG5u1Y0I5p+a1rhk0/TOLCfE7/NCHxdbsN7gvC1nLwbF30sz7W03DGkel236AM9EfmIPoUc8aaAkpUd+pjW9e+7vxruKx7HS+8frfzBtQybmpayZR/MpVPcF4D3/jWixe/5KlZAfWip75pVkD5Y0yND9fyhOSJPyYyZWPNPol5nTmcuZ353Dlf5ZHxiYu8XFuQI2S80y7O58iVNFzfskxZhuRauRung612Sz9pm9MX6S8ooOhD7APoExlmXz52jGSCLBmXqYA6VK7N0yPtzlydCijcAO3vmvjYUeVWicwYM6xnrG3uHzyXuU5KwuZzcmvc3TUWlUsjschmJ2y0UYPS0Gyu2GyyqcKEDEYGIaQzQd2h4Sr1T478eM703dwZjrJkOPzprLX8I54qRnWBqXzCdNPtxhulE7efeP0Ok1+D9a9pyYotv7sE/ZGNOH3BvuHBZ9dGgA2ZvyjXvkJ8TUja9HvCkb7P5i3pf/ZFwrDh8zBifNLDnvFx59n+i5vh1+phOpSfiRuTSZw6MXnzXBVQjx1VhkPyGmsooCAKKA7C7/7Ol13exiDsaNzQXpL2dFGlHWx/wmnCUdmqG2nZptizX9wGMm+Y5dZOGVQWjeplWP01axhMN23VP5l1rs9bfpX7grCUZS0ty4q/TL8MW3nfoAz0R+aqVEDpNyprulk/68y8xdxTFVD4p0LR8XI5dpbvP6mA+t7P/H1DBdR7n33vnEbKm3SS+KXcDcM6iN08WfO4BczNJ5RQfAeKH2TqWmh6EFk5fjPv9EcGHESpP3OwRJGEbJgL8GP8EifTID7zflVW4cb64VqScjW+9kxzjY3Tw1b7pZ+0H2DSh+x79K3ad/blY8dIJsiR8Y18Ga/5Gv4o/LlwV/3Ouf7UzXHFWsfczhztmMu6P3Yohy0iL9Y+1jX3uL5FwthCzq67uf5iptsobXgfWFQujcQim51Ya0RMGpqNEJ0CsuGi03joZiDSkaB+lcbdYg3rswdzysGmrIaT5E3HrPUY8VQxqksqnrTDy433B943b7S/9vt+8EMb7ze+9dLfjXdlxZbfXSInIkmZXAR8HtGNAxMeG4fqT9xMJ9P2WbumE6mTYg1T08bMAwVmTrKGHxF/FVD+Uk6dVEbBVkBdRZXhkM+9az7w1htQvH7HAZlXhQiTYybHDe0imZuqAir/BU+OylbdSMs2xU4fybDHwrJcPFhkvR0nVQmWboZN7gvDZ57JXfnobjl1fwigHPRH1svrKKCsjyZrbvZ11+lsE+PmmJndGXM7bkChgKrpKFeVl9I2SVoW8nUd5EcY/hnWj5BDX6tFFsyb7DmoG3R/Y50gaSNH6ku9kQHyhNidmzXZK5EG8bLMpEk6+EHXgcoaz+fqvg8bp4GtNks/aV+gv9Bn2RfQHzFr/92Xjx0jmSBHZesNqFG4x8brzEWnQupGu7tuVgVUjq3HDuVQWfsHMoOMn5yv2EuwhiLrXA9tA5lpVd4Hlq1qI7HIZifWGhC7HUQlD3YOQ1UBRTj88TuEpIHphq/641YVUIbTNI19F4NTxaguMJVQmPkNKD9CjuLpC77ypfMvwKmAynSSFVt+d4ksB5MSzMOobhlO1k1Z9a+Tm+np5vPIX47yrm7003Sr/qM0pAooJmlMDkAq1axfK6A+hCq/IcsNqFRAcRCeFVBTOPqZYybHDu0lmYfyUO4iSjhNOCpbdSMt2pU2xZ794phYlosHizqutKc813iozDIuJA+Z7qaLWZUhuNU4DwGUg/7Iekmfom8xD+qXFOlW68r6y2bcvu5B1/pnXHhlzdn4BhSvvuLuDSjCs7aZrm5J3C1bhjVPyDqIEoqbUJisgyijOEh+zdd/43uZPyF1YgxDnvFnn5PzNmnzzLjEn/rD3BdB5utdCoCsT6afdv2w17Qq0q+ycRrYarP0k/YJTPocfZIxTl9m31z70j587BjJhDHvmnwTBdSpYK3sI/dD+ZBRy8q4YV5nrasKqJy/HzuUQyWygsrKtUyTNZK1kzXXD5TXH24Mm+nql7wPLFvVRmKRzSpqw43IBMtgS0UR9jUFFG6GPYSpTErizoJKR8tyaEr8KMOoQ1aeKkZ1SeWTduimOxVQax9f1UxWbPndJbIctLXKJ4l7umV4Ng4qa0YbBydJ7CCfTaua6Q/rYVQartr3IcAk/VZAHYaU4yr3vAFF2Bw30raHzEVVAZXfsjHOqGzVjbRoVxVQ2W+OiWW5eLCoskMOOe50H7HKfB/U+JlfZfql3Xjm/xBAOeiPrJ3XUUA5t1kn1mb6unMOc5MyyLo7ZqBzs6/hPaGAesFHPXEDyjxNT2ZekLpRHw7c7kXYF7De8aqd30L0Dzm4BcWt4K/4S3/titJJOqey12E+JY8sD8/kR70hdmh5DGecjLvmt4uke514snEa2Gqz9JPZpxgHrBfsCzzIXaffPHaMZIIcXZNRQDHekeuhsj00/LnxIdR/qwz4OWYwIeNopIAyvPbHDuWQVI7VLc9qzFvImLUXJRQmz4wxwtsONb7P8j6wbFUbiUU2q6gNJ2lYTRqcDV0qflL5w0aPDkLnUUFEp6nh1kh8aRzjYeK+SwFFGMpIWS1zrVPyVDGqC0zlE2Zu+N10pwLqlF/By3KscW1i4jChsmb0Cp79fu05uZaHfdDnaq99cyuPSsKqgGIR9IDkYQm2AuoqqgyH3LgBdamAWsI6XnLc0C6S+Yj2GN2Ayv4yKlt1Iy3bFHv2lWNiWS4eLJBfyg45KNOUSdpH3BeEzfRzzNZn7D5rtxxph/cNykB/ZO28jgLKumiy7mZfV/mCf50bHS8ogma3+QbU+it4uJtW0vSoB3McdWG/ITkUMic6H1KuH3n6dZev26l48jU81sOv/pqvm0lYSBruYdhzWC/zlrhJy6d9FF7qn2Gybsk19630t9g4DWy1WfrB2t+wu09gnDMe6MNrfWmNjx0jmSBb5aoCCrdDxqNzo+3x0M3b4L5535a51Qb4YdquUOXImgIq03jsSJmsMeXMs3b3J5zTkLVKKNxtk0xjZL8PLFvVRmKRzSZstCSN6QClwVnMOAAx6DChSiMVRIRTQQQNN2LGTVZ/7aRPWcxff8PA0YSwxlPFqC6peNIOVS6pgGLDza+9mKf8Ch7IshxCNmK5IRuFWeOob+WkBwmTk2SOI93Tz+cMt4uUmw2QSicOTEzWHrqoH26tgHoeVX5DLjegXvU7P7VvQD1AUF/HyhaVzYj7grC0U6aX7YZ7PhtWU+rnuH4IoBxu8OhT9C3mE/2SIt2yPpD1140ifX3XnHpl7KCAmsYcH/l/4hW8P/Fn5n+eZA7zgEfekLg8syfgAMjtpS/64r84jzn5hf/z/zDXDzvlUgHlDzH8Ax4myijWQvz5Acv8kJE076xHZfU3TvaD9DeMfrlG6G98qfshbJwuttox/WD2FZ/pu+4NGAeM1UP7UeNJWSND95GpgELmkLGMadiRvYZ96Kblt+xrJqxx1uz3bVpeSJlx157lNCzjaaSAMmzysaPKIp8lcpM8K2vtuY/O+Yvwhkvqh/0+sGxVG4lFNnujNiqkYRlsDD4VPiqZcOPZSRh//a5L0pM+s9mkc5l+DWM5mCRGdag8VYzqAlMJhVm/AYUSautf8C4PBcGKLb+7RpbFSceJyecROXB5A2qrr4zSIG1Y3UfM+GmvaVheF0C4VX7IWKP8TMqYbjKxw1ZAXUWV35DPvWv3DajpwOyYybEDaTPJPOTCSTt4iCVctvOobNWNtGxT7Nk3Kn74h3/44qUvfenFU089NfeRQ7AsFw8W1BcZUi/WANYjFAaS9cHxDJRRjrV9UeOSLvlC5Z/p4kYYxpttrf9We90HKAdlZM28rgIqTdoi+7oyUgZZ/yvjZr799Pz3n979t77q4tX/0WdeUUDxr3h/dZrTSJO13fY1PdJG3hwAqQNKKEwOhsTBHVJPlEtvePanr/wLnjeBUUpZplpemPn5PAq3y28frsXbSm/Nr3H62GrP9IP2vXTjmTWDw7J7gpzD9mHjQ0Aeytk1mfmGOZD56bHQtRCO/M+R7DFoZ8ZQKqBc73u8XIXyUCbaGT+QfTByU3aOq5QldmSOrHkdD5Nnw2TYjIN5H1i2qo3EIptV1AYckQHIJpDJVjIQtbPRYzASTvf0vw4zPnaVS+SV4TIMfpSBTrhrkT1VjOoC8/aTZm74UUCx+YZsunnG3XCmk6zY8rtLWAYnMu2Ytv1a+9NXVNaMXsGDxM3JzbTW0jyEpl3z0C+fRyQMCz/lZ0L20KUyCnsroK6iynDI5TYGN6A4AI9vQL1vDuuYyvi0ixwpoG77BtR73vOeiz/wB/7AxUd/9Edf/NJf+ksv/spf+SsX73vf+xbf3ViWiwcL6ku/Z45HtozhJDLK+Z/wyNqxVuW1BcJmPNY20oaUoY5b3FB0UAbXqdrW8r5BGSjfdRVQdb6tCihvEEHaIuWV44Yy/NSPv/LitX/1qy9+7PM+dx53qYB6+e/+jFkBxXymAkqZQspBGrQNMocqJc03/x7dvLntxO2ntW8hStdQWNsbWv/KKp+HyMZpYKvN0k/a5+iv9nvGgnueeoDbh40nZY38mDc5FDuHPibSn6TPNcy5kbHjvuOzPuuzZjfWOsdZ9o/HjpSF8sBETiqesGvqlrLUxI29CnJnj0FfY43H3zTMp/KusWxVG4lFNqsYNVySRmZjR8PTCZhwNSV+bBLpKAxU/KXhKzN+uo38SdPNPwM//SDhmRwoB2W1M4/qs8ZTwajsyVRE5S0oXj34R69/18V3/NhbLv8BKDfdDvhkxZbfXcIy5IRVyaRW/Xi2H9OPPChmGMMd0n/WyrDFrbJvkXiOA/o8JnXS7vhoBdSHUGU45MYNKBRT9RtQdewkOQznoTwP4R5Q4ahs1Y20bFPs2WcSr3jFKy5+7a/9tRe/+Bf/4ouf//N//sUf/IN/8OJNb3rT4rsby3LxYEF9mduRKxtAiHylh4FUEkHGuGMt3XRXlobBjmk74c66Rjs6pjId8rKNKEO2t2FQhGCaduZnON3lvsg4o7gjf8qiAoq1lfLWMJSpuknLTTqs+/Z1ZKCiTpKPSkHHDCZxf/C7X3apgPqu3/RJF9/1gl90qYDilTz8SIMNJ+HJV5KOsktmmAzrmOXHl7wBlQooaP0wb8qbpLPWdsdg4zSw1WbpV0m/Yyxgd4wyzp0fHUs13hofM0byQHbM88jTs0eeWbCfM6kj8z2mddc9w50Ts22pu+v8qH/Ax4yRLLQ7LyUZT8xJ6acdEzkzb9kGdY+1z1w2wpbfdbBsVRuJRTaryEaStUH51cRDEHTTL1UQsdlkQjJMDTuKq3v61XCkSadjI0te6WdYTMrIZvWQjilPBaOyV6YSyo01Cqenvue1Fy/6B98/myih3HArr0wDVmz53SWyHLU8I79kVUCl31b8ilEYKEZ+hzDTED4zDig/4wJzTQHFWKhpNMbwG1AqoOCaAgo6diDzTNJ5kHkpNyqOMeelOd8lDVndqgIqx6nA/hf+wl+YlU9/+A//4Yvf8lt+y8UnfMInXHzP93zP7MdNKPrC93//91/hO97xjim95y5+9Ed/lMXzl038ufOi8bN+1i+a+C9N/KiJP3viP7c8/7MTCfcxE//xiT9v4j8/8RMm4o8dN4D/vzDxl0z86Im/auKHTyTtX7PYP3Yi8Qj3YYvbr5yIP+H+sYkzqAfrEHJA+cQY9kcPZIzy5zM+4zNmWeGGoohxgsyoO23gM/GMyxwA8ctfNJ0TiUs4whOXMKSFMsx0GH+WCzv+pEl5DUNcN1n4ky5p4U44+wjM/rELxkmuuVsnSL6UWQUUbtabcuKW7pbJdPBDLtbdNdj1H5O08UdWpOlaZBoffP2PzN9/eudT3zDfeEoFFEopFMJvf9Pha3myroMooPgGIsonzHwV/VI5/J53XEkDVuzrV7mP/xYOCQsy/L5xGqeB2rbQcaLJ2GGeYRwyRpkfnedkhk+m22NGykA76wXzNvOo6wNnIOf7cyV1VJnpuS/9Muw5kraGtL9jZ8THjpEs0i39Ru45f0HkzT6Pfsfej77GnoJw3qDKOJkWrNjyuy6WrWojschmFdkQlfrT+Aw+FjE6QZosaHQGJmM21brvS8Jvxcn06XDYaxjj4+dGfrSgbvFUYHndWEs39tx6UgGVm28UUF/1rS+7+Py//PUXf/WbXnGpgJo33YMNN6zY8nuIyPJC+gT9RAVUvoJ338hyitEzdaCPU/5WQB0PvoK3jwLKsZakXSQblCcUUMsreLk4zvlGGiM3Nri2KXbSyLDgLW95y8Xv/b2/9+IjP/IjL/723/7bF3/0j/7Riw/7sA+7+KIv+qIpv+cu3jrNm7//9//+i4/92I+9wm/91m+9+M7v/M6L3/E7fgeL59+ciEII/LGJPzbxP5+IYuhPTPyJif/rxG+e+EUTUSp9+sT/feIPT8T/qyd+6sSfP/EjJn7d4vbXJn7nxP9w4v9r4o9O/J8nfu1E8vm2if/viV848bsn4v8lE3/1xFkJpVyRKcom+rwKEtYn3H/X7/pdl2sBm2PbgGfWL/yQI27QjQxyxY84jBnSzLXMMUZYDm+k5Sbc9FB+mT9xCUP+hsGOW8bXn/RZ3+rGaR9k+Iw3crfvsI4iS8tF/VESQezKChM35Wz/Jb4yU8bKk7pQN+RlGsYnb8cOac1jalFC8c2nfAWPf8Fj3Fl2WNe8Xcz1T9ZvIfoquuWaufzZAGw0TgGXfXdAxivjkPGehzeYc06df2TjQ0i5IC+pPJXpvuYpkLJKFQHM+/QjntMfjtIY0bD3be5Dwmb43IeN2LgeUobI2D0HZI/kXpg9hnsmmXErK7b8rgv2qY2CRTaryIaojaEbjcsmks0zZNLRzgYV08HJ5juJv3bj6W5c3SoN4yRH+tjxyzLwjJkb3V08VVj+3Iy7edZU+ZQbcBRQKJ5QQH3ly151qYDaklfFlt9DRJZXcjDyoESf0v2+kWUUa8/0c8rPJgCTOml3gvYgXNNojFFfwTv6DahFAZVpzPnG88iNg75tij3Hq/iWb/mWi1//63/9xW/7bb/t4sd//Mfn8B/zMR9z8e/8O//OxU/+5E/O34eiHF/6pV8635B6wQtecPHLftkvu/je7/3ei3/4D//hHHdaKr5rIjeRwOdNfP/EPz3xn5n4P00kzI9PxO//NvHfnPgPJ/79if/lRBRL3z7x/5jIjShuT/3QxHdN/KqJKLP+1Yn//cT3TkTx9P+Z+L9NfPPCl078kxNRVj098T+b+E9MvKKA8gYUG2AOVvR/lFK4U0/8fIbIgw2LihJkqR0SX3831ZiEox1VFkHcSc+4xkP59Cmf8ilz/salDJiZH/7EsWy4kT/r16htd8Hwh5D+6IEUkr9UVtSVZ8IhD8pGG/CDBfMmbrQHYawbcQmPu2t7rsk5ZuAHnntmGlevmcfdlX/Be8FHDRVQNyF5QxRO/huer6HDy9tPcvlRptE4FdBf6xoDGX/sBRifjHdMxqd76gyXz7LxJKqM4Ej250TqR59hfXMtZH633o+h/iP3ERvXQ5Uj6zJyZ16i77G/oO+5l3J/sattKrb8rgv2qY2CRTabyMbIRsG08XeZkPDa5Vb4SvxMYxS+2teeMa3HiKcM65AKKJib+5ECik23CihfwWMzjrzmeDd87eAhIssL6RccmFRA9Q2ohkBGeQNq6xtQMMcbdP6BQwXUFKbOTeabrG5VAVXjo1z6wi/8wosP//APv/izf/bPXrzudc8rT37jb/yNFx/xER9x8Y3f+I2XHyN/29vedvGH/tAfmj9S/r/8L//LVJ7nLr7t275NBRQ3j1IB9YGJ//XEVEB98URuPv2cif/VxDdN/KmJL1uIEonbS588EQXUKyb+wMR/eyKv5MH/biIKKG5T8creJ0783omvnYhi65+e+MLlGQUVz7MCivojU5Q9KG+QCWMZN5Q9mGxQMLmRRBiUKSpJcOMZ+dAuxMUNE3fSQNakYRzHFGHIj3Dmh7vtwzPlciySLm7YjfPJn/zJl+kQ1jQ4DLqOXc7HS/teB8ZPZr+hP1LHrFMl5UJG1M9NHnHtw5aVdEiD+jnn5KYQsol0vGBejh1uHY4UUIMbUHW924cZx3xZB7n5BF0DfQ3vMm6shY3GqcA+61hNenhzzmQOxM15wTHtc7LxIVTZPDYytzPPs65VBVTzQ2xcD1WOOS9h8sMX/c95jL0281iNV1mx5XddsE9tFCyy2YlskGQ2frqvTTpr7sTPNNbCJbNcxt8Vb58wI54KLG/dXKep8skwuLPR/trv+8GLP/u/f8PF1//gG+dff9l4I69MK1mx5fcQkeWVqYDKieu+kWUUa88s+pRfpVMroG6O+g2oQxRQzDfJoQJq+Qe9nAPnfBf7mltVQNX4b3zjG+fX737ez/t58zegftWv+lUXH//xHz9/iPzn/tyfe/E5n/M5s+LpXe9618WXfdmXzf6f/dmfffHa1752TuNABRS3k37BRPA/TnzrRG4yfcPEv7vwL078tRNVQHFDihtR4r+diALqcyb+wom/dCI3p1418d+aiJLqd0983cQvmzjnR725co0c/r1/79+bFTzIl2dMN8T0edxQPjHOiUMbEAY3NyxuZLi1RHhlTDjsKGGwq4wifdsUxZFpk5btTfoqrlAwYULTpdzE45nyk483EVyzqKdtfF3YP5KmD7PM1BM5QOSHO/2MuiEjwloey5ZlJCx1on72dfwyP8MzZiAKqXnNOUABBdfWqV00X8i/4OU3oFBIWaZR3EbjVDDqvzmvMJ6Zn5h/GPfcUMTfWwY1rnzsGMkk5TWS3Zr/KdrTLRVQOd/XsIbfZX8I3Kec2qs5YuP6qLJUzu4pMNmbuD9jD8W8lu0xapuKLb/rgn1qo2CRzU7YGGsDi4avE01t9LW4kLhutOHahs80Mq3qln7H4qnA8tbNOJvo9JP6oYDiH/C4/fQdP/XO+Rn3LVlWbPk9RGR5IXVNBVTfgGqIm7yCB2kXuaaAwi/jzPnG88itKqAyDYCC5BM/8RMvft2v+3UX/8V/8V9c/Mk/+Sdnfvqnf/p8K+q3//bfPr+W95KXvGQOgxLk27/92y/e//73z/FDAcU3nH7jRL4D9VcmjhRQfAtKBdQfnfiGiXzf6ddN5EPl/8bEf3/iL56oAuobJx6qgOLbUq+f+BcmzvlRb+qPHLz9hMIEIgM2JciZNQa5oyRiXHDIIgxuxHNMEI54KIocL8iZeITFjU0O6eahzbSZQ7y5lAoo0iEMcsbEHRLeMlkHymWZIeWyD9m+14H9Q5qeJnlSd8pEnZBrlsO13vDG1T39kE/t66ZhGO2MGTmne6AC6lDmGmm+/PCy9i94GVc2GqeCUf+Vjl/mKsa88yfj1XEqCZfPjxkph2SV2WMh/YV5njnf/jMK95jZuD6qLBlnKsjdR7C/cE/HHoa9TM5Zdf6CFVt+1wX71EbBIptVZENskUbNhqUTsLlnA4odt1Qq6Q/dkBof0wkcM+2YpsPzmqLKtKyDca/LU4HlrZvrNC+VT8urBLg/84H3za8cfMur33rxyne+71IBZRr52oGs2PJ7iMjyylRA2W/hfSPLKNaeWfQpP5sAzFZA3RzI6FZvQE3hct6D5pusblUB5bxnWP797qM+6qMu/tSf+lMXzz777MV73/vemfzLHf+E9yt+xa+4ePGLX3zxaZ/2afONqI/7uI+blSOf+qmfevEN3/ANFz/4gz8426el4t0T+abTt0zk9hHfgNpSQP2LE/luFEoolEz/v4n/YCLfe8LvVhRQyBTlDTLJGzrKFhNZqewhDO2BG7eOcCMdNjC0EW6YhMGNtH19jrC0HSbxCWe7QtyJR1mIhzLLzbk3tDjs4Y+b45L5Z6SAsh7ZvteB8ZOuo6RPXmzaKA/lowzZL9OexB26IYRVAVXbhHiajJm65uz7Dahc765D8+bG04tf8tSsgMJcVUAt62GjcWqwD+dcAhmvjHXGqfMZ8wDjdS0OfMyosnjMpG/Yf+g7rl/0q1H4x8zG9VFlmXsO+iDkxz8V6eyv0DNk+IwPK7b8rgv2qY2CRTaryIbYog2v3V+GaXx/Cc6w+kP97Rh2KMPm874cdbLkLv/KU4HlrRvy3ECrgDIMfiicvveZZ2cFFOYVBdRA+QQrtvweIrK8kD5Bf1QB1TegGoIxcNs3oAiX8+Sc72Jfc6sKKNLPsJ/7uZ978Vt/62+dbzjpBvg2FEqO3/ybf/P8b3i8pocyKvk3/+bfvHj7299+8XVf93Usnn97It9retFEvu/Eq3O/fyLfYOJf8fig+H888Z+aCPgO1G+dyEfEv2ci/i+e+Dsn8i94Hz7x/5iIEunjJ4rPmkg+fGCcf9j7RRO5RfXUxH9lIv969zsmftNElFXzN6BcU5CDyh83v64h2hnfKXvHi7eb2LgQhmfIRlpFFf4qjzyckQ7hiafiinge4oyjAgriRxj8zQ/ix7P5UjbKDFXcZDvugn1Bjtyg8sGeCijkMvfPCKd9jZYXVgVU1se0Mk3Hzbw2HaCAuowTz7uY4ckXooCqN6BYC3P/MZd3+Se8RuOUkH2YMehzurmmMGYx2SfUMQsb47n0sZL+wTrJPM+c7/o1CntudFzk+Nhi4/qosqxrM/2Qfkf/c1/lLai1dqrY8rsu2Kc2ChbZrCIbotJGtGE13ZSzgfWX3Gx87PizyWaR0990sWf4SvOqYXSvYfS/Dk8NlrturtPEzw0+csKdTTbKJz5E7i0o3OfBjQJqoISq2PJ7iMjyylRA5S9/940so1h7ZvKl/GwCMFsBdXPcxTeg8Ms05nzjeeRWFVA534Fnnnnm4umnn774mZ/5mfk5Qb78C95b3vKWize84Q0XP/ETP3GF73jH82Oe70NNSwUfF+c20gsmcuvol0zk9tPPnogy6eMm4s6z+LkTuenEa3v4E/fnTQQokvjIOK/moawS3noybcKR98dMNC5KLp4/cuKcH/WmP9PXkQcyVha5DmDWMBBFCW60iUSmhCVdZIXp5pqwbLaJSzq4Q1/ps31JI9NjI8QPLoTVD5M5h7zwx0QJRZlS6TTqH7uQ4TPeyF1ZkCd1olzUc+6fg/DQMmkSH7smda19PcNissZgr+vU8/+C99ZbewVPkp9EAZXfgPJbiJYJzuVf1sNG41Rg/5WOP+m4ZIyqgIbMZ851hkk2rqLKZySzcyV9xzWSfrO1dpwTaWPGx9oYSTZuhpFMlbntwB6GvQf7F+Yw9lTMYWttU7Hld12wT20ULLJZRTbEGnPw8awCCgUTr3NgT39M3FBOpYIKsoHnIAXz9TzzqmFcGPVjwjMOBwbTMP6hPDVY7vprcG6gRwooNtp8/4l/wfMj5Lin7L2lISu2/B4isrwQWTBRqYDqG1ANgYxu9QbUFIaxhr9xzDdZ3ZgDbVPsNf6xsCwXDxbUm3kepQ0bD2Sa64J2wuGfYXDDZDywFjFeaBfaifXF9QSTZ+RMfOOSDs+uNYRJpRRpcqDDjbCGwc0w2FV0kU4qn8zHdj2kbTNOxh25mw/5egClb1Em/GsZZLpjzzIjF5Rpta8bh3CYjpcr42Zan+7rX/C+80d+cjb9CLnhLK9sNE4B2WeTdexi0seZnxj7jFvWKuYD5oUMLxsfQpXNYyPzO/P8Y1NAHcLGzTCSKfNS7jswsy9C9l91/ZYVW37XxbJVbSQW2exENoiNks/ZsCxUNDwKKP5aGrsdQ382+amAYsHDzNcRnMTwI77pGgZ/FkkOBPhDwpM2JBzh2dhn+bZ46rAedXOd5poCittPKKC+8mWvuqqA4nWDwQ0omFhzf6iwrLmpoj95G4H+Zr8ShhM+PyQy8VIP+j8mdVGpBlMBRd0bu/FQ/gWvsiqgds1z18WyXDxYUDdk63hV1rqnDDJMygs7Y571hjYxDH6axs14plNJWqST80imxzP+hsk8tEvc8nlfZJxR3JE/ZRkpoPZhygI7Cqja161LrVOOmZkooJ57Zu8bUNdRQknyhiicIOufa6Ak3FzmWAsbjVOA/XWLjFdfZ2EOYD1x7DIPqBTP8NW+K6817BvuoaPWI+sy8js3Mr8zz3t2O2Tt2KL9K/tcZfq5toz6aOXIXbeaDmauWxk3w2im/74k/V15VCb28Tt1ZP0kMkv58Mxem3OQZ57cZ+3LY2HZqjYSi2z2wqhRfKZRbVgamcauN6DSPxVQ+DNZ0Ul4Jh7kuxkcnP11mHAshvpjJzwdzF+0dTMM+bBw5oBOnhusV92Mu4HWb6SA+qpvnQ4dyw0oPkiOu6/grQ3aUwblz36J3cM8/YZn+mpuuqSo7rfNffJkHFAPxgX1wK4Cimfrx00L6tjYjfkwfE0FFKSPyTUFVB1jc77xPGJVQNU0Kq+LZbl4sKCMo/ruy4y/S4ZSjPx2MeNlfiKfq3mbIA/mO/oofYq+deghIudU1t7s66SNH2FqPHhl3DDmDvgGlEyM/GWukeQLed3OW1CveuNbn/gzjto3Go1TQe2v2Y+h4xYTMlbZl7N3YPzmXrrScWH8Ok7kCPuGazxs0G6sFczzKqC29s5bIFz2IfpUmiMa3j4pcVexmmlm+Oqme8bdlWYNx7NhcTdsfc4wmMjQdRI30zNshsduWkn913guGNUtid5gdOYZha08NpataiOxyOZayMaiURlwdHwGD5MQCqBUQOXmEzcVRXQMDsuf8imfMj97c4NOA1FAMZkZnsmN+MTDTSUUiyMfev2kT/qkORwLJ/G8QZXllecG61U312mmAkp3b0B90d/8B/MNqH/0+nfNm3HTmCe08goePGVQfvqFfQOTfsRmi/6X/TVZJ3fDVPf7IOVgAaMejBPq4VhivDgZM376BtT+4AbUdV/BQ8bJoQJqClf70JzvYl9jK6Cex1LMxg1BH2Heqwoo/XbRPu5mfKSA2nuuRAE1ugG1oYCqqP4y10fIeIUon3j9zm9A+Qpejmc/QA4bjVPBWp/VHTI2MRmf7iX8cVglFD/2Mo4dyxm+uuunfQT9ko3TA+1Gf2GeVwHFZyx2tf8IhCVexq3UbxQGN/qgrP4ZBvtaWJ8zvZpfumHmGpfxYMarcQ2T8XXTnuF01y3jmX6GT/dzRNZZOn+hC+BMxB4ZWYzCrvFYWLaqjcQim2shGykHCwOBSQglEMog7PoRFhO3VEAxYaGsQoHEQqcSinAesn7Db/gN860oFkP8Ic/EIx3CYee1PzoczyifDl0QTxnWa7TBTr9LJdTihgLqm1/59OVHyHmu//4z4imj1oU+Ql+k/9HHOITRf1DU0Jc4TEHs+bzmdl/09RlvPamgUAHlRpJ6WffGNpDRbd+AIlzOU+a7Rfqc7Ys957YRr4tluXiwWIrZuCHoI6yX11VAQX+Iws58VBVQ+GWY5JVxc6ACivWsIv3X+DMffP4D6BCFU/0XPP0u4/DDzfLjTaNxCrjsu4M+m36QNSjJHoixy3zgnMC4xo8xnGFzr51+PK8h85aN0wPtVhVQ9Afcnev3hf2g0j7lvhyiEIWe9QybfS+Z/dJyaa+m4Q1jGpC8RudL7NK0JGENDzO9DDt61g7TD3vNp8bXTROeE6xTJfVlX4yuwAsp2Uf24bGwbFUbiUU210I2Eg2dHZ5JqCqg8CcsHQA3FVDY/ZWFZ8mmlcUOPzqQCij9IGnoxqKIAotnDtiWRWZ54TnCuqVyyc2z5qXyadpE0ya4o2z63meenZVP3/FT79z56oE8ZVB+62X/zH6o1pzFFJO+CLFX6rcV5jaZeXrgo/wqnbQTjvphZ9G2/o1tPJR/watsBdTzWIrZuCHoI6zP93UDKsfNrIA68BW8iuqfrGskRAH14pc89YQCau2HmEbjFLCrz6Y/dIxiMmZ5dYXxy5zAWGb/wNh2PMsc/+lmumvIvLfCNR4mbLeqgOIGVM6d+8Lw9iWf6U/sW93vkk8Sd/KlHNn3sg9iz76JOfKrrH6skdSVfZfjgDT0Tzv+hKNsmKPyUU/zGD1nejzrt8b0TzvpwHOCdRqRuYv5ynMPSsNRuDUeC8tWtZFYZHMt2EA5ODAZbAw0FioUUDR6LlTYcVNxxCBmMSMO7kwkuOfrdbihgOKZjsSBWpN88CcNlVrcAjE/mWWV5wbrlZtrmBv7NQUU331C+cTrd36AdY6z/Np7zq/gSfoQ/Y0+RT+ij9rn7G/2vep2F8x8R/mnu4sx4ws/xhZu+GHn1yPHRWMbN3kFDzLO5FABNYWhLXJ+mvNd7Gu8KwVU43GAPsL6fF83oK4QBdQdv4KHwmntBtTlQcj1cGKjcQqwv9Y+m+6ScekYdV/EuOXgxr6BeYHxzNyQh+8aB2aa2hvnBdsVVgWUexvbf1+Ynv3KNHjmbMee3L25Zz7dsJu3/TD7X6aLaf/NPAyPPUlY0sWknpwVyIuxYTxM09LEfxQe/8yn5ln9TB9qpyw5BvU3fKbh87mBOq3RPskZCPmzJ1E++/BYWFQujcQim71QGyWf7dyQwcAkwSKFAoqGZ6EyDIOPjuAEwqJGB2FBIx5kkDKJEZ90WPR4tQ474UmPjuSgJi6bZicg0qAcluly81h4brBe9dfdNFMBpTu//H7Hj73l4qnvee2Vj5DPaUyH77UBe8qwDvQP6geZrOxX9Cn6kocn+qT90z6azw+FlAvyS5F1YQxSH8hYwo1xSN0bu0E/ue0bUITNcWa+W2wFVOOYoI+wbl5XAWUfd70dKaDcB9S4MMfNoQoo1rSK9N8i+boOpgIqvwHVCqjGOcE+LB2T9HPs9VDLMz9aMY6ZG9gbsfdOJZThMDPt+tw4H2S7etivCii5LzKOfce+Rfp8L5iznvtaf1ylT+LOesNeOONC+7J2FabaMTNf+zL1yD4OWdvcZ+NX/aFumJSHsud4MT/LpVn9LA92ywwpl3b967NpaIfnipSXVPb0SYgdtwwj0q363RSLyqWRWGSzF2qj5DOdPe0MShYnlEYomdzMMlEwaeDGJEIYOgTuuDFx2FGwq3RycjEM8YiDnbRVSuXkYyerE0vy3GC9Rr/wpt+lEmpxQ+GE8ukLv/675u9A8S9Al3H46GpsupOnDMqfE3WaKGdYXOhL9EX6s4sQpuRZN656pt9dspZLNxZJxs6aAurU2/CuQP+/1RtQD/wVvMbjAH2EeeO+bkBdGTcooO74FTxuAvMRcj5AjpkKqMu4/RHyxhngsj8vdC8EGadrz+wbGMvMD+zJ2VuobDBMHdv1uXE+yHalD9A3mPPtE873h7S76WW/sR+SPudC+h55oBQlH0zWK86InAOxs/6wlqn8geyTCI8bYSgrJs+4kwd20jYsbpA9Pn6mm+mRP3E4mzImMHkmHq8iGt58qI8KXcJaDs4a+BGGfCwLZ1zDEcczySgdwpIfeY/WWXiOoF7II+uJDDwHKTvklmFEulW/m2JRuTQSi2xWMWoQKNKNhrez08AMHDaeKo4wtUMWMDoGYRlghq10MGGmO+FJh8FOXgxC3Hh2EFMWyqS9lvncYL3q5jrNqoDC3X/B+4KvfOmTCqjpIDC36xm/goc9J2omLfoc/QnS9yCTF/SZfgt10/+hkAWJ8jPWKB+TMHb8WgG1P279G1BTuJw/4ZzvYl9jK6AaxwR9xLmPPkXfon/qt4v2cQ8crO/Z10m79vNVooC641fwUEChdJI882+w1mdm/BjTaJwKLvvv0m/zWTIuGZ+O07Q7trGzd2DP7dh2f8G8wXxBmFH6lY3TR7Ynbc88T79gX+zexvl+X2SaxsWkL5K+fzxFf8NNP/ogZ0K+Bczel2f6Jn0UcjbETXfPkp5HSVtlheufeaTiFZM0SM84mOaTZ1TcSQNTBQjhcaOM5g+xE4axxX6OsFl+w2KnbJx5Oetiz3wh8UhH+aRMzxXZX6TzFe2FbDFRJK7JJN3S/aZYVC6NxCKbVdTGkCLdaGjphMAAYHAwUB1EdgIGmOHpIExYhMWf8A5WOktOAIZxEJIHfk5AOfFBykIeWVZ5bhjVEeaBuCqgIDegUDx9/l+e5PuyVz3xCl4drPKUUeuSfQQ7kzv90AmdX1Wc/CWTvBy53QbNI/NKt0rK7lhifOCGnTFjfRvbQEa3fQOKcNkHzXeLrYBqHBP0EdZR+ih9ir5F/9RvHx71BtQtvoKX6x/5QhVQfPvJ208ooGq5vAXVaJwCLvvuwkT1Y1yyDknHabpBxjLjmz0FcwX7DA/k7J3wz/gjNk4f2Z4jBRR94DrtbRz7DyZ9ivR5e4a9OH2PtYp+yDmQfsg+nb6IH/0RZZVvxlAulD4qfAjvj7SGIX3WPdLIdcv0TVvlEWGpq3lj5pjAVCakRzzC82w5PO9aDuOQNs/57/D4EYe0KRN5YScc6RCHsLgRnrFYx+A5IutXab9BxsjnPmSyqFwaiUU2q8gGSoqRX5LJh0kILS0HJCYL7HQIOoALlHYOxfhDFE+4GYb0SEutLyR8poE/aWcZjDviOWFUP3hl8zxx3njHr7j4q4DiBhSv4vGPeJfxBjefZGLN/aEiy5u0L0IXNiZ5FwHsuEEWEu0PgZYny4WdejBemIStg78CNHbj1m9A3dEreM3mLrJ+VgXUKNyI9vFDbkClvSp6busVPJVPmuQLUTrx+t1Lv/37ZvON73rbpd9l/L4B1TgxXPbdlX5b/aF7IJ8Zpzl29Wd+YJ/hQd5DN/sO/Ewjx/kWGw8DtT2yjdZIe3vQt/1ru+8LwhI3b5+qSECpxJ9S+a/nKGQweTUPN8Kw9tAP83U93FHSqOSh3/paHX2XdCy7z+yVyReTZ9xZH+nvPLNGki55kBfxPeuSDjQ8YQgPTR93ysq5lnSsD2FIS2UbfuzhSdu4uBGfOJA4hKE++JF33vbJtjgnWKc1MgchC+SJvJCR81KlqM83xaJyaSQW2awiGyYpRn4wke610UeLUh0k1W+t4yRrPJFu6X4OqHVLsoH+mQ8+L7f85Vc/XsH72u/7wVkJ9c2vfHpWSPFr8BxGBVR8+0Im1twfKtbKy3NO2PQ3JiwWDyYwFgvc9JMerkZ+x+Ih6RrWTaA3CFm8VECN6t94EvNh+EgKKDYQ9CPagfagfQhnmxlvznexj2habmzYUNGuks1IPjebu0ifoT+xSadPYa+HiLRXerOJvszzSAGF/23cgIIV1V+mAop1kXyh/4L34pc8NSuhvAVVy6W90TgFXPbdPfstYUbj03GNKR3vrEXMIY535hDmD9zwcx9inJq2bNw/anvk8xZpY+Z52t69zaitd8FwNW4qoFD2oIRhnZL0OxUMKHRUNumGEoJ9km6Wjz7J2kd6pKFClWf6c+6zCMde2vCYqZAiDHlA/MjXddD4pmVe1AsSDjf8KLtlxc1zB2XGj7yQRdYJN+ykjx9xSDdlCM8NtX6VyM02pR1or13zUPIYWFQujcQim1vFVoOuPa+FWTPF6Lm6nSusayUb7CeUT8smmoMAm2s22tx6+pZXv3U2X/nO913ddA9YseV3Ssg6aLKYubCwgDDp7yIT3n2Ykud0YyPIwkU9sPcNqP2B8vW6r+Ah4+RQAXXNV/DY3NCWtKn9k7Qxm81DSZ+E2umfbmDpu2mOiJ99GPtIAZUbv0zrifXmQAUUa9sWMl3Dux6St+vg2r/gXcZf0mg0zhlX+nuQ8VvJOGZsczBnfWOsuw4x9tl3cOhz/BvHNNPeuH/YFrZHPlfmXK4CirbH9A2VGmcXDFd/0KD/kK63gtiL8+x+l/WGMhCevVEqaigL4eiP3haa915TuuThPgp/+irP2CF2+jL+pEE5VDhhki/5Yzccfpi4EQeZ8IyJm2kTz3HBOcP4mJCyUg8VUIQlDevFPh7TeNJyI4faBueGrFul/Qf50ebIjvawn9h/t3gMLCqXRmKRTeMMMBo4UAVUbrhnToder7dy24lbTyqfeL6y6R68hlex5XfqYJJnQndily4SMt3v04QsWjDdLL8L8rm217GBjG71BtQ1X8FjM+JmCZKerM/Nx8m1fqB7NbWzSXPTS1+jf7perNENnXGIn32d/mo69vfs91fWHBRQN3wFL5Hhci0c3YBCAcUtKJ7rWFaB1Wg8Btj3k4xv6fj1mfWMvYW3QthzeFj20AdrmrJx/6jtkc85Xydte9o5D/k1/L4gLHHtL5J0ec2OfmUetV8RD8UL5SAcZcKPPsl+GKUOfuzrcSc+fZV+yp6ZPRqKIezEl8RVkWp4lBq4URby8Udf4uJvXpaFeMRxP85ay3hxL4cb8cjLNLBTJsJA0sKduJaVPDEpA2l7I8q6K5dD2+EUYJ1q3Xym/vQHFVDIBJmv9eXKY2BRuTQSi2waZ4DRwGGTrfJJ0w009AYUCieUT7yGhyJqOlLP7lsHjootv1OHixcTF5M+E5nkOVn97ssueXbRo/wsVEy+LkqN3TjmN6CGCqgpHO2RC+Kc72LfIvFIgzZ1MzYiG5eRe7NJ3xn1n+yTaV/rm/incmmkgKr9PJnjZlZA3fAVvMRluGX9Uwm1pYC68mccEyl3yqDROHfY95OMAcYxrM+Qcc58ogIqD+5rYx82HgZqm+TzGmlX1gzmedqdfabzfYY7BIS3P9m3SN/X77w9lH2KMDyzz6LfqYQhHDeMKBvxUdDgzhqFSTjIekU4+i/7Z9w+6ZM+aQ7PHhp38lAJRHrEJy/WOeKg7MCNZ5RlKpN4JjxhsJMmfiqP8ON2F2OGvMyDMN5koh4qpggDSYuwjDHCkQ7+1rG2w7nBetW66UZ/oE2RO3LC5DllkmGr2zGwqFwaiUU2jTNAHTSSDbbKp1kBVfzZYPOqAd9+etFT3zSb3IJ64u+nCyu2/E4d1MkFlgWIST7pgsUvKtp9hndpr26Uh0UWO+V3MXKibezGQ3kFb+QmbU/NfXlo+OZ50X6ZiiPnB90NN9qwJY1nWje+AXUbr+AtYV0LXR/JG4UTHx9HCYX5xCt48eNNo3HusK/b37UzZp0LRqaHPca9B2wV2qZR2Xg4GLUPzLnaZ8h8TtuqgGLOR6FimxvOeLtgOONiQtYP0kexQt9SqWk41xWe2ZdTDpQ5KsMg5SIuChr8tJtmKs5IHzcUUKZjWVD84EY/J02UQqRhmlA7YVEKYcckHceH5YCWg3IThrA8kzb1IV9kar2QBSQdy894Mz3s1IF4yv8cYX/ZIuch+ybtwd4EuYzCwmNjUbk0EotsGmeA0SBik63ySXP2Wz4ozoTN5pqPkH/Vt77s4s/9jZdc3oK6VEANXr+DFVt+pw7r5eIjXdSw50LpZH+fZi3T6JmwsLENZHSrN6Cu+QpejSOzbSvFyK95fkyM/CudJ+a5f3nWb62/SeMZbtcNKPOQOW5mBdRtvIK3cQMKhdPLX/+mS/oq+mW5VEBNZqNxzrgcLxMT6V7nCuz80OWhGG7dNpCNh4VRGzln5zNtyv6F9kVBwt6G9kZhgsmzP8iqjCLuLmzl5/6J9OlruMmMR34ocVA2EMcwuHvbiP6psoYyEx5/0yB9FUWEpy6Ww7RJi/rxjMJnlCayMTxjQ3lhV2HkeCEf0tQ/6+p5A3fSIgxpWcYk8UhHuVuncwT12kX7A3LZRwEFj4lF5dJILLJpnAFGAwj6C68b7urvxhsF1Bd85Utn01cPLhVQAyVUxZbfqcN6OYnnc05i2HdNanfJWt4198Y2OHDe6g2oKVxuEuCc72JfY42jm/bqByuqf/O8mBj500dSEWT/wf3Qucz+aLx9bkDJHDMzUUDdxit4E3MtTAUUCifWQn6QydtPl2VDAaUSamKjcY6wf4/6uW6Oc8c8bqxljHMPwRyMOSB7CDbuiCLtjftDtk2dqyHtyXzOfoY2p6052DPfo1TBxA2qhCE8cXfBPDJf+5l5qnwyDGb2MZ7pd+arP3bcIemgpOGWUPZTwrJGYceNdQx/09c9lUIooUiPtEgTO3HwM99UxPGMP2kbz3oZxzwwcdP9mbc9c+nGs3mTr/Wh3uYFldM5w7YfEVkhGxR8rYB6IFhk0zgDjAaQv/CmmRtoyOZaBRQ3oFIBhf+lEiriwIotv1NH1i2ZEzt0kcsw90UXnlpGaDkta2Mbt/4NqGV82R5wznexJ0kj7ak80C3TqawYhWmeDxMj/xHtP7v6UqX9EROOFFCkh1/G0Z7j5lAFFGvbFjJdw8/r4WQnX4gCiptP3/kjP3nlBtRl3IgPG41zxJX+Xvp5uuehGJMx7i0Q7ByM63hfY6bduH9k2+QaoB9u7F041DvHV9IXIId+lCL0EdPYgnlJ1xPXFvJOEibtyeoPR2noXsPyvE/4tTAqgQiX1D/TSKWSY0t/0x+FH+WNu3kbB54zrOOIyKAVUA8Mi2waZ4DRAIL73oDi1bs//3f+3uUreJcb774BNdcpJ3Gfnez1q2Hui5Yjy2ZZ9U+/xjaQ0a3egJrGl20hzXeN+htP03au7rvYeHzI9s9+UvuS7rLGlfY7laIjBZT+o355RdmDAuqGr+BVf+k6aBnI13UwvwHlv+BdKdfCRuNcUft6JePGuQGyhqXyiVsvKp+cE0Zp5HPm27h/ZNuM2o92ZT73UO9rZyqfkvhzI4c4xN2FmhekDLlu2LfsX9prnLSPwmtPt2QNOwpn+lVBhh0ZGQbqnvaRYs14hjWPUZj0S7sKKOMnzxGjeiZRgo4UUCnj5DGxqFwaiUU2jTPAaACx0X7iBhR+yzegoBtvPj6O8smPkF9uugfKJ1ix5XfqoE6jSYoJDPe1A9VDoOWirJa3hmls4yH/C540fvbJUbhmc0T6TT7bl3Tfp2/a7wy76wZUpvmEkufAG1CwovrLNQXUq9741st/wcPcUkDBRuMcMerrSecFxg/rV37/xtfuDFMP4CM2Hh5qG+Vc7TPtSlszt6tsquQ7SPijkCTePsh8Ks0XM8uke4atz4Yxfg2jX/WXhoOmhQlTiaRpuIyn/9qzxK2680z4jJPPuecbhdWE5wjrtkb23iigIHZkk/6jNI6FReXSSCyyaZwB6sCRWzegmLDYXPOqAUqn733m2ef/Ae8DoYCSRRFVseV36si6rTEn+vtElslFKN0gOPfF6JiYD8O3qICa22hwC2pfEq8VTs1j0r54SJ90DnTOqQoovl2Bn+EIk+lfWXMOVECxtlWkf6VrIWsj+UJ+iEkFFM/61fiw0TgVjPpvMjHyl45vTW4VoGTgH7y4WeBNF/xhKqRrOtrPAVm3Ub1G/qfIbDfsKBjpA87zlRz2uSVFuEznJqR/jdwpz5qfNIzhsj7pn266Vze51selfqN0syz7kvQyv4xfyzFK/xyR9VtjKqDos/vI/VhYVC6NxCKbxhlgNHjYZD9xA8pvWCwKJTbXKKB47Q4FFHTjneEqK7b8zgmjeo7cHgIojwtSxUMt80MEN6Cu8wqesnfDwPhzw87mLBVQyUyr2TwF2sfdjMOqgKp9PeM/oeS5h1fwWAP7BlTj3DDqu5UJ3RgfjFPHCXTs4oayicMcr155qKs3njLuiOcA65J11Z7+50jamltQKB9T8QS5FYe7H+Pe1RfuirdZjrW0012k/y4mRv5rHOV7bsj6blEFFHuS0Q2oEY+FReXSSCyyaZwBRoMH7nMDylfw+AB5fwPqvNDtcXMgw5vegHLTPlJAuWk3TG4afPaGU/Vre9vv2p5ukr6r8smN3ZoCahQfXlH03OIreNC1sN6Aeum3f9+sfMJ85u3vvvS7jBuvrzcap4DLvrsnc3w6lqsbSgVet1PR4C2XrfENzxGjej4mMq8zv/sapuS5/vAwin9OrPUcjYW7xH3keddI2W5xdANqV/xjYVG5NBKLbBpngNHgYZP9xA0o/KZNNIeFVECN/gVvPvT2DajGI8dNvgEF2YT4+hELn4dyvp2hAiqVUEni5sFeM90g+WhP93zGrGl1Op0OPCQd7cTRbRSnKqD4DkjGMy7PT/CWX8GDxFHB5Drov+BB/wXvynj2BvHERuMUcNl396RjOJ9z3LJmoXxCwbCmZDB88txQ67cPzw3UiTb3cJ8KKG+aVMXkOSHbFtZ+73iQjeMj5bvF0Q2oRA1/TCwql0ZikU3jDFAHj1y9AfXc++bNvxtvFE9f8JUvvaKAMtwVc2HFll+jcco45BU8x00eWtmUoIDCZOGrt0LWFFCE98Bf3Uf2fK4mTEXBWrz6PArf6XQ6kv6dz8ns6/nPWKM0rih54C2+gldJ3hCFE2vhq559z0zdn4gzrYWNxqngif67gzk2c6zixzrFbSdvu/CK1Wte/fQTcZwrTPMcQb2Uj3brO+K5gnqnUtJ/w6tz/jnKIdt3jec+Du4bKev6nFQBlTeg9BP1+VhYVC6NxCKbxhnAgZNE4fTEDajlF1w2CJANdiqgnngFDw5uQVVs+TUapwz69HVvQLH5SFYFVP46CDOd5JZfs/kQWPswfZ3XTb0l4WEEP8x6MLmy5tzyK3iSdZF8XQdRPHEL6lVveG58AyrYaJwCRn13FxmXjtGk65fffeKWYw0zSu8cMarnrnX6HEG9qDc3uv28AHN+vpZ5rvW3Xvb9tfY/ZxncN1LO9Tm5jwLqtrCoXBqJRTaNM0AOtOQ+N6BQOKGA+vN/5+9dUUDhP1I+wYotv0bjlMFheN8bUDAPrG5KIOPPQ7kbeDZpuFWysU+uuTebD4HZdyVKJw4jKlv5ldwN+tpG/ZIHKqAYWxXpv0YVTBClE6/e8f0nTBRS+o3iNhqngFHf3Yd5qMbkppPffWINU8Ggv6Z209F+brB+WU/qXt0fC1kH2NOgfMp/RKz94RyZdcScz04lzLmOg/tGyrg+J9mTrCmg4G1iUbk0EotsGmeAHEiSTfkTN6Dwiw+psrlG4cRHyFE+YfLMr79XJtF+Ba/xSHGTb0C5MXHssUnjF2T+tpqNPHYXxWbzFMjhQo78pYpW+rnfO3NcVD6h5LmDV/A8EJA3Hxzn9hMfIH/xS56azVZANc4BW/22+uUhWuWB9IYLRKGMQipv8BpPN9PHbvrnBOsEqTf7ZeXwmGidueFKv2Dud76379Q458Zsd+u71hcax0WVbT4nUTq5N0EZVdvnNrGoXBqJRTaNM0AOpOTqDaiFbK7ZaKN0+t5nnp3pqweX4foVvMYjBn163xtQjpscPyx0kPHnJs2bIZBfDJvNcyT9mw1fvo4B64b9iXFzR6/gkZ/kBhTKpy//618zmyqgRvFgo3EK2Oqz6ceYVImiydhk3HKbhR9LGNN+2yeVT5imob3y3DCqI6T+j5H0Bw757G/oLzzLUfhzYdZRc9QvYOP4qPLNZ8m8xB4kFVC1nW4Ti8qlkVhk0zgD5ECSHHifuAE1bexn/+fed7nxRuH0yne+b1Y+YaqAmm9A9St4jUeOY/wL3pvf+dOzyQaFzTuLIb8SQjZsms3mOZF+zaHEX8M9oGLmGHlC0XNbr+CV9cw1EHoDim8hYr7qjW+99LsSdzIbjVNB9veK9HNMejDDhK961avm244ok1FC+fpKjuF68K7jG54bav0kypfHurbTT+gjKCl5ruY50rrZ5rT/Y+j/DwVVxvksmZvYc3N7s29APRAssmmcAXIgJVdvQE2baBRMbK5ROPkKnkoo3K8ooMrGvWLLr9E4ZcyH4VBA5Q2oD77+RzYVUCxy0A279FczDuaazeapkH91HLmPSP+mzzsm5nVlsa9yfgVvGlfT+Nr3BhQUI781qmTiBhTff/IVPJ4dy5drYayDjcYpwP466rPpRx9nnGKyXkHGL4dqbzRy0MYt4xk2x3ja5bmh1g9Sb+TFQRd5YaKQkb7CeI60fvaV6n/OzLrT/qx5o/7RuH1UmTMmaQ/H5a4bUCO3m2JRuTQSi2waZ4AcNNKbT08ooJZvQLHRYIPNqwYon/7c33jJ5Teg+CbG5aY70pQVW36NximD8bL1Ct7lrcKJqXyax89kOgaT8wZ9GVsuhJr4NZunQA+tSftyPms6PnyWOW4kN6AYX9/9B//IPN6eUECtrE2HkHwl62B+hJwbUfoRdm3D2mg8ZGSf3WKOVQ5skIOat58w/bD0KN7aszw3jOqIbLgR46v1KCaQ2z4k3sj9lFjrcA512ocoNVBu8M1DnlHS5niyfzRuF8o5yZikPVCeq4DiW6xr81TyWFhULo3EIpvGGWA0eCCHXc0rN6AmqoBio82/4H3+X/76y3/BQwH1tje95/mwg41+xZZfo3HKoE+vKqDe/JorCqgRVTq99YPPznRMzuNqGVu4MRZZFKH2Ntt8yCb91mf6cbqnXT9/FLHPz+Og0LS8eYgC6hs+7ld+8Id/4UfPCqi3/LkvvqKAyjT35pQ2ZcNOfpCbwNx6evnr3zSTNfCyLAM2GqeAUd/dRZRPfq/QGy3e7HDcVNa8RNrPCbWumMhGBRQmryty2EVxx6uMmNrPgWv1Oac67iJ1pY0ZK/67Me4qaukT/hhpX2kcF8p2ROTPXMZ4RAGFgpA2G81jNa1jYVG5NBKLbBpngBw0STbm8ooCatm8s8EeKaDYjPcNqEZj6tvLQXhVARX/KnnJGDeMPZVPlwoo/BeyEDabj4GOh8txssU9FVCmpyLpShojLgpjymMcOCugprVQBZTfQryMt4xVnxuNU8Bl/91B+jaHZonyhBs8KJ84vPGvdx6q5WNGlYN2DripsEuZKuORCeuNUp9J13Btvxs7Js/Y9RuFwaSd+caQf7qBAsqwlY3jYiTjJO1Ae6iAwuS5hsGs6R0Li8qlkVhk0zgD5KBJujm/sulfNu71BhSv4KUCKsNemgsrtvwajVMGB9bNG1BVARVjBqWvNzTkvNgRRk5hXQDbbPNcTX8AqeYlYzzMyqfBK3gooVIBlePLdK4ojdY4pW/ZVEBx44lX7/7+d798Np/4F7wyzhuNU0D22S1ymIYcpnllhYMaihS/mTK6/fSYkXKQyC8VUDynf5Vf8zRZ2592VgFF+68poBrHR5VxJe3AjSfaBQUUN9W4EbU1Fo+NReXSSCyyaZwBRoMIeuit7iifUgGF4gklVH4Dag6bh4JgxZZfo3HK8CbGq37np87Kp/wXPD6SfOVg6ljJcYMCazkoyzmOYbBPYQzbZptnYdqv5Vb4y/HwfJxZ+fSO1175F7ynf8GHzePvmc/73EUB9a7L8bS2zo1IeDafUOXTvA6+8a1XP0I+rYv6Xca3vBMbjVPAZd8Njg5fuHGQRvnE7ScOayhS/PC4/oZ/7EjZQeWzpYBqnidHCqhR2zeOjyrjStoBBTqKdG50ejNxFFYeG4vKpZFYZNM4A4wGEXRTrjkffvGbNvsqoPill3+/Q/nEP+Bx++mJG1CFFVt+jcYpg0Nn3oBKBRQHYQ7Lc993rMwH6Q/RQ7J8IswybubDt3YYh91m88Gx9s9Rf7VPV7MSd0gaE9///jeuKqAub0BN4RhPhyifpAdwTJVMr33L22fF05f/9a95XgH1xrdeVT4VNhqngFHftf/XZw5rvGqnEsUP9q4pUh4zqiyQEURmKCJG38yqcm+eB2n3fAWPGze40d7Z5o3jI9shqdwxUairgMLufLY2Ho+NReXSSCyyaZwBRoMIVgXUiCiduPWEEmo6Tj/57YsBK7b8Go1TBgdjDrxrCqh6qEaxO1QwTcxxOIfTr4RrNs+FV/r5Fhfl03vf++ZLBRQ3DFFA8e0nFVD+Cx6bR5VPV5S7O2g44rvOYfJDTCqgUEg9sQ7GWG80TgFX+u8O5rdsvMWT/+hV+ZgxkgcH27wBlQqovefB5slxSwFFu9sHGsdHbYtK2wblkwp120NFVOWxsahcGolFNo0zwGgQQTbnbqIvD79x2MWPVw3+0evfdfn6na8eGHa0cFZs+TUapwz6tDegfvQjf/n8HRo+ivzGr/jLVxRQjJkcN1fM8M9wl+GLvZ/7+dyfR1Sh9O4Pvun5m4WLAoobUCh+f+CjPuJSAUU4P+x/iAJq5nue/AZUvQHlN6Bquc2n0TgVZP9dI+PBb6X4KlE9SNc4jxlVFhA5VQWU7jXsiGvpNh82GSPcrKkKqBqucbuo8oa0A2MRBRRjMz9A7rhci3ssLCqXRmKRTeMMMBo8UKXTpfIp6IbCb0C96KlvmpVQ3ITiG1Cz/8rNjIotv0bjlMEYuLwB9Qs/+kkF1HSYHR1U57FTxo/hkrpnGO393M+n/ryLhseEz3zgfc+vV9O4YnyhgPq+X/IvPq+AesFHzQqod77lzXPY/GfJWTHELaqSfiXh2HhC84QooPgAOconzCc+Qg4j/UbjVEB/9bC1pgxBWcJBzW8/pQJljY8ZI3lAFVDcutglv+bpMFH9UgGVilv8crw1bhdV3pAbnHzHzn/A4wPkht2Hx8CicmkkFtk0zgCjgQNTAXXlF+LlYMwGWwXUF3zlS2cTBdTlxrsVUI1HDl/B4yPk3IB64iPk06H0idsXKp8cP3FwZSw+cbBtNh85GRNJxg7jjn/BQwH1E//0R8/j71Vf+MUXH3jzW2dFFXxCAbWHEioP4+bHq+d89+nlr3/TTF9Fn8ti3FZANU4Q9FcOxHkrg76f44CbASpP/KvyDF/52KEclCFEXlUBlf5pb54OK6o/7e4reN6ycexkmzduB8q3EtmjcKJNuAHlHyqMwq7xGFhULo3EIpvGGWA0cODwsBtKJfxQQPEPeJ//l79+VkDxGh7uV65cRxxYseXXaJwyrnwDarkBlQooXhXi8PukEio+rMzzZBomFcOX4ZvNR0yVPXKkgPr2F3zs/BHy5376nU8ooC6VT6EkGtExyOZ0zmeym+eshJrWw3z9zjCVjcapgP5alR8ckHXzAM0hjZsCqTyB/frdk6jygMhKBdR1XsFrPkxWVH/GT96AQgE1avPG8VFlnKRduI3Ga5HMayigDr2VeAwsKpdGYpFN4wwwGjgwD7pXDsjT5p5NBZtrFE4ooLwBxTMb8X4Fr9GY+vaigHr57/6Mi+96wS+aXwPiFTwVUHwwmQ8nM74YZ/PGg0MwY2c2n1dC4W8YyNhzfELHZ5ttPiYzmcqe979p/QbUpgKKcceYi3Sf4BTOA4JKJpRO3Hz6zh/5ydnkNXT9Mp72RuM+sdUP9avMQ7E3NDC5FcCtJw5pHKDrK0TaKx8zRvJATlUBNVJEyMbDxK52qv60e1VAjcZM4/ioMk4y/mgXFOvwOq/FHgOLyqWRWGTTOAOMBg70gJsHXYhySQWUr+D9+b/z9y5e+orXzxvxSwVUxElWbPk1GqcM+jQfIUcBxUEYJVQqoPi3LhVQbDYvN5wehj0YTyQMYxEy9jDzQJ72Ntt8DKZ2x838jNL3zW+dx933fubvu3IDqiqgGENz3Hm8LYqnlR9OoPlJlUyse34D6qXf/n3jb0BN6TsnNBr3heyTFem3RscaJgfll7/85Ze3n1Cc8NpKHqCxX65rhY8VVQaYyEgF1K7DbuN8kAoobtv0Dai7Q5UxVPYo1pnPGI+0C/PcLsXglt91sahcGolFNo0zQB000oMu9suN97I5VwGFsomPj6OE+o6feufVjff8a/KTm/mKLb9G45RB//cGFAdgmAqoVEJxCJ7/vYuDcGVRRMl0bzYfKxk3l5zGE2NOxe+Pf8wnzAoobh/y8X8+Qo7yiXUqlbjPj7V15VOSOMSXrHsonl78kqdmJRTfg9LvMh5lXeyNxn3hsj8O+mH6rdFDGHtAP9LrIY2D9JbCKfmYUeWAidzyBtTosCsb5wPauSqgRm3fOA6qXGWds3JuY1yiWK9hKrb8rotF5dJILLJpnAFy0CTZnKeZTAUUr919y6vfOpuvv4hN98pmvmLLr9E4ZdCnVUBxE4ND8Dd//C+d/43r3d/5sg8pod78mjncpTnim9/6vP/QbDYfGz80BhxHEuXTO5/6hotnPuP3XPzkL/+VF0//gg+7+IGP+ogr/4LnujYroFyr9lBAXSqsJqpk4l/wUDx9+V//mtnkNbzLdXDARuO+sNUP02+NHsI4JPuNFA5p/ktUDS9r+o8ZVQ6YyLUVUI8PIwXUSIHbuDmqTJM53pA/7cCcxnhc+wB5xZbfdbGoXBqJRTaNM0AOmuSWAgqywUYBxT/fcQsKs29ANRofArcqUB69+j/6zMt/wZtvYvxnf+jimc/73PlAzG2oJLc01nhI2Gbz3Ok4eMf/+vlP8G3/zZ+6eNUn/+ZZ+ZQKKMaj600qkw5VPkEVUNx4SgXUq97woRtSGV42GveFrX6YfrvIK2K8KsYBzdfv6mtju24MPFZUmWByAFYB1a/gPR6MFFAj5WPjZqjyTDJPpcwZe7xyp3J97QPkFVt+18WicmkkFtk0zgA5aJIontxAjzbq88b72fdcvoKHyTNKqQxXWbHl12icMi4VUJ/26fNrQM/+kz9nPgxzK+NHf82vufjuT/iEi+/+137TzFd/8r978V2/6ZOuEHfNNdZwj83cJ8xdmfuEuStznzB3Ze4T5romSqYk40oy1hhzEAUUiqlLBRSv3MXak2RtEyN/qZIpvwGF6Q8xcBSv0bgvbPXD9NtFX1Hx4LzPx8cbz6PKBBOZ9Q2oxwfauW9A3S6qLEdMmfv9JxTrcE0hXLHld10sKpdGYpFN4wyQgyY5vAEVSiU21yic+Bc8PkKOEopbULjPHyFvBVTjkWP+Ps2igOL2k4dhFVESvyTKKulzDdNsPnbm2NGe4wo61n74Iz/8QzegWJsG61MqjTDnMVzCjF7Be+bt7+5/wWucBC7746Afpt8WOaz5igoH53xFBT/2f6NDtHzsqLLARBHRCqjHh5ECatT2jeuhyrFyNE/l959okx9+xQ/t1SZbftfFonJpJBbZNM4AOWiSqYCqN6D8BhSbbRRQX/CVL51NvgPV/4LXaDwPb0DxOtDr/s1PeuJwLD1EJ3/4F46VTltxms3HSBS0jJdU3P7Ah/3zH9Qf5RPj77kXv2hVAaXC6IrSqHCkfJK8hsd6yBqo29o62GjcF7b6YfpV5kGNwxi3AnxFBfuWwqTysaPKAhP59it4jw8jBdRIKdI4HFWGI9Z5C9m/5tVPX37/CROF1D5tsuV3XSwql0ZikU3jDJCDJpmv4CXZVKuAYtNdFVCXG+/BL8ywYsuv0Thl0Kf5UPK7v/5vzEoovgXFbSjIB5Khz7rN9gjXbDY3yFjJ8bLY+fC/bnxzjfHHh/+f++l3fmhtijXKtW605q2RsDJvQKV7hleB1WjcF7I/VqTfFr0h8CVf8iWz0qTeEBgd1qrbY0aVAyby6xtQjw8jBdSo7RuHo8qwkjkJWTs3+cz3n/YZixVbftfFonJpJBbZNM4AOWiSazegriignn3P/Oqdr+ANFVBFEVWx5ddonDLmfs1reG9+zfzPXByAk/xTl6Z2+K7v+v4rrOGbzebzrGMliX+OGcbhSDF0CEe3oPjmE8qnl377981mfwOq8VCx1Q/TT6biyIMYh2QOaHwfxdfvqoKJZ93m/WD4wceMKgdMZNUKqMcH2rlvQN0OqgwrkTNzU85T3Dxk/NEWKNhpG9ponzbZ8rsuFpVLI7HIpnEGyEGTRPEkLzfd5RdjNtp8fJzbT5gqoPC/ooQKVmz5NRqnDPu1h9G3fvDZ5xcyvgfDR5CrOfN9VxbE2c44IszCDzz3zIeeL+MvYdps87GYU99njLBBxHzvs++did98gJvCvf/9b7z4wDteO5Ox9MwH3vehP8pYI2kP3FP5BB3XrIMon178kqee/xe8Z99zuQ5ekjIv9kbjvpB9siL9ZCpCXJe48eTrd9wWyDDStWveBxY/+VhRZYCJDFVA9St4jwe0e9+Auh1UGSZH8xpuebuT9sjbnYaTFVt+18WicmkkFtk0zgA5aCrdcK9tvNnIo3TitQM+QF5/+d3afNyEjcYpwP7qmMixsYub4cphVrPReExwDOS4yjWHdQu+971vnsmPKYbdHF8bzLXQdF77lrfPiqcv/+tfMyuhRjegcvPaaNwX7IOjfph+kD7L4Sv7LooRFCQc0CD/flcPZj6PDtLyMaPKAROZHeMG1C5/sU+aa/5r7iMcEnYfZHprTIz85U1wrHRo574BdTuoMtwiMqctkD/ffaq3O0dn2Yotv+tiUbk0EotsGmeCHDgylU+jTTdEAcWvvSigMHnOjTeD9jaUUI3GKSD7rGPiuqzppXuj8VgxGhOVdf1KP3hoOh4QXOv4FuKLnvqmWQGFiUJKv4wvG437wlY/TD/ooUxlCKY3BDigcWDmg7013hYbT7YBJrLdUkDtg33DZrrHZMUu/0NQ09qiGPlVXgfHSEPQzn0D6nZRZZlMZR/KddqCdmB+8/W7DH/XWFQujcQim8aZwsGWyqeREopfelE+/f3vfvls5t9Pu/luBVTjMSP77D791zDJEdbcG43Hhn3HwiHh1ug6mOsca5+v4GGyLvpjTI3faNwntvpi+kkOYB7SsL/uta+7vCHgP0Rl+DzQVTaeR5UJJnJbewVvXxj+UO6Ku8tf3hZGeaTbdXldHCsdMFJAjcZQ4/qoskyqYMJM5bq3O3P+uw8sKpdGYpFN40zBYEvF00j5BNloo3zil9/8+KqKKJVPx1ZCNRqNRqNxGxitOTDXQZjrIOsfayEmyqd6G1g2GveJrb6YfjIPwxzGOJRxUOaAxk2drW8VVTaeR5UJJrJduwG1Lwx/CMXID4qRX+VtYVce6X8Ir4tjpQNo574Bdbuoskwia+Y4TJTrjkFMnvUn7H1gUbk0EotsGmcKB2cqoXRzU+3Gm29ffPGXvnj+5ZdXD1A+vfFdb7vceN/nDahR3C0eG6M8tnifGJWn2TwW98Uo7rlwH4ziHYvHxiiPXbxPjMpzCOt66DrImue3EDFT+eQ6aLxG4z5hX4QV6TciyiY+yuv3n9Y+QL7GxvOoMsHkkLv1Ct5tUaRbKh0fAvYpi2G2eFcY5b1G2rlvQN0uqiyTyF8yt3H7yTHIfKef4e8ai8qlkVhk0zhTMNBys60d5sbaj6+igJr//eeNb53dvQFlnGNzX4zibvHYGOWxxfvEqDzN5rG4L0Zxz4X7YBTvWDw2Rnns4n1hVJbr0LUwP2iOwslvIVYFFGEf2oGu8XhhPxz1xfQb0W+k+P0nDsu47xMXNp5HlQkmh9y1V/AOZcUoTFKM/CpHGIWDI+zy30LGrdzlP+J1sZXWyG+LtHvfgLpdVFkmVTDx+h1KJ8YfyvW1f7+7aywql0ZikU3jTOFgS+WTphtryA0obj7xCh4KqB95+nWrrx6cAq27JnWu2NcfYL8tmr5mdQMj+1bYZrN5vjw2Rnkci8fGKI9D6Roocx30W4jf/MqnL19Fl62AajwUZP+tSL8RUYqgHPEVlfr9py02PoQqF0zmiENuQC1HscaJYNSGkHbuG1C3iyrLJLKmDZA737SjHTB5/U7/DH/XWLpPI7HIpnGmYKCl4ik33m6qUTT57QuUT2y+6w2o0UQ6Yt3Y3ycpC9AE1S39RnE0a9rHJFjL91BzlP5tkPza/rjth/Am+Tw0+11wVzmODdPPPPa17+KxMcrjUFp+1zXXQm4/sf6xDvKDDM/6ES4Pk43GfcJ+OOqL6SdzD+dHelVAHXJLp/EhVLlgMke0Aup8MWpDOFJAjdq+cX1UWVbaBvX1u1HYu8bSfRqJRTaNM4WDzQ13HhzcWKOA8tsXKKFG/4Ln5iXTqWlm2tjNf2QHhr0Nms8o73QbuY/8td8Gt/K9zjOmbrfB206/eV7s/nIY95HXsTHK41g8NkZ5XIfKOV/B44cXlE/eBGZN1I+wrIOuhY3GfcJ+POqL6Sc9DNN/X/Pqp+fbARzSMJ952zNPhK9sPIkqH0zkqwJqn1fwlqPYTfFPTvy/TPxtE3/98vzQ8LMn/tKJnzzxX534T0xM/JyJv2rib534f574URN/80TqRJxfPPEfm5ignv/yRMN8/MQa5qgYtSEcKaBcK5KN66PKMomsGWu+fkcb+O93Nex9YOk+jcQim8aZgsHmRhszDzdurKXfvqivHcCcSEfpVTegqfvIfhus6W+Vo4ZZ879t7luufUzjNpvN8+SxMcrjWDw2RnkcyjpPus6lAupFT33T5it4sNG4L2z1w/Sr5EDmP+BxUOMm1EhJ0tiNKi9M5HsPN6B+y8TvmvjGif9w4idMfGj4xyf+RxN/eCJl/dUT/08TxUdP/IqJPz7xd0787RMJ94aJT0/8byd++MTEvz7x702k3q+Z+DkT/+mJt4ZRG8KRAuqhKD/OBVWWSec1X79jXuOm50gJCO8aS/dpJBbZNM4UDjY23G66NXNjzS0ov33BprtuvDOeaa09j8KO7Ia9DY7ywgT6jeya1Z7pHJuZ/pr9OuZdcC2vdD/Uftc074deTnloOW/Dfl3eNA3j71PGQ/O6jTSvQ/O463zhWp73UZbbpHVwc+o6xxqYN6BYB0ffQiR+o3GfsC/CivSr5KDGv97xgV5eVUFJUm9ANfZDlRkmc8o9KKC+dOJbJr554nsm/icTf/7EhwZuN/3AxA9O/L9PzFtQ3OD6kYn/aOInTvwPJr5+4rMT3z0RZRTu3KQC/9TEPznxbRNfN5Ewf3HiL5x4axi1IRwpoEbKj8ZhqPIbETkjf24cOq9h3xp7d42l+zQSi2waZwoGmpvtarqphmy0UT69+CVPza/h8a94axtvmc+Z7r5mtR+LW/lCcB3T9I9N0jb9Lfu+/mneN7Mc+9jvi6dSTnloeR+C/Vi8zXyPnR7MTeg+9nyuJrxJWfbhPjI41H5bXJNh2teY5XOdy29Azd9CjG9AuQ6adqNxn7Dvjvpi+lV6UOaQxmFtpCRp7IcqM0xkecev4P3Kid8zkZtFL5qIwuZvTvwlE8VHTvy4ib8siD+3kj5iIq+u8cqbr6+h3PnYif/cRF6N41U3Xov7RRMJz6t0hicN0ic86XCTifB5u0mQxldPRAH1xRP/2YniD098ZuKfn4g7CihuP33LxB+biJLp905UaUVeXzMRxdTXT3z7ROp/Jwoo2jnXGcdV34A6LpRtlWNd4xln+VoxHx8nXm2n+1q/l+7TSCyyaZwxGGxrhwE21X6E3F9++fgqCqhnPvC+Kxtv0pD1Od0OMQ9hnXBGNAzpgy3TcNXMMJr43YRrZTc/7SO3fe3pdlvM9HfZDwmbHLlV92Pas20Ojb9GwxwrveShad6G/Ri8Tv7Xbaub+qd9n3mo8pA45GN4TO1ZlkO5q07V3Ne+L4+ZVuWWbPF7588U9/e8YzbN2zUO8u1DbkFJ1sb6Q4z5NRoPGXNfH9CDMgc1FFBrNwUau1Hlhcn8cMc3oD5z4k9P/MsT/x8TuWHEbahPmohyCLxw4vdNRJEjXzIRJdR/NfFHJ/7ZiSiSwL878R9M/PKJKJb+rYnfPPFvTPwLE7mlRHiUTf/Xidw8Ugn2dyeSH35VCUV5uLX03MRvm8hreNxoQsmFYgqF0++fiGJLBRTl/HOLnbxRioFPmfjqiV828X+beKcKqLq2OK76BtRxoWyrHHVHxpi8fsd8puIXNzmKe9dYuk8jscimccZwwLHhzufceOe3L+Z//1n+BU86kbppH5nJXWHTPISjCV3uU0ZwiJl20jg2Tde85JpfPo/sae7LlOku+77moWWA+8TZN/9DTXidMm9x37w1z51b8j1ERvu2k+H2TTvT3cduvC372uZni7Xc1d48nJcHhefe97y5ooTiRxd+jOHj475+N7oJbPxG46Hisq8WMielAgp7naca+6HKDBNZrimgRvP4chS7Lv6ZiV8y8f0T/8DEf2HiX5/IDaP/ZqLKmH9j4v9z4n83EUUR+X7lRJQ5X7A8o8DihhP4tIncOPo7E39FPL9r4jdN5HtMvELHK3XfMPGnJn7RxD8zEcUVN5k+a+Loe0z/9sRXTuS7TqT78yaiiHrFxJdN5FU8oAKKW04oxHg979sn8t0nQLn5XtTvm/g/TbxTBVQSOK76BtTxUGUH6xhCxv6rJ7c6kf0Pv+KHLsM9lDZYuk8jscimccaoByjgsxvr/PYFCiie85/wjFtN00q3EdMvw98Waz7XNav9NjjKa6sch/o1d/PY8jp3+d9X/Ub5bpVlV/hD07tLWo6HUp4RH3LZ5BM3oBZm2V3nUED94E+89uKbX/n0EzegDJsb4EbjocI+WsmBjBsCHJRRQPE9qDykNfZHytVn5oetV/DqgXg5il0Xv24iCiEUPv/KRG4S/dcTf2YiiiAUUt5C4lbR75j48on4Y/+5E1VAvXiiCqhPn8j3l1BA8YqfzyiB/sOJ5IOi549PfOtEbkpxmwplEm68BvjSif/8xApe7+OW1Dsn/o8Tf8HEPzKRD4mjQHrBRJAKKF4f/KsTUXT95xN5lQ9FGnXnX//+vxPvTQEFade+AXU8VLnJHD/Il2dk7e0nFFG8fpdxajvcB5bu00gssmmcMRhwudnW7qYbcuMJxRPfgJq/fTE98wuw4RzAxsUEacoaTnNkv01mftXtEP+152OxluOm5kPiQyzTPjzVclc+1Hocq1y3Xb9T6AdZxjX7PjyFuh6Lta6ug6x5roOYPOuX4fsGVOOh40p/DXJgUwHFQVkFVONwpFx9RpZ39AoeyiNuGfH6Ha/HoVD6VyfySh1uvJ7Ga2qEAyhxUDKhrOJ2lK/bHaKAQnHkP+zxnSa+44QiCeURii1e83vtRG5kfedEXt8b4Y9OpByk9xsmoqxCufSHJvL9KJAKqI+ZSF0Jw00tbmBxg4pbV9TjXhRQqdignfsG1PEwklm6SRS8yp0bUNhV+mYc2+q+sHSfRmKRTeOM4QBk053PMDfefHwc5RO//PLx1bwBxeCV+foCcDOf5ojpl+HvgpnXofbR87Fp+vuWJ3nbZduXtRx3Va5D872Lch5ahkO4T9zbqNMaj5HXVhojv2PXb5/0jp3nufHU5JPldZ1j3fMmMCbrYv0WYsZtNB4q7KuVHIrzBhSvq+DWOBwpV5/ZI++jgHI/vRzFrgM+As6/36EA4kYTr8i9ZiLKp/dN5DtLnzuR1/QAiimUQ3ygnI+Q+29yKqD+2kS/r/R7JqL8qQoonwGKny+cSN58CJzvMPE6oOQmFB8sH4E0UFj9xMTPm8jrdzzzep0fQq8KKBRVKLh4fe9VE1FA/ccT+Sj5g1RApb9s7Ic1ufnsuOK2E7eekDvj7jWvfnp1zMn7wNJ9GolFNo0zRm60sQPsbqohrxm86g3PzconNt35yy90sZT1GxqZvm67zJtyNLmPeGh+xyrfXfMm5U5Z7mPPvGq+W+W4qWyNX83qX5/3DX9MruV9jDJknF3pP3TW8o7qtva8RcLaZ9Mcucu1vA/J9za5T/nuoty3le6dcVm/aP9c5/wWIjegVEDVV/Bko/GQUfur5HDWN6COg5Srz8hy6xU8yLzDq8GYy1HsOviXJ/IaGsqYPz3xPwmiiHnbRG4W8X2lf20iypvvn8hNKZU8AMUUyqrvmEiafPPpf5+IYmtLAYXih5tMfPD8qYm/ZSLKH17740Piv33iz584AvmjsOL1PT6Azit7f2XiL54oqgIK5RhxUHh9YCJ1/8SJKNLu9RU8QLv3DajjYSS3fGbsKHNuPkEUvoy3uq8b8a6xdJ9GYpFN44zBYBsdGHLjzSabD6/Ot5+W1+/ceEMHOyY0vS1Trj1jHoP7TDbNu+GoXbfauvaHXeYWa5hdcUb+u9x2pSmPHS65VZ41v9uwj7jLfxe34o/89imb7tW/xnUe2WWu5XNT7kq/lvcQ++h5i/umeYjbg2NRQnHj1xtQKqDmm8CDG1Cw0XjIyL6aZB+XN6DqN6BgYz9UmWEyn+z7Ch5hl6PYdcDtH1594+ZSKm7Ab5zIP91x4+nfn8j3k94zEaXU907k+1BfNRGF0785kX/Oe8difvdEXt9770QUTvkRcp8B35ZCAfS3J6KE4gbTP5zIbSjy5rtOfN9pDXxLijRRJnFji4+o830ogQIKpdf/MREFFK8SfvZE8kJu/+tEXgME/8NElFj8G9+tKqBcpzH7X/BuD8prJEPpx8eVOf+ERzvkmFuLf9dYuk8jscimccZwwHEoAHk4cGONwgnlE9+9WPsIOQN5HszLxn10C0r7ltsozHW5NTk1759bbbzWD3Y93xbvK9/kPnkaJsOu2W+Td5XPGrfyv07ZjOOccjm3TPPcE263xLX0a9mq+5Z9xF3++7Kmc6x0b5uWE3m6xrkO+g0ob0DVNdA0Go2HDPtpJYczFFAoSPpf8G6GKjNMZLmvAgouR7Hr4PdO5KbSZ0z0O0+Cj4HzetzXTuQ7ULyK93UT+eaSRFnzL03klhJKKp7/1kReieOWFN+E+pyJKLf4tlQ+Cz5G/msn/omJ/PseeRDuP5uI0sjX/Eb4+Il8w8k43JzK8PxzH4ozPqrO634ovCgvcSj/J0+03rwy+NUTUXqlEuvooM1s01wPcOsbUMdDlZtMmaM8R9bIHEUUt5+Q+ah9Ku8aS/dpJBbZNM4Eo4EG3XBjZrjcePP9JzbefP+C70GlAsoNuMyBrX3klhv96ndT+uvDaJKXtdw3fT5XKsOU5Zr9GKwH1dqH1sz7ZC3zKXCrzGt+h7rfB69Try0a5z774T55rIXJ5zX7sfkQ+sM+dc05PH+xJjzEH3LjlzXPbyFipgIq04GNxkNG9tUka3kroI6DKjNM5pRdr+All6PYdfBhE/kO1Nprbnx/iY+K48+tIOxJbg+pwOF1OpQ8/AMd34zCHX/i8bpcfU7wbFlIl3TI03/fWwPxLCNp/+MTEyjRSJPyqJhC4WUc/M0DpRNhuXG1K98boa4h2hlDfQPqeFBeyBDZVllDlE7OY37LTo5kn7xrLN2nkVhk0zgTjAaa9MCQBwc31my8UwGFnc03m/J8Fc84mgzyNb99zF3Myf6Sz73v8v35S//JLcOQfuZV7Wtua8+YOxlluFLuxT3Lmv6j/NaeR8wwppm8UpaN5ytmlJHJPOt2ObFPbnWSn8P6vMTZtRBk2vl8mdYo72CW58pz+k9+6Z7lvBK+luVIzDy0X5FVuB+9DFvphd+c/yDsFfncAc0v8x2WYSnrznD7cknP/m77jPrhlTGke/Gv8XAzXpqSsud4nuMuTHfrqH0UZ+S25fczH3y+rLrxjD3zMix2/X2WW8/Gqe7aMas9n2uYdK9hql9y5M76B1nzeO3O19AzDPGSjcZDRu2vknmJgzLfTOHgtqYkaexGlRcm8r2jV/Aa94BRO0LHVd+A2o2RHKqckshRWTJmmK+QL3JmnKGI4nU8/DLsiPeFpfs0EotsGmcCB1ndMI+UT3m4gD/y9Ovm1w78ByBew6sKKJjfxLgpLcuQyyFwPqzF4Q67h7Z5oikHv1E+x2DNP5+r33uffe9lGTOMbm9/0/P1GuWzL7fawfJc5i+ncoxkehluUJfL54k13BX5Y6a9+of76nO6YQ7irtUpnzMMfvJK+Jq2z9Vde7K67/G8mv9i4ka/cVzivtYul2mNWMLu5bekKZ8IE2bNe9QeQ7P6r7ghg3y+zC/jLXb85vyn5zmcpuEi7BV7ulUuaZjeWpjNeuu/uGnHvBIv3EZjeGTfh4eGr9yKf9O09+Fd5KHSSTtKJ354+cGfeO3ljy81DuVKNhoPFbWvSuY1Xl1B+aSSpCqgGvuhygyT9XuXAoowrgPLUaxxIqhtKWnnvgG1GyM5pHxGRLbI0nHjt58YYyjSH/rtJ7B0n0ZikU3jTMDgcqNcN8xVCeWAxk7YN77lHfNrByqgvvmVT8+/BquEgio9qvKD5wyjPf0wk8a9ciALejBL/xq2Ppum+db80lxjLWumWfNNU+Zz9YNMkPqZrvms5Ztu2rdkCs2PfJK6pb924mWYynQ3jovCWhjtu/zSbeSXxB8qyxq+PhMunzMO5q4FC2aaNf3Kmv7IL8NIy6l79ddtrd4jZlppzzC6jeSQ8Xwe2ZMjd9PJ/q87pn0v+5NxMnxSv5pm+le3XSSOZajx19IbueuWZrL65di9Dzpf35R1Tkqmfw3v87FJvaybc2a6z7eeFuUTN4D5BhQ/xmQakHZKO2w0Hirso5XMlXyst94eaByOlKvPyHefV/Bca5ejWONEUNtR0u59A2o3RnJI+awRWUpky/jy20/MX/rVPWxizf0usHSfRmKRTeNM4ODKTXJydBMKEp5fgdl4swFnM/4dP/aW519HWMhG3V+G11j9STf9Mg038/krtKb25D7+MPPjsOFzMsPJLHvaZebDgVFzVIZkdTeuJO0sZ817FCbdrafUD2bZKg1Tw/k88htxLY3qtnbINmwNr9/I7jNK01E8/df8oP5b4XSvZtL4svrv4q54+mWYas8w6TcK43P6p/tW/PRbCzeyVzfM6l/dRmF0T3PEXXHX3LSPwuku87mGGZl13Fd/OBrfmvobdk6DMT+Zb3zX2+Z5oKYBjb/mrmn8TCPDzPPMZF7mv8w15G14mGkQx/nJ5wwrDedzLYP1NJ3MI+2WN91qnvlMeP9846u/5uvmH1/WFFDQtdJ1s9F4qLCPJjmccUh7zaufvvhbf+tvzYc4zL4BdT1UmWEi431fwYPLUaxxIhi1IaSd+wbUbozkkPIZ0XkLomxiXL3whS+8cvtpJGuYWHO/Cyzdp5FYZNM4EzCwRhtlOVJAMXAJ6wGJX4NVOv2j17/r4mu/7wfnm1GSVxR+6M3vuDw0EJ5NPO6afkPDDT5umQYbfA8CpEUYqD92/SmH/obR7oECGjf99bOMMMOYx2vf8va5jFkHwhgfZnzNlINhTN9wlL/WAz9umJFPpqF/lgMTvzmNpR7Et4z6I2tM4yTJ2zxG8tYPVj84qmdl9Sde+mcaliHrAPGzTXVLVlnVPOC+/qSFfw2jv+01kqdlzPbIdC7TiH4nrUNtz4xf61nlVP0Ng2k4/TNMcs3fspCHig3s+O2bh/7Es19mGP2hfoTVPWWe/jwTJuPbt7O9Runn+KusecBRGTKNLAfxRmlUf9oce8aVNQ/mSMNgJ56ypN+YhvXNMoz6HcSd9LPfZT1xz/Fn2hJ//FgvsKe/6aiQyjxMC9Mymod+ppH+o3JaBsi8bRjTwH4Zv7Q5P6pgmgbx+bFF5dPXfP03vpc0UGznOpp2181G4yHDfio9oHmI8xUWlCXPvO2ZK2Eb+6HKDBP5tgLqfDFqQ0g79w2o3RjJIeVTiQyhSihfH0bOKM+Zy3Juq/ETa+53gaX7NBKLbBpnghxglfXWU1IlFAcc6AGCzfkXfOVL58255DWFPBD4t9X68fqe39Ko/pIwpMGhCUXMV33ryy5e9NQ3Xfz5v/P3ZvKM+/c+8+ylv36QsCjGiE8Y7Lj9ub/xkjkvy+GhhPLw7EHDMuBPPQlTy8gz7h5wahktA+XDP8uAP6b1sJ6EMT5UDsSnLMoq60DZLUMeliwjcZS19TR/TMuAfy2DYXBHjsqyyhs3/Qmrv/LIehKmxldWWYaRLNfygOahP+GND/HPNKp/5kE5sGcZYK1HDWMaxB+lob/l3MrD+Naz+lMGw6S/eaT/Vhkwqz80D8KQZ4aBpEH61iPLWfNIf9OxHqSBqT99zn5HPOJTDuyWLfPAP/PQP/PAP/OQhM0ymEf6ZxkIo38dP1VWhss0Mo+R/6ic+PNsezIfjOYB5wnIc52rGPv6Ow+M0pDkm/FrHmtzUc3D+BC3nItQ6GQeKnhQDGFmGQ1jHvhj109/ymUZMo30tx4jf4g75YTWgbLxzPrnegjZ1KbiSTYaDxm1vya58eQ/4aEs4RCHe+MwpEx9Zu5QAbX2Cp6HaezLUaxxIqhtKWnPvgG1GyM5pHySyBQ6XlScK2NuPzG+DAO5SFHTeQhYuk8jscimcSZwwI02zDBvQMGcIBm4+ZoUvxC7QXcD7yaeDfyr3vDcxY89/fZ5w4/7V/ylv3bpz8EBP/0zPiRN0njlO993eejzYAo99OWBLf091BGfMNj1swzkwc2BPAxlOVDk4Mev4JQlFTumQTzqSTgPjbUM3/Lqt85leOkrXr+zHtVfOSAnTGWlLCkTbvMv/VM58kBGGOz40074kwZuWc5aBsqc/lB/ZTmqh/6ErfEJj7uHdOMbjmfSzTxGsrQcWQbCwVoPno1vuCwnaezyNw/Js3nAmketB/5ZD+xr9dA/yzCqh3mkwiP9zcM0sNcyECdllf6GyXqSJ24Z7pA88M96wlqGtXpQT7iWR5bBchqG533yMA38ax76j8oAR3nUMuyTx3f81Dsv00hZ4c+zcmAMqxTJuQh35iHonJv+zA3p7zwhnWvwNw9+XPjiL33xXAbCUzbTyDLgx7N5MF+tzUWkrX/OqYQhDZTpzrk8V4V61jPz0J84+PkDieX0hxKeaz2Nn/7EhxwaeFb55PrH2qjpGil1azQeKmqfTXJg4yYBShIOcj/2Yz926dfYHylTn5GtCqh6AyrnEg/Ny1GscSKw/Sppz74BtRsjOaR8ksgvZYhC1z9PULnrOOLs6vjKcQYfApbu00gssmmcCXLQrfHKTajn3nXFz823ZEPORp7NOZt0Nvxu3vXHD3cOH/o//bp3zX7pn5wVJs8+/2qahzIOaZJnDmMqmEb+uOOfSqgsgwcKSHlxsw6G8RtCHoj0Y3LDJB7+KOPIM8thGagHZaC8W+Uc1YM8ka9lXJNVrYd+2NM/65FlUJYpq2TWg/JYTg7TmJnGKD7+xHv9xfOvGNV68qwctsqw5Z9lyDxoc8NQBvxtL91lpkHYLX9oGsoBUjbCZBmSpIsfsiBsDWM91/x5xv3173vblTIkrSfcVQ/S0j1lZTnW8sDfNHblgX9NQ/9dfYK2quXMMJZxKw/jV39oPbMMtKdtqj+s8ZHXrjx4HuVRw5jHWhrIAeYYz/mM+hsGu3PAyJ85wTQk/ozxOY/lBhLpj/LQP+Prj6J7LQ/cnDPrXAV59vU2/TMMdvLI1wBrfIif/jxbD8gzaVOHtTLg7hpHeSAbWd0gm9jRASLZaDxUjPqrpF+jdOIwx3dU2O/s6utrfMyocsBk3lhTQI24HMUaJ4JRG0LauW9A7cZIDimfpGsw5PaT4wrzda993exfZfxQZb50n0ZikU3jTFAH3hovlVDveccVdzbemhwi3Iyr4JDelMJ8w5uf+wBUmSMzbvpr4sdBw8NGpX5b/vlxW4kSJvOwnDzD+TbRdADBnje+KKNhIGmkf+bhQQ5mOXHnEJph0z/dJXmZR+ZtHdI/62E4zCwnzzUPlABb5Ug/DsnVH2YaI/9M4zb84a4ywPmDxYN+IY0/8vf7NeYzksVWfIlfliH7C8wyzgfl4m/6xh9x3zruE2bkD7fygPukoSxHfjD9qxzgrjws45r/rvhw1K+YJ7Tvig8zzK72HNWTejB+CcMYJn9Jv3R8G8byOd4xccf/Ms3ww8z4PO9KY8sfu/NUzlfmkXMVG8i5HhFGv0rjk4/lxB1TZhie3/DsT8/pQ8JaRsxMm3BZBtc65082r7pDN7MPdVPbaKyh9tfsw4xHDnAclFFA8VrL6FWxffiYUeWAiWw9KNdX8PDTLpejWONEUNtP0rZ9A2o3RnJI+VQybzGGUOYypiBy9vbTKE7yoWDpPo3EIpvGmWA0AJ+gSifM5953ZRCzEcfMTbn0Wf9dpuF3xbsNjvJYy18z65v2TOO2WMuAuVbOamacdL8O8/B2zvQA2jwP3lZ7PpbxsC+rLJhrRvORc1G6p//I/TY5yqPmj7lGD+95e7jReMiwn47Ino8bBXzEFwUUChO/A3UoHzOqHDCZK9ZuQI0U2VvucNchu8YdpbXvQV27aRBvq/wZThPFwCgc834+p3+6Z7hK0l+LmzSNDJtxsVvmXdwXpNc3oHZjJIeUT9J2QpbMU8iWOQvleSqgdvWJh4BF5dJILLJpnAlGg2+VKqKW1/CYtJ24c0OOHfe1TfrI3Tjp73Ny5Cbx0x9zLX+45l/d1tLQfVcao/KO8q7hRmmshRml5/NamFEc3UfPI/dk+umPWfPAPctU/fIZjsqY3OUvM8+aTy1PhsHP5xqucq0s1X0Ubi1NqX+Gq26Ya2VIv0xj9JxuNb3qXuPirlv6ZbwaZ8S19GX6S5/1W6NhjFP9MEdpjMInTdP0R2Gk/qZZTe1r6eiOuWXfctsi4Y1zaFy4VQbThtYx67oWVo7CJatbPm/F030UJt0gG9itTazfTNSO2Wg8ZGT/hdm/Pdhx84mDHQdmDnUZfl8+ZlQ5YCLXNQWU/vm8xV0Ha5nhsOe6cwitA2mYTqY9Knu6YYfGz3CwupnfiBlWe7qZj89bNNyo/Lu4L0i7b0DtxkgOKZ8k7YZinHGEXOvtJ+W7qx88BCwql0ZikU3jTDAafJss34DKhWu0UV/jPmGuxefeN3aXu/xvgauL+x5lMe51Nwhy3/ijcLPbPnKbwuzMp6az67lwn3ocHGZQhmEaB5Z1lXvGyzKMyjO77ZHWsC4LV9MtbiMOww3Ks296a9wV/73PvvfGeTzBrMeajPdsx315pQ5HynNtnh25b83J6beVpn5bae3DQ9qzrmP7lGFX+dbSGG1cq1veeko7bDQeKrKfwjwM08d59qO+kH+UGh2Y5doh7zGjygETOa29gqd/Pt8HE9Vd+03X4OxLmW66geq+L5Hj0fcJhYeA+vYNqN2o8qhMmSlT5Jm3n+o8tWtMPQQsKpdGYpFN40wwGny3xVF+Yu15k4ceEncc3sxXjPyqW6L6z6x5jsqwVkbtgziJkXu1V665z6z5jsq0ZU/uG97nNffbsKdb9dvXvuW3b5yR28i+y38f+z5hk/uG33q+iT2fd4Xf5V/tu/xGbmvhd8XdSqc+7wp7whxhFE7qL6r/XXEr77zhlGZVRDUapwL6bD2k8cyHyDnceVsnlSUc8oyDvR765GNGlQMmctq6AZVMjPyh2HITGab6baGG8znda3pbcZKJkRuo7j5XJtbcRfqt2UF9vi5o574BtRtVHknmG5SKzjsom1A6IVPGFEry0SueW3woWFQujcQim8aZYDQAb0Khvfo3j8OWbbPZbN4tK1KxpF2T8K14apwiar+XHvBQlmDmrQ0Oz3nQWzv0PWZUOWAip+sooBqnjZECajRmHiOqDJBLHRfKCnfnHsYP4wiO/qnTcD4/ZCwql0ZikU3jTJCD8xgUPrMBh6dgvw3zNkjaYFfeh5i3bW+zzcdq3hb3zf8Q87btp2CucQvVn2fSA5qNxqkg+30e2LhNwCGP70DxGh4HaA959bC3xseMKgdM5Lb1Cl6ycT6g3fsG1JOo9Zc5D/ns7Sfk9ppXP33l1Tv/JCHjEU4ZP3QsKpdGYpFN44zhYD2EI7Dxfuik7Gla7mOZNf1jmNrN46am6R2bo7K32eY5mXLf8Mc25b7h9zGPzZq+885NzbXy38SUN4HpJW6aZqNxl8ixkIdiDnN+Y6Xe2PGglwe+ER8zqhwwkVffgHp8oJ37BtSHUOu9RmTkt7ywI0duZvIHCYyhVIzLjJvmQ8aicmkkFtk0HgkcuLtYkRv7Y/NnPvgzm/Z93Wr5LDewXjd9Jq9jmqSPqT3zuu4zJiSPNA+1p0n6Pmtvs802j2NCx5ZmdT/0Oc3bIsh8b/qs/ZjPmPsi4ydHfo3GqcA+OzoQ8x0ov7PCoS9vGngjYRQPPnZUWWByQG4F1OMD7dw3oJ5HrfMWlZFzDDcGuTnI+HEMMScRjjCaozQeMhaVSyOxyKbxSJCDdosjsJHfIvFG7jD9ajgOYSPql2G0k0Z1wzRtTMmz5b+umelm/scw4Vbeh5qmR/rSZ/NNt2rfRdPwH6XSrc0227yeCR2/a/br+GNucZ8w0rDONZqZp27XNU0n06z2Q/zhPsjwNd6ae6NxCqDPrimR/JtzDnscnFFI5aEQu8+Vjx1VFpjIrF/Be3xgjPQNqOdR6zxizivOM5j+McILX/jCeRxxG0o5Gib//ZBn/R8yFpVLI7HIpvEI4IC9DnJjv/acdk3DrMXF3PeAluauMBBo3gSmB02//q13Vcbs6y+PhUyzygRz5HaICbPsa/Vss81TMunf2rfCrZkZX3MUbs28LTrHagdr8/CWmeHTLYH7TWH6x2KmuQsZbxR+nzQajYeI2reTHpz5DhT0xkH6e1CEjQ9BmSgXTGTVN6AeHxxHfQNqe76BKIyQjfLRnn+K4Kt3IwWuCieYMn7IWFQujcQim8YZwcF4EwrsHjZ0X3sGu8JiQty1j5gKj9FzcssPmm/ikGfst83EMZ734T4yru102wfmZvO+eYw+fpM0KkZuiTV/3TPdXfPzvs8V+BtGUxz6vIZd4Ub+uMk1ZJgMO3KXjcapwX5b+zLkg78e/LwF5SHPw2KNIx8zqhwwkVcroB4faOe+AbW9bioPZJV2mH+I4Njx1buMn8/G9fkhY1G5NBKLbBpnBAfjTQjqYSP9QH1OrIVN9+p2bB4Lo7SPzWNhlHaz2Wwem8fGKI9jcoQ1v4w3YqNxihj1Zeh3V/IWVB7stviYUeWAidz6FbzHB9q9b0Btr52pdEo3FE0vf/nLZ7khP8aP8jOOyqeRm2k9ZCwql0ZikU3jjOBgvAkF9vor+LGQ+d0Gj4VR2sfmsTBKu9lsNo/NY2OUxzE5wpb7FhuNU8OoH3uQ4xDH6y8c/FBAcRsqv72yxceMKgdMZNY3oB4faOe+AbW+djoORuMBWTFmkN2+r96N7A8Zi8qlkVhk0zgjOCgPZUV1H4W5CUz/tngsjNI+No+FUdrNZrN5bB4bozyOxetglA5sNE4Ro74MPbz5CgwHwDwEjg7RW3xMGNUfeaUCqm9APQ6MFFBrysdTxaguh5CxUecT/wQBueWrdzXcvvPQQ8WicmkkFtk0GneO0eRxTB4To/SPyWNilH6z2XzYTIz8HwrvAqN8r8NGo3F1PK0d5Dgs//ArfuhSefL1X//187ehPERnvK3D4GPCqP6wFVCPDyMF1No4OUWM6lFpfdfmCmQkeU6lN+OFm5drirv857s1PmQsKpdGYpFNo9FoNBqNRqPRODOMDmyV3DxA8cRhkEMh32XxwOhBMg+Qa3xsyLojm1ZAPT7Q7qmAQnk7UkCdEmrZd3E0N1Q3nyHyQlaMFcYM803eusw5B3vKU/icbg8Ri8qlkVhk02g0Go1Go9FoNM4MeVCT9YBcD4Uoo/gWlAfGjFPjJh8bsu7IpRVQjw+OnXNRQNVyr1Fgp755U4nnnDecRyD/tMk4QV75yq/hDacMfTZt4XO6PUQsKpdGYpFNo9FoNBqNRqPRODPkQW2LKJzyFpQHw9FhehcfC7LOHJJvooAahWs+fNLuj0kBleB5VNd0U5mEyWt2vG7nHOM4GYVHoWU8/aAYuT1ELCqXRmKRTaPRaDQajUaj0Tgj5CFtjR7+OOhxOyG/y+ItqBpnHz4GZH2R074KKClGfs3TIO1eFVCjMXMqqOXeReuKqeKo+uGeCm7+cTNvWWZ848rqJkZuDxGLyqWRWGTTaDQajUaj0Wg0zgh5SFtjHhL9ZypvKLzsZS+79i2o5Lki64gcD1VANU+ftPuuG1CnhCx3cs3PuiKHVCJhOrcwFhgTKJ5UbqPszvDeeMK+RTFye4hYVC6NxCKbRqPRaDQajUajcUbIQxocHfDSjQMhtxI4SOeBOsPnoXFfniuyjshFBZSKu/Rvnidp97UbUI6TU0LWLbnlR33p77XP4w4ZDyi0kRHKJ/51Uz+YcaA41P0hYlG5NBKLbBqNRqPRaDQajcYZoR7U4OjAl+TQ7C2o0W2etUPjFs8VWUdk4vdtRjfHDlXaNU+DtLsKKBSQ3oDKV9FOCVm3Wv50o472aWRAf8+5AT/c+Ic7lU8o6JAVYYyrWTnCKBx8yFhULo3EIptGo9FoNBqNRqNxRhgd1jwgrj1D/6kKZQqHRw6NKlTykLkvzxFZP+QCRwqoVEQ0z4+MhaqAwi0VK6eErFstu27Zr7E7J0jc6P/IxduUvtLLa74pG0m86rYPHzoWlUsjscim0Wg0Go1Go9FonBE4oNXDXj3o5aFRu4dHDo0vfOEL54M1SimVKsQbHSJvylPBqOzIAznxnRsVUPldm1ZEnScZLyqgULbwT2+44Zdj5FRgebPM6QadJ6ynduqrndfsGA/MH4wJblKqfGIsGK6mm8+7eApYVC6NxCKbRqPRaDQajUajcUYYHdryUOyBMQ+OPqNAQZHCwZpbPf5rFfEy7Cgt3Q7lqYCyjuqJAsIbUFU2Ga55PqSdUwHlx7UzjO1/CsjyrpH6jagfr91586kqnwiDSbibjItTwaJyaSQW2TQajUaj0Wg0Go0zg4e1eoBLehDMQyF2FE6+VuYrNN6CMixmtWfah/BUYHmVlfTQnXKCeRNKWa3ZDw3f9vu1084oWKoCynDJU4BlreWv9casRBa+vluVT/iP0h3xnLCoXBqJRTaNRqPRaDQajUbjTDE66ME8WHpI9NkDpTd7MLndgLtxMx7PawfMc0Ktm3JQAYXSjlsxyIpXkZAhPMSO2faHa5e0M+3Nq2apgHJMJE8B9udUgqabz9ZRMicoC8aAtyZ5JRE/w2V62pPnhkXl0kgssmk0Go1Go9FoNBpnitFhL6kSxYOhh0pMbvRwoFS5wiFbJZRxMGGmucZzgHWx3tzy8OYH5MZYEuVEm6dnrtkxtdPefivNb0BVBcupIPt0lr8yxzxzAcpWv/nEXMHNJz7I7hxS5WEa1e3csKhcGolFNo1Go9FoNBqNRuNMUQ96I3qg9GDoM6/icZshbzbg5iE0D5I8a1/jqSPrYt05aHPoRiGBjKQya54fecUM+sy48FtHOSbkQ4flHJVd4ue84NyAglpFHHLI1+5gpqc9b1Mlzw2LyqWRWGTTaDQajUaj0Wg0zhijA18lB8Q8MHqA5NaTN3w4bOYhsx4wcctn7bt4KhiVHXoYRxHRPH8yBtLOjZ+tvv9QkWUc0XpQN4nCldte1B0lHPPC6IPjhs/0tnhuWFQujcQim0aj0Wg0Go1Go3HGGB349iUHTr55w2tHHjbzY9uEwayv3ORNB93WeCoYlR1afw7gUDtm8zyZbZ2KltrXHyqyjHI0TlUk4YeJQhrlEzeeeO0OpTTzAbKochilN+I5YlG5NBKLbBqNRqPRaDQajcYjwegAuEYPnRyy+dCwNx44dPLtFw+nHsqxGweaRk238lRQy20d5aiu+6DGaZ4Gs7211z7wEJHlS+a4ldQH4o4iOr93hh03xz6s9Zdizf3csKhcGolFNo1Go9FoNBqNRuORoB4AZT04euiUHDLzmy/ciPKf8TIcXEsvn5OnglrurTrptw9q3ObD51rbj27+PTRYvkrG7qhe3G7KsQ/5UwI/vO4cQFjij9IQa+7nhkXl0kgssmk0Go1Go9FoNBqPFB4EOTSODs8qlTxoViUUN6MyDDQN4+dz5SlhVP7meXEXRnFGCpfkQ8KofDLrwbhlvHPDqX7viWdexXO8VwWU80imtytveS5YVC6NxCKbRqPRaDQajUaj8UgxOgRWcpD0sOltCL4Bw4HU13Dq93Dy8Jn2ylPDqA6nxsSae2OMlJe0z2+xorrV8PrX54r0PzScdHw6xqEf1md8+29/KJxxw4+xTjznBtNA+ZTjPe378FywqFwaiUU2jUaj0Wg0Go1G45FidAis9JApUTbxr1feiuBgWr8FQ7yMA+vB1OdTg3VIpvuhyHRumxVr7o11pDwrEyP/yhrOseJzjpPboHk5Pke3nlA+8cpdjnHC5o3JXRQjP3huWFQujcQim0aj0Wg0Go1Go/FIsXUA1M9DsUQBpRIqb0LVb0JxSNWeB9dMV/tjhjI4hMoxZah7dUtWrLk3bo6U+xpruBwjdbykffR8CDMu+UD/4Q6Fco5rxjm3ngxn3K38HzsWlUsjscim0Wg0Go1Go9FoPFJsHRj146DJwRM7iiSUTzxXJVS+opOHVe3Q9Ex7xMYYKSNk6A0U5Zx+azKuWHNvHAcp+0NZ29DxM/KDorqP6HhkPKN4YhyjbOLWE+PZbz2NlMpw1+2nx45F5dJILLJpNBqNRqPRaDQajSvIw6QH3zy0ehBF2cRB1Q+TY3pjIg+u0IMrZqa/xceOkUykcrRNVAymvGucijX3xnGQsodrfR932zHHTQ2Tz2sc5QszD/rKSPHE+OV1u1QkG8/893n17rFjUbk0EotsGo1Go9FoNBqNRuMSowOlh888iPrMYZYDKzeg/GZM/lMW4T1YZzqmscXHglHdR0zZ+4wsURagTODGypZsK9bcG8dByn6Njg8VQoylHDujOFC/rTCStDIPlE4omxirqXjiXy1f8+qnr4zVJG77jN3HjkXl0kgssmk0Go1Go9FoNBqNS4wOlLAeSHnWjQMrB2cOthxo/X4MHy7mwOoBOA/V1RzxMWBU7zUiq7yBgjyRMbJ+4QtfOCsR8iZUxoUVa+6NmyPlnn28+kGUPrSdCiGUuShxURahFHrVq151ZezI0djBjbCMNxST9A/GJulVxRM3n7zxRBlGedR+NOpXyUYroIZYZNNoNBqNRqPRaDQalxgdKpNrh14UHxyW60EaN5VP0ni7DrPynDGqbzLljd3XGJEpskXGKJ9+1+/6XbNygVsu+I3aqWLNvXFzpNx3kTaj7VDceosQ5RButC9jyttRtDnktlsl7oQhLAon4ql0Ij3TxA1/wpK3Ssva13Sr7tpHbLQCaohFNo1Go9FoNBqNRqNxidGhMlkPqrpBDrLc1uBwm9+V4UCc35TJdB77N2VG9a1MOSlnlA2ptPisz/qsWeYoFVBA1TRgxZp74+ZIue8ibZk3klQcVeWRxG2N+KsANk2UWKl04lYUfUjFMP0rxybkWaab9srGh7CoXBqJRTaNRqPRaDQajUajcYnR4TKZh1SYB1UPshxuOeh6O8dX8ta+bVOfKx8DRvWGyqbKFuUCskXp4K0zlA0o+1oBdf+octde+zptSps5RlAO8TocYwXFFH6pkGJMVaWTVNEEiYPCifjcjkIxTN+piifLNFIE6z8as411LCqXRmKRTaPRaDQajUaj0WjMyAPmLnIghRxOfcb0sMohF0UJh2Fv6XBAzttQmZb2ER8DRvVOIiMUE94uQ54oHbzRgpxxR/GAkmGURsWae+PmqHLPZ8kYsE1pT9rOsQEZQ7QlyiMUUrRzvmoHGU/acScMYYlDWiNlk8++zlnLtcYM21jHonJpJBbZNBqNRqPRaDQajcaMPGwmE7pxiM0w6eYhl8MvB2EOyShLOGRzU4cDNwdlD8c1nX2ZWHNfw6HhQcbZFXctTLqn/8gdIkvkhFLBm04QhRMKB5QMKCmQMe7IGaUG8eBjf8Xx2Nglv5G/TAUO/R7Shihmvb1GWzp+DG/YSvoFfOZtz1za039XHyCM9izbPmysY1G5NBKLbBqNRqPRaDQajUZjb4wOo9ADbJoehDlUc9BGaZIKFG9DeXDO9G7KLRwSVtQ4Uoz8rsNUBCg7br3kTTIUUSikUuHAM0oMZEt43SFpZrqVjf0wkh0UIz9JO2jPseGNNpRQtpv+2WZr7bdPGJn+lgc37YewsY5F5dJILLJpNBqNRqPRaDQajb0xOozKesBNoizxNhSHbZUp3uTx5keNm+n6nMw8K9ewb7hEjSO3/JKUfausEP+sM8o5FBTcauJ7TyiXeK5/mY8d+SrXfJUr099iYzdGcoNbftK2tU0waSOVsrYZ4bixlGENr/0mtM9s2XexsY1F5dJILLJpNBqNRqPRaDQajb0xOpDCfM0nD9lJDrkoSvI2FAoTboCgWFERleFNM9O9Ka+DUTpwyy9JXdZehcLPOkNlhEIJGUG/95SKJeNpIkPCIk9u01T5jWiYxm5U2Sm3kfuIthV22pj2tH1RzOI2CnsbzLQPzaexjUXl0kgssmk0Go1Go9FoNBqNvTE6kI7oobYepHlGycQ3oLwNlUoWlCj4EcY4lVsH5kMP0zflCKNwMP0sJyYyQflAnb0lhhIJ5Rxy4XZMfjPLuNglbiidlCdp4J55bdkb14cyTKZsqzvtwi02lbC0Ge1re2W4jPtQ2NjGonJpJBbZNBqNRqPRaDQajcbBGB1MK0cHaNygChe+XVRfy8OOG8qYLaWLadbDfj5Xv/uiSDfrQR252cSNmPzWk3JARta3KiZMAztp+KFyTOSnv3JYk1Xj+kh5ytpOKXf6Pe1KO6FoxD5SuNY0boNr5V9jYzcWlUsjscim0Wg0Go1Go9FoNA7G6HC6ReN4qEbpIjl8540oFTC+mqcixbQ8zOeh3mfCweqXYUb2Y9D00syypAx8HY/6+7rdqN7IhjCmYXzNdCccMiS+ig3clAk0bNph4/pIOULbpMrbtkChaHujcEwFY1K3bONjsGIUZsTGflhULo3EIptGo9FoNBqNRqPROBijA+q+5EDN4brSG1EoX1CgcEPEV5Rw44YQ/h7kt9KtfrdN8kaplMoCyqG7dsvIbSUUT9SLVw9RRlhXFEd+68nwGTdpXgB/5OMtKkyVdxnXsmXcxvWhHJPKGrnnM+1Km+ftJxWMhq3paF/La1+uYRS2srE/FpVLI7HIptFoNBqNRqPRaDSujdFhFdbDtAoQ3T1w6+YBHXIg50YUB3UUMiqiOLCjVMGd7x3xHZ284ZP53RYtf7WvuWWdVLCl4sm6US8UbHnrqdbL5yqvzI94ftwaeWEnvYyb4WFjf4zklm6ytg9yp228oUb78Jpk/qOhispMZ9Re8JgYpZ9sHIZF5dJILLJpNBqNRqPRaDQajaNhdID1EJ2HcsmhXGVLHrZ5RnGCQgYlCof1vBWF8gY3DvQoq7hZoqKFdExr7QB/HZKWt5zIB7dqZhjqRZlQMlBG6oGiyXqoUKMO1FM5mA52aR7pj5nuEPf8wDUmyrqRjNPe2A1lVbnmp7xtG5SP+epdfnjcsLZJts2IN8UozREbh2NRuTQSi2wajUaj0Wg0Go1G42gYHWJH9FDuwVt3D+Gp6IEoVbw5pBKHg3y+uoYfYXx9rdL0zeu6NA3StIxZVpQ9lAHFT97isrwqz7zxRPiMX9OHVfGVzDiQ9JCDN6zypg3+pmd42NiNlFdyyw+ZQ9qZfmv70z6jtoS29chP3gSj9EZsXA+LyqWRWGTTaDQajUaj0Wg0GkfD6CBbuSucyhEO4R7EPcijXOEwz60hFCsc5vNGEUThgx/KH8KhCEIh5C2gNZpXNdPPsKQlueXE7RYUSuRJ3pQBWjaYiieVZKabaeuefvU5Wd15pkzkhcKDMqjwyDzTfgh3Yd9wd4ks/z5lq+GvS2RM37At6Af0EdpnS/a72uUmGKU3YuN6WFQujcQim0aj0Wg0Go1Go9G4c4wOvLuowgRTxQ/KqHozikO+h/2RQgqiBILERUEFeSUKZQFpQuy4QcMQnnimA83bG0eSvHHHn3ikSZlVhFUlg3XDTCVchjmElNfbV9Sf+ph3ynJUli1uYd9wd4ks06hsI/8t7pKVcsXk5hmyt0/QF2yHUdx92Xi4WFQujcQim0aj0Wg0Go1Go9G4F4wO1mvMQ78HfJnKKL+1NFIKoZRSMQVREOEPvbFEnKTuhiOOSq6arsouFU4ogFA2UDbKOSq/bunnK1j1NTn9q1ulYZALsqDclK8qobIca+UZcQv7hrtrZLlq2arfLqbcRu2hn8on+0wqn/ZpxzU2HjYWlUsjscim0Wg0Go1Go9FoNO4Fo8P1IVw7xHP455CPQgolkDeWUACgEFCxpEIplUmpVKpuKhKIRxqkRZrQW1UqnEZls85riovKGobnXd8Hwo/0faYslE0lGWVFLipJDI+5lX6mu4WM85CwVa7028dfOSgz3ZURfY9+QP9Iuee3yUxnJOtdbDxsLCqXRmKRTaPRaDQajUaj0WjcC0aH62PSw74HfUyUAygCuCmVr9OpSEJpkNQdqmQiHvHrd6VUJlRTHqPO5DNyT2b+hKec1EVFGnVJZUimSZyREoowum0h4zx0ZFmTFemnrFJmEvkgV/oI8lb5hLKS/qKslaPPNZ1dbDxsLCqXRmKRTaPRaDQajUaj0Wg8eIwO4dWtKk223Dz8o0BKcmNoRP2NY/xR+lB/qNuozKK678tEuufre5SBW09VCYWbdaEe+77yt4V9w903spz7Ulkor/TDTeUTt+u8MYecVT4ZR1njBjOdfdh42FhULo3EIptGo9FoNBqNRqPRuDeMDtj7UIz89mVi5H8IR4qafXgIRvHXmOEpG4oOFCHcxkklFK+KqQjJOmgfKUi2sG+4+0aW8xAqq5QLSjxki4LPVzoxuTHHd6BGMhz1l13lapwGFpVLI7HIptFoNBqNRqPRaDTuBaND9r6swE1Fixwd8pMJ3YgjM5z2DJNuyS2/yutglI5MUI6UA4oSvomFEopXw/ImVMpMuyRu1mkLhtkV7r6R5UzuarsqH27HeevphS984SxX7LjlTTm5lf5WuRqng0Xl0kgssmk0Go1Go9FoNBqNe8HooH1T7jrs71IwEA9z9DqaNIzmTXkoRmmMqBywqzhBYcKtJ29CcVMHOwoT/AiTSpaUl/YtGHZXuPtGltN6YY6+fyV1Ry68bse3wLz1hOIJk2eUfCifCK8cK2vaorrLxulgUbk0EotsGo1Go9FoNBqNRuNeMDpo78s1JcF1uE9au8LctDy7MIqzi5ZJpYrKj/rKmLd2fGWs3twhDU24BcPsCnffyHJKZLTWjspCBR6y8ltPECUeCikUU8rPuCl76HPmlzBesnE6WFQujcQim0aj0Wg0Go1Go9G4N4wO28fimjLhrpj121WWLayFH7nLzA87SpFUjGCiLEGRghLK21De4PE2lByVX1T3EUfY5T9CxlmLV8OMwuluvdZuvOFP/ZEHyjnk5e0xFHdf8iVfMruhlErFHfFgfmzcvHyGmZdIt3RvnAYWlUsjscim0Wg0Go1Go9FoNB48Rofy6rbFiuqXz5WJQ/zrc1LU5xEy3qFhZSo8VIRgoljh5g5KFRVRKFX89zYVUZmWrPmZ7ogVu/xHqHFkYuQPK6r/qOzUW/kgj/qR8VTWpXIJe711NnKv+Yk198ZpYFG5NBKLbBqNRqPRaDQajUajcUe4C4VCVWBIlSTVDWUIN3hQsqB8QsECUUpxu2eXIgpm2qN8ToEqiqgrH2ZX8YQckAtKJ0ye+WYWN8iUSa0zz6ls8jnDJBvng0Xl0kgssmk0Go1Go9FoNBqNxhlhpODYRRUv3OjhZo+KKJQuI0XUlpIJfxUzSeNsxb1NruVPWXl9DoUS9aeuyIBvPFF/iB03FU+ENx0VTZkmz+mu8qmGk43zwaJyaSQW2TQajUaj0Wg0Go1G44wwUnDsIoqRVMSgaMnX8lREcSMovxFFPJlpZdq3QfNUybOW55q7SjLqy20n6qvSyRtgKp6oM/6ES8UTpunAmodcK0OycT5YVC6NxCKbRqPRaDQajUaj0WicEUYKjl1UgaKyBEWL//aWr6CplPFWlP/8lkoYTJUzpr+Lu8q9y38fWiY+Jk65600nFU/UFXdvfeWNJ+VTzZuycT5YVC6NxCKbRqPRaDQajUaj0Wg8UqD8qEoUnlUojW4IqYhSGaWyhjCpsFERdSwlzSEkT8rATS0UadzaonypdPI1w9FtJ5RU1gFm2lvfcqp1XUOG2QrXOD0sKpdGYpFNo9FoNBqNRqPRaDQeKVIJgvIE5YpKF5VH2PPD3FtKHF/TUxmF8gdlDkop0kCpk4odFTYjxU0+WxZfuTO+SiZIHpD8yJsy+BHxqjij3LhleVFSVeVZLecuZrjG48SicmkkFtk0Go1Go9FoNBqNRuPMkEqRfagyJ5UtKl90066yByXP2mtsqZRC2YOih3Cp7EFRpFIq84KZnyScCieUYX4wnDRTIQZHZclyEG9UhqpoqrJId91qHNl4nFhULo3EIptGo9FoNBqNRqPRaJwRRsqQXVSZkkqWdBspWXBHeYMSx1fcUAapCPK2UVUEqZQinLeQUArtIuHglqLJPPVPxRe3t1CaqXRaqxfEvX7gnPAZZhS/yr/x+LCoXBqJRTaNRqPRaDQajUaj0TgjpAJkX1ZFis9r7ql8wQ69neQ3l1D4oJTyllIqj1QU3ZSkpRKLPMiLPL1l5SuAKpwst6Z10Mz6yK1vPh3KxvljUbk0EotsGo1Go9FoNBqNRqNxRhgpPg7hSCnjc70VJKvSRqqUQglUFVMSpdG+zHiQtKqiydfp5KgemKlYIlyahMm4Phv+umycPxaVSyOxyKbRaDQajUaj0Wg0Go8cI2XJGkcKnTXFVFIlzogojfbhKC7cyndfHpKGGPklG+cJ2vZ9H3hutldzUbk0ErNkGo1Go9FoNBqNRqPR2ANVubKL94lReY7FRqMqnewXmIvKpZGYpdNoNBqNRqPRaDQajcYeSCXMPrxPjMpzLDYaIJVPaV9ULo3ELJ1Go9FoNBqNRqPRaDT2QCph9uF9YlSeY7HREPQHlU9iUbk0EotsGo1Go9FoNBqNRqPRaDQae2KkkPR5Ubk0EouMGo1Go9FoNBqNRqPRaDQaR8CicmkkFtk0Go1Go9FoNBqNRqPRaDSOgEXl0kgssmk0Go1Go9FoNBqNRmMv5KtHu3hKGJV/jY3GVr9YVC6NxCKbRqPRaDQajUaj0Wg0dmJ06N7iqWBU9i02HjdGfQKKReXSSCyyaTQajUaj0Wg0Go1GYydGh+4tngpGZd9i43Fj1CeSi8qlkVhk12g0Go1Go9FoNBqNxk6MDttbPBWMyr7Fxnmitm2293PP/czFT/3UTw35ute+7goXlUsjMUux0Wg0Go1Go9FoNBqNRuMRoyoXfdYNRdM3fdM3XbzsZS8bEj/9F5VLo9FoNBqNRqPRaDQajUaj0Wg0Go1Go9FoNBqNRqPRaDQajUaj0Wg0Go1Go9FoNBqNRqPRaDQajUaj0Wg0Go1Go9FoNBqNRqPRaDQajUaj0Wg0Go1Go9FoNBqNRqPRaDQaJ4mf9bP+/8Vy7RhFeyykAAAAAElFTkSuQmCC;" vertex="1" parent="1">
                    <mxGeometry x="100" y="1313" width="1059.83" height="367" as="geometry"/>
                </mxCell>
                <mxCell id="6" value="" style="shape=image;verticalLabelPosition=bottom;labelBackgroundColor=default;verticalAlign=top;aspect=fixed;imageAspect=0;image=https://k21academy.com/wp-content/uploads/2020/11/terraform-config-files-e1605834689106.png;" vertex="1" parent="1">
                    <mxGeometry x="130" y="1720" width="1001.64" height="470" as="geometry"/>
                </mxCell>
            </root>
        </mxGraphModel>
    </diagram>
</mxfile>